<svg width="283" height="35" viewBox="0 0 283 35" fill="none" xmlns="http://www.w3.org/2000/svg">
<path d="M9.44 25.814C10.172 25.814 10.814 25.712 11.366 25.508C11.918 25.292 12.38 24.998 12.752 24.626C13.136 24.254 13.424 23.81 13.616 23.294C13.808 22.778 13.904 22.22 13.904 21.62C13.904 20.192 13.508 19.112 12.716 18.38C11.924 17.648 10.832 17.282 9.44 17.282C8.048 17.282 6.956 17.648 6.164 18.38C5.372 19.112 4.976 20.192 4.976 21.62C4.976 22.22 5.072 22.778 5.264 23.294C5.456 23.81 5.738 24.254 6.11 24.626C6.494 24.998 6.962 25.292 7.514 25.508C8.066 25.712 8.708 25.814 9.44 25.814ZM9.44 6.032C8.78 6.032 8.21 6.134 7.73 6.338C7.25 6.542 6.848 6.818 6.524 7.166C6.212 7.502 5.978 7.892 5.822 8.336C5.678 8.78 5.606 9.248 5.606 9.74C5.606 10.256 5.666 10.76 5.786 11.252C5.918 11.732 6.134 12.164 6.434 12.548C6.734 12.92 7.13 13.22 7.622 13.448C8.114 13.676 8.72 13.79 9.44 13.79C10.16 13.79 10.766 13.676 11.258 13.448C11.75 13.22 12.146 12.92 12.446 12.548C12.746 12.164 12.956 11.732 13.076 11.252C13.208 10.76 13.274 10.256 13.274 9.74C13.274 9.248 13.196 8.78 13.04 8.336C12.884 7.892 12.65 7.502 12.338 7.166C12.026 6.818 11.63 6.542 11.15 6.338C10.67 6.134 10.1 6.032 9.44 6.032ZM13.832 15.428C15.416 15.944 16.586 16.736 17.342 17.804C18.098 18.86 18.476 20.156 18.476 21.692C18.476 22.844 18.254 23.888 17.81 24.824C17.378 25.76 16.766 26.558 15.974 27.218C15.182 27.878 14.228 28.388 13.112 28.748C12.008 29.108 10.784 29.288 9.44 29.288C8.096 29.288 6.866 29.108 5.75 28.748C4.646 28.388 3.698 27.878 2.906 27.218C2.114 26.558 1.496 25.76 1.052 24.824C0.62 23.888 0.404 22.844 0.404 21.692C0.404 20.156 0.782 18.86 1.538 17.804C2.294 16.736 3.464 15.944 5.048 15.428C3.788 14.9 2.84 14.15 2.204 13.178C1.58 12.206 1.268 11.036 1.268 9.668C1.268 8.684 1.466 7.766 1.862 6.914C2.27 6.062 2.834 5.324 3.554 4.7C4.274 4.064 5.132 3.572 6.128 3.224C7.136 2.864 8.24 2.684 9.44 2.684C10.64 2.684 11.738 2.864 12.734 3.224C13.742 3.572 14.606 4.064 15.326 4.7C16.046 5.324 16.604 6.062 17 6.914C17.408 7.766 17.612 8.684 17.612 9.668C17.612 11.036 17.294 12.206 16.658 13.178C16.034 14.15 15.092 14.9 13.832 15.428ZM25.0488 17.714C25.0488 20.186 25.3488 22.616 25.9488 25.004C26.5488 27.392 27.4068 29.636 28.5228 31.736C28.6428 31.976 28.7088 32.186 28.7208 32.366C28.7448 32.558 28.7328 32.72 28.6848 32.852C28.6368 32.996 28.5588 33.116 28.4508 33.212C28.3548 33.32 28.2468 33.41 28.1268 33.482L26.1468 34.688C25.2588 33.32 24.5028 31.946 23.8788 30.566C23.2548 29.186 22.7448 27.794 22.3488 26.39C21.9528 24.986 21.6588 23.564 21.4668 22.124C21.2868 20.684 21.1968 19.214 21.1968 17.714C21.1968 16.214 21.2868 14.744 21.4668 13.304C21.6588 11.852 21.9528 10.424 22.3488 9.02C22.7448 7.616 23.2548 6.23 23.8788 4.862C24.5028 3.482 25.2588 2.108 26.1468 0.739998L28.1268 1.928C28.2468 2 28.3548 2.09 28.4508 2.198C28.5588 2.294 28.6368 2.414 28.6848 2.558C28.7328 2.69 28.7448 2.852 28.7208 3.044C28.7088 3.224 28.6428 3.44 28.5228 3.692C27.4068 5.78 26.5488 8.024 25.9488 10.424C25.3488 12.812 25.0488 15.242 25.0488 17.714ZM49.7417 15.986C49.7417 18.254 49.4957 20.228 49.0037 21.908C48.5237 23.576 47.8517 24.956 46.9877 26.048C46.1357 27.14 45.1217 27.956 43.9457 28.496C42.7817 29.024 41.5217 29.288 40.1657 29.288C38.8097 29.288 37.5497 29.024 36.3857 28.496C35.2337 27.956 34.2317 27.14 33.3797 26.048C32.5277 24.956 31.8617 23.576 31.3817 21.908C30.9017 20.228 30.6617 18.254 30.6617 15.986C30.6617 13.706 30.9017 11.732 31.3817 10.064C31.8617 8.396 32.5277 7.016 33.3797 5.924C34.2317 4.832 35.2337 4.022 36.3857 3.494C37.5497 2.954 38.8097 2.684 40.1657 2.684C41.5217 2.684 42.7817 2.954 43.9457 3.494C45.1217 4.022 46.1357 4.832 46.9877 5.924C47.8517 7.016 48.5237 8.396 49.0037 10.064C49.4957 11.732 49.7417 13.706 49.7417 15.986ZM45.1517 15.986C45.1517 14.102 45.0137 12.542 44.7377 11.306C44.4617 10.07 44.0897 9.086 43.6217 8.354C43.1657 7.622 42.6377 7.112 42.0377 6.824C41.4377 6.524 40.8137 6.374 40.1657 6.374C39.5297 6.374 38.9117 6.524 38.3117 6.824C37.7237 7.112 37.2017 7.622 36.7457 8.354C36.2897 9.086 35.9237 10.07 35.6477 11.306C35.3837 12.542 35.2517 14.102 35.2517 15.986C35.2517 17.87 35.3837 19.43 35.6477 20.666C35.9237 21.902 36.2897 22.886 36.7457 23.618C37.2017 24.35 37.7237 24.866 38.3117 25.166C38.9117 25.454 39.5297 25.598 40.1657 25.598C40.8137 25.598 41.4377 25.454 42.0377 25.166C42.6377 24.866 43.1657 24.35 43.6217 23.618C44.0897 22.886 44.4617 21.902 44.7377 20.666C45.0137 19.43 45.1517 17.87 45.1517 15.986ZM68.3025 24.86C68.7825 24.86 69.1605 24.998 69.4365 25.274C69.7245 25.538 69.8685 25.892 69.8685 26.336L69.8685 29L52.0125 29L52.0125 27.524C52.0125 27.224 52.0725 26.912 52.1925 26.588C52.3245 26.252 52.5285 25.952 52.8045 25.688L60.7065 17.768C61.3665 17.096 61.9545 16.454 62.4705 15.842C62.9985 15.23 63.4365 14.624 63.7845 14.024C64.1325 13.424 64.3965 12.818 64.5765 12.206C64.7685 11.582 64.8645 10.928 64.8645 10.244C64.8645 9.62 64.7745 9.074 64.5945 8.606C64.4145 8.126 64.1565 7.724 63.8205 7.4C63.4965 7.076 63.1005 6.836 62.6325 6.68C62.1765 6.512 61.6605 6.428 61.0845 6.428C60.5565 6.428 60.0645 6.506 59.6085 6.662C59.1645 6.806 58.7685 7.016 58.4205 7.292C58.0725 7.556 57.7785 7.868 57.5385 8.228C57.2985 8.588 57.1185 8.984 56.9985 9.416C56.7945 9.968 56.5305 10.334 56.2065 10.514C55.8825 10.694 55.4145 10.736 54.8025 10.64L52.4625 10.226C52.6425 8.978 52.9905 7.886 53.5065 6.95C54.0225 6.002 54.6645 5.216 55.4325 4.592C56.2125 3.956 57.1005 3.482 58.0965 3.17C59.1045 2.846 60.1845 2.684 61.3365 2.684C62.5365 2.684 63.6345 2.864 64.6305 3.224C65.6265 3.572 66.4785 4.07 67.1865 4.718C67.8945 5.366 68.4465 6.146 68.8425 7.058C69.2385 7.97 69.4365 8.984 69.4365 10.1C69.4365 11.06 69.2925 11.948 69.0045 12.764C68.7285 13.58 68.3505 14.36 67.8705 15.104C67.4025 15.848 66.8505 16.568 66.2145 17.264C65.5785 17.96 64.9125 18.668 64.2165 19.388L58.3485 25.382C58.9125 25.214 59.4705 25.088 60.0225 25.004C60.5865 24.908 61.1205 24.86 61.6245 24.86L68.3025 24.86ZM77.4673 10.784C77.4673 12.236 77.8393 13.346 78.5833 14.114C79.3393 14.87 80.4073 15.248 81.7873 15.248C82.5073 15.248 83.1493 15.134 83.7133 14.906C84.2773 14.678 84.7513 14.366 85.1353 13.97C85.5193 13.574 85.8073 13.106 85.9993 12.566C86.2033 12.026 86.3053 11.444 86.3053 10.82C86.3053 10.112 86.1973 9.482 85.9813 8.93C85.7653 8.366 85.4593 7.892 85.0633 7.508C84.6673 7.124 84.1933 6.83 83.6413 6.626C83.1013 6.422 82.5073 6.32 81.8593 6.32C81.1873 6.32 80.5813 6.434 80.0413 6.662C79.5013 6.878 79.0393 7.184 78.6553 7.58C78.2713 7.976 77.9773 8.45 77.7733 9.002C77.5693 9.542 77.4673 10.136 77.4673 10.784ZM83.3713 18.902C83.5753 18.65 83.7673 18.404 83.9473 18.164C84.1273 17.924 84.3013 17.684 84.4693 17.444C83.8693 17.828 83.2093 18.122 82.4893 18.326C81.7693 18.518 81.0133 18.614 80.2213 18.614C79.3213 18.614 78.4393 18.458 77.5753 18.146C76.7113 17.834 75.9433 17.366 75.2713 16.742C74.5993 16.106 74.0533 15.326 73.6333 14.402C73.2253 13.466 73.0213 12.374 73.0213 11.126C73.0213 9.962 73.2373 8.87 73.6693 7.85C74.1013 6.83 74.7073 5.936 75.4873 5.168C76.2673 4.4 77.2033 3.794 78.2953 3.35C79.3873 2.906 80.5933 2.684 81.9133 2.684C83.2453 2.684 84.4393 2.894 85.4953 3.314C86.5633 3.734 87.4693 4.322 88.2133 5.078C88.9693 5.834 89.5453 6.74 89.9413 7.796C90.3493 8.852 90.5533 10.01 90.5533 11.27C90.5533 12.074 90.4813 12.836 90.3373 13.556C90.2053 14.276 90.0133 14.972 89.7613 15.644C89.5093 16.304 89.2033 16.952 88.8433 17.588C88.4833 18.224 88.0813 18.854 87.6373 19.478L81.6793 27.974C81.4753 28.262 81.1693 28.508 80.7613 28.712C80.3533 28.904 79.8913 29 79.3753 29L75.2893 29L83.3713 18.902ZM97.1082 17.714C97.1082 15.242 96.8082 12.812 96.2082 10.424C95.6202 8.024 94.7682 5.78 93.6522 3.692C93.5202 3.44 93.4422 3.224 93.4182 3.044C93.4062 2.852 93.4242 2.69 93.4722 2.558C93.5202 2.414 93.5922 2.294 93.6882 2.198C93.7962 2.09 93.9162 2 94.0482 1.928L96.0282 0.739997C96.9162 2.108 97.6722 3.482 98.2962 4.862C98.9202 6.23 99.4302 7.616 99.8262 9.02C100.222 10.424 100.51 11.852 100.69 13.304C100.87 14.744 100.96 16.214 100.96 17.714C100.96 19.214 100.87 20.684 100.69 22.124C100.51 23.564 100.222 24.986 99.8262 26.39C99.4302 27.794 98.9202 29.186 98.2962 30.566C97.6722 31.946 96.9162 33.32 96.0282 34.688L94.0482 33.482C93.9162 33.41 93.7962 33.32 93.6882 33.212C93.5922 33.116 93.5202 32.996 93.4722 32.852C93.4242 32.72 93.4062 32.558 93.4182 32.366C93.4422 32.186 93.5202 31.976 93.6522 31.736C94.7682 29.636 95.6202 27.392 96.2082 25.004C96.8082 22.616 97.1082 20.186 97.1082 17.714ZM130.699 2.972L130.699 4.898C130.699 5.474 130.639 5.942 130.519 6.302C130.399 6.65 130.279 6.944 130.159 7.184L120.295 27.488C120.091 27.908 119.803 28.268 119.431 28.568C119.059 28.856 118.561 29 117.937 29L114.715 29L124.777 9.11C125.005 8.702 125.227 8.33 125.443 7.994C125.671 7.646 125.923 7.316 126.199 7.004L113.743 7.004C113.467 7.004 113.227 6.902 113.023 6.698C112.819 6.494 112.717 6.254 112.717 5.978L112.717 2.972L130.699 2.972ZM142.366 25.814C143.098 25.814 143.74 25.712 144.292 25.508C144.844 25.292 145.306 24.998 145.678 24.626C146.062 24.254 146.35 23.81 146.542 23.294C146.734 22.778 146.83 22.22 146.83 21.62C146.83 20.192 146.434 19.112 145.642 18.38C144.85 17.648 143.758 17.282 142.366 17.282C140.974 17.282 139.882 17.648 139.09 18.38C138.298 19.112 137.902 20.192 137.902 21.62C137.902 22.22 137.998 22.778 138.19 23.294C138.382 23.81 138.664 24.254 139.036 24.626C139.42 24.998 139.888 25.292 140.44 25.508C140.992 25.712 141.634 25.814 142.366 25.814ZM142.366 6.032C141.706 6.032 141.136 6.134 140.656 6.338C140.176 6.542 139.774 6.818 139.45 7.166C139.138 7.502 138.904 7.892 138.748 8.336C138.604 8.78 138.532 9.248 138.532 9.74C138.532 10.256 138.592 10.76 138.712 11.252C138.844 11.732 139.06 12.164 139.36 12.548C139.66 12.92 140.056 13.22 140.548 13.448C141.04 13.676 141.646 13.79 142.366 13.79C143.086 13.79 143.692 13.676 144.184 13.448C144.676 13.22 145.072 12.92 145.372 12.548C145.672 12.164 145.882 11.732 146.002 11.252C146.134 10.76 146.2 10.256 146.2 9.74C146.2 9.248 146.122 8.78 145.966 8.336C145.81 7.892 145.576 7.502 145.264 7.166C144.952 6.818 144.556 6.542 144.076 6.338C143.596 6.134 143.026 6.032 142.366 6.032ZM146.758 15.428C148.342 15.944 149.512 16.736 150.268 17.804C151.024 18.86 151.402 20.156 151.402 21.692C151.402 22.844 151.18 23.888 150.736 24.824C150.304 25.76 149.692 26.558 148.9 27.218C148.108 27.878 147.154 28.388 146.038 28.748C144.934 29.108 143.71 29.288 142.366 29.288C141.022 29.288 139.792 29.108 138.676 28.748C137.572 28.388 136.624 27.878 135.832 27.218C135.04 26.558 134.422 25.76 133.978 24.824C133.546 23.888 133.33 22.844 133.33 21.692C133.33 20.156 133.708 18.86 134.464 17.804C135.22 16.736 136.39 15.944 137.974 15.428C136.714 14.9 135.766 14.15 135.13 13.178C134.506 12.206 134.194 11.036 134.194 9.668C134.194 8.684 134.392 7.766 134.788 6.914C135.196 6.062 135.76 5.324 136.48 4.7C137.2 4.064 138.058 3.572 139.054 3.224C140.062 2.864 141.166 2.684 142.366 2.684C143.566 2.684 144.664 2.864 145.66 3.224C146.668 3.572 147.532 4.064 148.252 4.7C148.972 5.324 149.53 6.062 149.926 6.914C150.334 7.766 150.538 8.684 150.538 9.668C150.538 11.036 150.22 12.206 149.584 13.178C148.96 14.15 148.018 14.9 146.758 15.428ZM172.789 15.986C172.789 18.254 172.543 20.228 172.051 21.908C171.571 23.576 170.899 24.956 170.035 26.048C169.183 27.14 168.169 27.956 166.993 28.496C165.829 29.024 164.569 29.288 163.213 29.288C161.857 29.288 160.597 29.024 159.433 28.496C158.281 27.956 157.279 27.14 156.427 26.048C155.575 24.956 154.909 23.576 154.429 21.908C153.949 20.228 153.709 18.254 153.709 15.986C153.709 13.706 153.949 11.732 154.429 10.064C154.909 8.396 155.575 7.016 156.427 5.924C157.279 4.832 158.281 4.022 159.433 3.494C160.597 2.954 161.857 2.684 163.213 2.684C164.569 2.684 165.829 2.954 166.993 3.494C168.169 4.022 169.183 4.832 170.035 5.924C170.899 7.016 171.571 8.396 172.051 10.064C172.543 11.732 172.789 13.706 172.789 15.986ZM168.199 15.986C168.199 14.102 168.061 12.542 167.785 11.306C167.509 10.07 167.137 9.086 166.669 8.354C166.213 7.622 165.685 7.112 165.085 6.824C164.485 6.524 163.861 6.374 163.213 6.374C162.577 6.374 161.959 6.524 161.359 6.824C160.771 7.112 160.249 7.622 159.793 8.354C159.337 9.086 158.971 10.07 158.695 11.306C158.431 12.542 158.299 14.102 158.299 15.986C158.299 17.87 158.431 19.43 158.695 20.666C158.971 21.902 159.337 22.886 159.793 23.618C160.249 24.35 160.771 24.866 161.359 25.166C161.959 25.454 162.577 25.598 163.213 25.598C163.861 25.598 164.485 25.454 165.085 25.166C165.685 24.866 166.213 24.35 166.669 23.618C167.137 22.886 167.509 21.902 167.785 20.666C168.061 19.43 168.199 17.87 168.199 15.986ZM175.743 16.274L185.067 16.274L185.067 19.982L175.743 19.982L175.743 16.274ZM197.561 25.814C198.293 25.814 198.935 25.712 199.487 25.508C200.039 25.292 200.501 24.998 200.873 24.626C201.257 24.254 201.545 23.81 201.737 23.294C201.929 22.778 202.025 22.22 202.025 21.62C202.025 20.192 201.629 19.112 200.837 18.38C200.045 17.648 198.953 17.282 197.561 17.282C196.169 17.282 195.077 17.648 194.285 18.38C193.493 19.112 193.097 20.192 193.097 21.62C193.097 22.22 193.193 22.778 193.385 23.294C193.577 23.81 193.859 24.254 194.231 24.626C194.615 24.998 195.083 25.292 195.635 25.508C196.187 25.712 196.829 25.814 197.561 25.814ZM197.561 6.032C196.901 6.032 196.331 6.134 195.851 6.338C195.371 6.542 194.969 6.818 194.645 7.166C194.333 7.502 194.099 7.892 193.943 8.336C193.799 8.78 193.727 9.248 193.727 9.74C193.727 10.256 193.787 10.76 193.907 11.252C194.039 11.732 194.255 12.164 194.555 12.548C194.855 12.92 195.251 13.22 195.743 13.448C196.235 13.676 196.841 13.79 197.561 13.79C198.281 13.79 198.887 13.676 199.379 13.448C199.871 13.22 200.267 12.92 200.567 12.548C200.867 12.164 201.077 11.732 201.197 11.252C201.329 10.76 201.395 10.256 201.395 9.74C201.395 9.248 201.317 8.78 201.161 8.336C201.005 7.892 200.771 7.502 200.459 7.166C200.147 6.818 199.751 6.542 199.271 6.338C198.791 6.134 198.221 6.032 197.561 6.032ZM201.953 15.428C203.537 15.944 204.707 16.736 205.463 17.804C206.219 18.86 206.597 20.156 206.597 21.692C206.597 22.844 206.375 23.888 205.931 24.824C205.499 25.76 204.887 26.558 204.095 27.218C203.303 27.878 202.349 28.388 201.233 28.748C200.129 29.108 198.905 29.288 197.561 29.288C196.217 29.288 194.987 29.108 193.871 28.748C192.767 28.388 191.819 27.878 191.027 27.218C190.235 26.558 189.617 25.76 189.173 24.824C188.741 23.888 188.525 22.844 188.525 21.692C188.525 20.156 188.903 18.86 189.659 17.804C190.415 16.736 191.585 15.944 193.169 15.428C191.909 14.9 190.961 14.15 190.325 13.178C189.701 12.206 189.389 11.036 189.389 9.668C189.389 8.684 189.587 7.766 189.983 6.91399C190.391 6.06199 190.955 5.324 191.675 4.7C192.395 4.064 193.253 3.572 194.249 3.224C195.257 2.864 196.361 2.684 197.561 2.684C198.761 2.684 199.859 2.864 200.855 3.224C201.863 3.572 202.727 4.064 203.447 4.7C204.167 5.324 204.725 6.06199 205.121 6.91399C205.529 7.766 205.733 8.684 205.733 9.668C205.733 11.036 205.415 12.206 204.779 13.178C204.155 14.15 203.213 14.9 201.953 15.428ZM213.944 10.784C213.944 12.236 214.316 13.346 215.06 14.114C215.816 14.87 216.884 15.248 218.264 15.248C218.984 15.248 219.626 15.134 220.19 14.906C220.754 14.678 221.228 14.366 221.612 13.97C221.996 13.574 222.284 13.106 222.476 12.566C222.68 12.026 222.782 11.444 222.782 10.82C222.782 10.112 222.674 9.482 222.458 8.93C222.242 8.366 221.936 7.892 221.54 7.508C221.144 7.124 220.67 6.83 220.118 6.626C219.578 6.42199 218.984 6.31999 218.336 6.31999C217.664 6.31999 217.058 6.43399 216.518 6.662C215.978 6.878 215.516 7.184 215.132 7.58C214.748 7.976 214.454 8.45 214.25 9.002C214.046 9.54199 213.944 10.136 213.944 10.784ZM219.848 18.902C220.052 18.65 220.244 18.404 220.424 18.164C220.604 17.924 220.778 17.684 220.946 17.444C220.346 17.828 219.686 18.122 218.966 18.326C218.246 18.518 217.49 18.614 216.698 18.614C215.798 18.614 214.916 18.458 214.052 18.146C213.188 17.834 212.42 17.366 211.748 16.742C211.076 16.106 210.53 15.326 210.11 14.402C209.702 13.466 209.498 12.374 209.498 11.126C209.498 9.962 209.714 8.87 210.146 7.85C210.578 6.82999 211.184 5.93599 211.964 5.16799C212.744 4.4 213.68 3.794 214.772 3.35C215.864 2.906 217.07 2.684 218.39 2.684C219.722 2.684 220.916 2.894 221.972 3.314C223.04 3.734 223.946 4.32199 224.69 5.07799C225.446 5.834 226.022 6.74 226.418 7.79599C226.826 8.852 227.03 10.01 227.03 11.27C227.03 12.074 226.958 12.836 226.814 13.556C226.682 14.276 226.49 14.972 226.238 15.644C225.986 16.304 225.68 16.952 225.32 17.588C224.96 18.224 224.558 18.854 224.114 19.478L218.156 27.974C217.952 28.262 217.646 28.508 217.238 28.712C216.83 28.904 216.368 29 215.852 29L211.766 29L219.848 18.902ZM230.939 16.274L240.263 16.274L240.263 19.982L230.939 19.982L230.939 16.274ZM259.974 24.86C260.454 24.86 260.832 24.998 261.108 25.274C261.396 25.538 261.54 25.892 261.54 26.336L261.54 29L243.684 29L243.684 27.524C243.684 27.224 243.744 26.912 243.864 26.588C243.996 26.252 244.2 25.952 244.476 25.688L252.378 17.768C253.038 17.096 253.626 16.454 254.142 15.842C254.67 15.23 255.108 14.624 255.456 14.024C255.804 13.424 256.068 12.818 256.248 12.206C256.44 11.582 256.536 10.928 256.536 10.244C256.536 9.61999 256.446 9.07399 256.266 8.606C256.086 8.12599 255.828 7.72399 255.492 7.4C255.168 7.07599 254.772 6.83599 254.304 6.68C253.848 6.512 253.332 6.42799 252.756 6.42799C252.228 6.42799 251.736 6.50599 251.28 6.66199C250.836 6.80599 250.44 7.01599 250.092 7.29199C249.744 7.556 249.45 7.868 249.21 8.228C248.97 8.58799 248.79 8.98399 248.67 9.41599C248.466 9.96799 248.202 10.334 247.878 10.514C247.554 10.694 247.086 10.736 246.474 10.64L244.134 10.226C244.314 8.97799 244.662 7.88599 245.178 6.95C245.694 6.002 246.336 5.216 247.104 4.59199C247.884 3.956 248.772 3.482 249.768 3.17C250.776 2.846 251.856 2.684 253.008 2.684C254.208 2.684 255.306 2.864 256.302 3.224C257.298 3.57199 258.15 4.06999 258.858 4.71799C259.566 5.36599 260.118 6.14599 260.514 7.05799C260.91 7.97 261.108 8.984 261.108 10.1C261.108 11.06 260.964 11.948 260.676 12.764C260.4 13.58 260.022 14.36 259.542 15.104C259.074 15.848 258.522 16.568 257.886 17.264C257.25 17.96 256.584 18.668 255.888 19.388L250.02 25.382C250.584 25.214 251.142 25.088 251.694 25.004C252.258 24.908 252.792 24.86 253.296 24.86L259.974 24.86ZM265.143 10.226C265.323 8.97799 265.671 7.88599 266.187 6.95C266.703 6.002 267.345 5.216 268.113 4.59199C268.893 3.956 269.781 3.482 270.777 3.16999C271.785 2.846 272.865 2.684 274.017 2.684C275.217 2.684 276.297 2.858 277.257 3.20599C278.229 3.54199 279.057 4.01599 279.741 4.62799C280.425 5.22799 280.947 5.936 281.307 6.75199C281.679 7.56799 281.865 8.44999 281.865 9.39799C281.865 10.226 281.769 10.958 281.577 11.594C281.397 12.218 281.133 12.764 280.785 13.232C280.437 13.7 280.005 14.096 279.489 14.42C278.973 14.744 278.391 15.014 277.743 15.23C279.303 15.722 280.467 16.472 281.235 17.48C282.003 18.488 282.387 19.754 282.387 21.278C282.387 22.574 282.147 23.72 281.667 24.716C281.187 25.712 280.539 26.552 279.723 27.236C278.907 27.908 277.959 28.418 276.879 28.766C275.811 29.114 274.677 29.288 273.477 29.288C272.169 29.288 271.029 29.138 270.057 28.838C269.085 28.538 268.239 28.094 267.519 27.506C266.799 26.918 266.187 26.198 265.683 25.346C265.179 24.494 264.747 23.51 264.387 22.394L266.349 21.584C266.865 21.368 267.345 21.314 267.789 21.422C268.245 21.518 268.575 21.758 268.779 22.142C268.995 22.562 269.229 22.976 269.481 23.384C269.745 23.792 270.057 24.158 270.417 24.482C270.777 24.794 271.197 25.052 271.677 25.256C272.169 25.448 272.751 25.544 273.423 25.544C274.179 25.544 274.839 25.424 275.403 25.184C275.967 24.932 276.435 24.608 276.807 24.212C277.191 23.816 277.473 23.378 277.653 22.898C277.845 22.406 277.941 21.914 277.941 21.422C277.941 20.798 277.875 20.234 277.743 19.73C277.611 19.214 277.335 18.776 276.915 18.416C276.495 18.056 275.889 17.774 275.097 17.57C274.317 17.366 273.267 17.264 271.947 17.264L271.947 14.096C273.039 14.084 273.945 13.982 274.665 13.79C275.385 13.598 275.955 13.334 276.375 12.998C276.807 12.65 277.107 12.236 277.275 11.756C277.443 11.276 277.527 10.748 277.527 10.172C277.527 8.948 277.185 8.01799 276.501 7.38199C275.817 6.74599 274.905 6.42799 273.765 6.42799C273.237 6.42799 272.751 6.50599 272.307 6.66199C271.863 6.80599 271.461 7.01599 271.101 7.29199C270.753 7.55599 270.459 7.868 270.219 8.22799C269.979 8.58799 269.799 8.98399 269.679 9.41599C269.475 9.96799 269.205 10.334 268.869 10.514C268.545 10.694 268.083 10.736 267.483 10.64L265.143 10.226Z" fill="#141414"/>
</svg>
