<svg width="379" height="335" viewBox="0 0 379 335" fill="none" xmlns="http://www.w3.org/2000/svg">
<path d="M306.117 42.9582C305.994 42.8899 305.872 42.8216 305.749 42.7533C305.38 44.1192 304.683 46.4276 305.516 47.8072C305.994 46.1135 305.639 44.6519 306.117 42.9582Z" fill="#ED008E"/>
<path d="M302.949 57.8877C303.317 58.3385 303.276 57.355 303.645 57.7921C303.768 58.2975 302.894 58.4887 303.604 58.7346C305.325 55.9618 303.167 53.3802 304.178 50.4707C303.973 50.3615 303.768 50.2385 303.563 50.1293C303.386 50.4707 303.222 50.2659 303.29 50.621C303.836 52.8474 302.675 55.5656 302.949 57.8877Z" fill="#ED008E"/>
<path d="M330.321 103.059C331.031 102.144 330.458 100.614 328.86 100.464C325.486 100.122 328.614 105.272 330.321 103.059Z" fill="#ED008E"/>
<path d="M223.22 54.0495C225.323 54.3364 227.495 51.4406 227.126 49.1049C225.992 46.4687 222.974 47.3292 221.826 48.7224C220.064 50.8942 220.925 53.7354 223.22 54.0495ZM225.801 50.3206C226.006 50.6074 225.419 51.1265 225.296 51.4953C224.995 51.0172 225.555 50.826 225.801 50.3206ZM223.657 51.2221C223.889 51.3313 223.834 51.5226 224.08 51.6182C223.848 52.2192 223.179 51.6865 223.657 51.2221Z" fill="#ED008E"/>
<path d="M304.164 99.0979C304.342 98.7701 304.642 98.415 304.328 98.2237C304.26 98.5242 303.645 98.975 304.164 99.0979Z" fill="#ED008E"/>
<path d="M263.938 102.021C266.943 101.065 270.59 101.092 272.352 96.844C272.147 96.2157 272.283 95.4781 272.201 94.8088C271.355 93.9346 270.248 92.5823 268.773 92.2408C265.782 92.0223 261.807 91.913 259.963 94.9317C258.228 97.8001 260.195 101.242 263.938 102.021ZM268.431 95.4507C268.951 95.7239 268.076 96.3796 267.981 96.8167C267.462 96.5571 268.336 95.8878 268.431 95.4507ZM265.481 96.3932C265.604 96.4615 265.727 96.5298 265.85 96.5981C265.754 96.885 265.577 96.8713 265.454 97.0215C265.249 96.8713 265.29 96.6527 265.481 96.3932Z" fill="#ED008E"/>
<path d="M349.499 151.262C349.636 151.139 349.8 151.098 350.004 151.221C350.045 151.481 349.977 151.617 349.731 151.713C350.564 153.024 352.914 152.997 352.149 151.44C351.93 151.781 351.78 152.341 351.411 152.164C351.603 151.836 351.753 151.426 352.026 151.372C351.862 150.484 350.25 150.265 349.308 149.855C349.089 150.415 349.485 150.784 349.499 151.262Z" fill="#ED008E"/>
<path d="M257.654 128.001C257.845 127.7 257.873 127.454 257.75 127.25C257.449 127.318 257.176 127.837 257.654 128.001Z" fill="#ED008E"/>
<path d="M378.607 224.326C378.497 224.462 378.429 224.326 378.361 224.189C378.047 224.421 377.637 224.326 377.377 224.777C377.924 224.804 377.842 224.968 377.856 225.364C378.211 224.954 378.293 225.596 378.607 225.459C378.716 225.05 378.812 224.64 378.607 224.326Z" fill="#ED008E"/>
<path d="M317.468 198.004C317.263 197.827 317.441 197.526 316.99 197.417C316.649 197.704 317.222 198.237 317.468 198.004Z" fill="#ED008E"/>
<path d="M269.196 242.779C268.636 245.539 267.038 249.431 268.199 251.781C268.5 249.158 271.573 245.771 269.101 243.531C269.292 243.285 269.715 242.465 269.196 242.779Z" fill="#ED008E"/>
<path d="M114.082 168.637C113.877 168.487 113.918 168.268 114.109 168.009C114.505 167.899 114.45 168.159 114.532 168.405C114.587 168.145 115.092 167.763 114.819 167.599C114.724 167.981 114.437 167.694 114.246 167.763C114.683 167.572 115.106 167.367 115.489 166.998C114.287 166.206 113.016 168.282 112.074 169.62C112.975 170.126 113.289 168.541 114.082 168.637Z" fill="#ED008E"/>
<path d="M267.134 255.715C267.421 255.988 267.516 255.592 267.707 255.551C267.503 255.387 267.585 254.622 267.106 254.881C267.229 255.168 267.53 255.605 267.134 255.715Z" fill="#ED008E"/>
<path d="M101.092 186.326C102.95 185.779 104.029 183.73 104.725 181.873C103.646 180.903 102.977 182.078 101.912 182.556C101.529 182.87 102.253 182.87 101.884 183.184C99.4256 184.331 96.5299 187.118 95.5601 190.984C96.926 190.15 99.7535 188.334 101.092 186.326Z" fill="#ED008E"/>
<path d="M108.741 195.805C108.277 196.529 108.29 197.103 108.522 197.636C109.479 197.841 110.599 197.485 110.858 196.352C110.107 195.669 109.451 195.478 108.741 195.805Z" fill="#ED008E"/>
<path d="M229.694 272.188C229.571 272.488 229.407 272.652 229.229 272.734C229.817 273.431 229.489 274.401 230.008 275.111C230.117 274.073 230.063 273.089 229.694 272.188Z" fill="#ED008E"/>
<path d="M104.466 204.602C104.753 204.902 104.889 204.602 105.149 204.82C105.231 204.615 105.449 204.383 105.299 204.26C105.094 204.588 104.63 204.083 104.466 204.602Z" fill="#ED008E"/>
<path d="M117.538 220.037C115.38 221.853 113.14 224.312 110.927 226.061C111.268 226.457 111.05 226.989 111.309 227.413C111.979 227.194 112.689 227.14 113.413 227.126C114.191 225.951 115.079 225.186 116.063 224.722C116.513 223.575 116.91 222.878 117.907 222.017C117.811 221.526 117.702 221.034 118.166 220.378C117.948 220.269 117.743 220.146 117.538 220.037Z" fill="#ED008E"/>
<path d="M231.838 284.263C231.196 285.41 231.333 286.544 232.467 286.885C234.393 286.243 232.822 284.44 231.838 284.263Z" fill="#ED008E"/>
<path d="M148.148 244.979C147.465 246.003 145.99 246.167 145.799 247.711C146.864 247.478 148.012 245.976 148.148 244.979Z" fill="#ED008E"/>
<path d="M168.377 256.315C167.831 256.657 167.476 257.19 167.926 257.681C168.254 257.477 168.459 256.862 168.801 256.712C168.555 256.602 168.609 256.411 168.377 256.315Z" fill="#ED008E"/>
<path d="M93.9208 219.927C92.7461 220.201 91.3256 219.832 90.6699 221.676C92.8417 223.397 95.1638 221.143 96.4068 219.545C96.598 219.326 97.4313 219.531 97.1854 219.012C96.2839 218.739 95.2321 219.627 93.9208 219.927Z" fill="#ED008E"/>
<path d="M215.023 285.041C214.545 286.011 214.614 286.817 214.709 287.623C215.215 286.899 215.133 285.888 215.023 285.041Z" fill="#ED008E"/>
<path d="M166.028 260.509C165.81 260.345 165.673 260.495 165.468 260.359C164.99 262.763 161.698 263.828 162.012 266.533C162.805 265.973 163.774 264.265 164.403 264.306C165.386 262.722 166.055 261.766 166.684 260.236C166.506 259.935 166.615 259.567 166.411 259.28C165.823 259.594 166.411 259.949 166.028 260.509Z" fill="#ED008E"/>
<path d="M145.348 247.943C144.993 248.516 143.9 248.94 144.447 249.541C144.624 248.762 145.69 248.68 145.348 247.943Z" fill="#ED008E"/>
<path d="M215.201 287.91C215.078 287.841 214.955 287.773 214.832 287.705C215.201 289.713 213.535 292.54 215.078 294.493C216.881 292.212 214.9 290.109 215.201 287.91Z" fill="#ED008E"/>
<path d="M126.648 239.078C126.43 239.474 125.856 239.542 125.965 239.993C126.539 240.321 126.908 239.87 127.318 239.61C127.14 239.419 126.607 239.692 126.703 239.269C126.73 239.187 126.758 239.119 126.648 239.078Z" fill="#ED008E"/>
<path d="M145.28 249.513C145.034 249.868 144.651 249.746 144.474 250.36C142.944 250.838 140.403 251.371 139.27 253.283C137.453 256.329 141.619 254.854 142.862 253.515C143.654 252.669 144.064 251.508 144.624 250.934C144.87 250.688 145.935 250.51 145.758 249.786C145.485 250.114 145.567 249.527 145.28 249.513ZM142.37 252.109C142.275 251.712 142.848 251.658 143.108 251.385C143.613 251.699 142.698 252.436 142.37 252.109Z" fill="#ED008E"/>
<path d="M251.111 326.838C250.715 326.797 250.961 325.991 250.619 326.565C249.431 328.314 248.98 329.871 250.1 330.977C252.436 330.171 251.507 326.661 251.589 324.844C250.865 325.65 251.098 326.21 251.111 326.838Z" fill="#ED008E"/>
<path d="M95.4507 240.075C93.3062 241.181 91.9812 242.725 89.4133 243.339C88.6074 245.142 87.4464 245.689 86.4629 246.877C90.2192 247.355 93.1149 241.946 95.6419 240.348C95.6556 240.225 95.6009 240.13 95.4507 240.075Z" fill="#ED008E"/>
<path d="M83.9771 249.541C84.4005 248.926 85.6708 248.735 85.384 247.902C85.0015 248.503 83.9771 248.789 83.9771 249.541Z" fill="#ED008E"/>
<path d="M78.8135 252.969C80.9853 253.994 81.9551 251.125 83.321 250.142C83.1571 250.019 83.2254 249.827 83.0888 249.691C81.8458 251.234 79.6194 251.084 78.8135 252.969Z" fill="#ED008E"/>
<path d="M1.06526 232.576C0.122771 232.549 -0.396281 233.887 0.341319 234.447C1.74822 235.513 2.93658 232.631 1.06526 232.576Z" fill="#ED008E"/>
<path d="M125.569 312.728C125.815 312.865 126.061 313.002 126.307 313.138C126.853 312.564 127.768 311.54 127.878 310.611C128.998 310.242 130.35 307.415 130.132 305.721C128.479 306.841 126.744 310.201 125.569 312.728Z" fill="#ED008E"/>
<path d="M306.541 17.9072C306.254 19.4917 305.407 22.1006 306.391 23.6578C307.279 21.9777 306.882 19.2459 306.541 17.9072Z" fill="#ED008E"/>
<path d="M122.974 185.465C122.988 185.438 122.988 185.411 123.001 185.383C122.96 185.397 122.933 185.411 122.892 185.424C122.919 185.438 122.947 185.451 122.974 185.465Z" fill="#ED008E"/>
<path d="M359.47 165.605C359.784 165.14 359.989 164.703 359.839 164.362C356.192 162.627 354.484 160.605 351.438 159.977C350.155 158.884 348.843 158.27 347.027 156.849C346.248 155.073 345.415 152.847 346.876 150.757C346.562 151.358 346.057 151.276 345.469 150.948C345.975 150.06 346.494 149.186 347.368 149.582C347.559 149.869 346.917 150.402 347.259 150.648C347.614 149.692 348.392 150.238 348.83 149.582C348.256 149.118 347.6 148.681 346.808 148.285C345.784 146.181 346.029 143.723 345.415 141.51C345.538 141.059 346.166 140.526 346.043 140.403C345.838 140.526 345.647 140.69 345.346 140.499C345.374 139.939 346.002 138.764 346.562 138.915C347.245 139.297 347.19 138.983 347.04 139.502C347.901 139.229 349.54 138.559 350.988 139.119C351.425 138.669 351.261 138.614 351.425 138.068C350.073 136.879 348.502 137.699 347.136 136.47C346.958 134.817 348.078 133.027 346.589 131.948C345.142 130.897 343.284 132.235 341.59 131.907C341.344 131.853 341.03 131.716 340.784 131.62C337.247 130.241 335.143 128.288 333.49 125.255C330.349 122.879 328.983 120.01 326.702 117.401C326.442 116.131 326.988 114.615 326.51 113.399C325.691 113.18 325.978 112.648 325.486 112.334C324.502 112.484 323.683 111.828 322.576 112.32C321.771 112.675 321.566 113.604 320.692 113.372C320.118 113.221 319.981 112.73 319.353 112.293C319.449 110.053 318.656 108.058 319.162 105.695C318.465 105.572 318.165 105.19 317.755 104.739C317.181 104.78 316.621 105.313 316.689 105.764C316.717 105.518 317.236 105.367 317.072 105.654C316.498 106.16 317.154 105.736 317.044 106.283C316.703 106.31 316.402 106.46 316.143 106.747C316.006 107.526 315.31 108.058 314.627 108.004C313.247 107.908 313.275 106.474 311.84 105.463C311.13 104.971 310.024 104.835 309.6 104.534C307.906 103.346 306.773 101.42 305.42 100.409C305.393 100.983 305.202 100.778 304.724 100.505C304.328 102.267 305.926 103.879 303.891 106.037C302.142 106.228 300.626 107.239 298.782 107.061C297.457 105.627 295.408 105.354 294.316 103.742C294.029 103.728 293.783 103.838 293.496 103.769C292.075 106.46 290.04 106.993 287.896 107.116C286.899 108.864 285.369 108.714 284.167 109.725C282.418 109.042 280.834 108.932 279.482 109.697C276.955 109.479 276.217 105.818 273.991 106.774C274.018 107.676 274.4 108.891 274.236 109.506C274.373 109.383 274.537 109.342 274.742 109.465C274.633 110.517 274.332 110.845 274.059 111.842C273.28 114.656 271.108 118.753 268.254 119.3C266.997 119.532 265.863 118.549 265.139 119.655C264.689 120.324 265.194 121.294 264.852 121.608C265.03 121.403 265.194 121.103 265.494 121.321C265.467 121.895 265.645 122.81 266.437 122.824C266.724 123.452 266.601 123.889 266.997 124.436C266.942 124.354 268.185 124.518 267.598 125.091C267.803 124.968 268.008 124.805 268.295 124.996C268.65 125.884 268.527 127.14 269.565 127.646C268.581 126.553 269.961 127.045 270.262 127.55C270.576 128.083 270.248 128.971 270.576 129.025C270.439 129.271 270.152 128.998 270.057 129.38C270.248 129.544 270.48 129.38 270.425 129.585C270.617 132.358 268.09 133.178 267.352 135.65C267.079 135.541 266.929 135.855 266.656 135.746C265.522 134.065 263.5 133.301 261.766 133.492C261.26 132.904 261.042 132.249 260.523 131.661C258.597 132.904 256.425 129.476 257.531 128.042C256.998 127.728 256.643 128.001 256.356 127.536C256.165 127.127 255.974 126.58 256.042 126.061C256.302 124.299 259.402 120.324 260.686 118.931C261.806 117.715 263.022 117.046 263.009 115.366C262.612 114.574 262.64 113.672 261.342 113.14C260.741 113.221 260.167 113.399 259.553 113.426C258.146 115.448 256.78 117.606 255.182 118.917C252.532 119.327 250.879 123.343 248.024 123.015C247.669 122.223 247.123 121.472 246.932 120.625C248.516 118.412 245.525 117.483 246.03 115.585C243.899 114.219 241.072 114.041 241.031 111.487C241.495 111.596 241.113 111.951 241.318 112.129C242.328 111.61 242.602 111.828 243.872 111.61C244.118 111.022 243.421 110.694 243.749 110.08C244.2 110.531 244.309 110.531 244.691 110.121C244.213 109.656 243.353 109.042 242.82 109.397C242.834 109.943 243.353 109.124 243.312 109.67C242.315 110.339 242.165 109.219 241.523 108.823C240.594 108.249 239.392 108.427 238.463 107.922C236.619 106.938 236.796 104.056 234.898 103.004C234.57 101.256 235.157 99.3163 233.286 98.3739C231.565 97.4997 229.42 97.1582 227.699 95.8879C225.5 94.2761 224.544 92.3911 223.847 90.3286C224.285 88.4709 224.694 86.6269 224.612 84.9195C224.749 83.1711 225.951 81.2861 226.279 79.046C226.497 77.5981 226.06 76.1503 226.784 74.9482C227.044 74.5112 227.59 74.4429 227.973 73.9921C229.502 72.1481 229.584 68.8972 226.702 68.747C225.76 69.9763 224.558 71.4651 224.735 72.8311C227.576 74.6341 224.38 79.0187 224.681 81.8871C224.53 81.8189 224.585 81.6003 224.435 81.7506C223.246 85.179 221.962 92.4321 217.796 92.1452C214.655 89.3588 215.461 84.7419 209.451 82.4472C208.74 82.734 207.893 82.5974 207.21 82.9799C209.082 84.1819 205.817 86.7635 204.287 87.3372C203.536 86.4767 202.621 87.0367 201.719 86.7089C201.296 86.2444 201.678 85.5478 202.129 84.8239C202.307 83.9087 201.801 82.6247 202.84 81.8189C203.072 81.9964 202.566 82.3789 202.935 82.5155C203.318 81.6686 203.809 81.1769 204.561 81.6413C204.943 81.3271 204.219 81.3271 204.588 81.013C206.828 78.445 205.162 76.9698 206.145 74.757C206.828 74.4292 207.552 74.757 207.948 74.1424C208.904 72.6535 205.858 71.3695 205.039 70.0856C205.175 68.3918 204.602 66.9849 203.796 65.66C203.29 64.8267 202.635 64.4579 201.993 63.6794C201.487 63.0647 201.077 61.33 200.599 60.9475C199.684 60.2372 198.714 60.5787 198.373 61.1661C198.004 61.7944 199.015 63.0647 199.37 64.3214C199.78 65.7829 200.435 66.9849 199.93 68.5284C200.654 69.184 200.545 70.0856 201.665 70.6319C202.43 72.1208 201.419 74.1014 203.085 75.317C203.044 76.3961 203.522 77.3386 203.249 78.486C201.883 78.5953 200.367 79.1143 200.026 81.0539C199.916 81.6959 200.627 82.7067 200.34 83.6628C200.039 84.6736 198.933 86.0396 198.264 87.3645C197.526 88.8534 197.062 90.2876 196.256 90.9432C195.19 91.8038 191.284 90.6974 189.836 90.2603C187.691 89.6183 186.039 88.3343 183.607 88.0611C183.443 87.5148 182.829 87.105 182.665 86.5586C181.19 87.1596 178.69 86.2581 177.993 84.7556C177.707 85.0834 177.42 85.4249 177.01 85.3429C176.873 84.8239 176.559 84.3595 175.808 84.018C175.371 84.0453 175.029 84.4414 174.633 84.66C173.527 83.8677 171.669 83.1028 170.522 83.3214C169.921 83.0755 170.563 82.4745 170.003 82.2286C168.91 82.775 167.804 83.3077 166.806 84.1682C164.307 84.2639 162.094 85.3839 159.54 85.2746C159.157 84.8922 159.034 84.4551 158.584 84.0863C156.89 85.5751 155.005 86.3674 153.284 87.7606C153.12 87.665 152.956 87.5831 152.792 87.4874C151.358 90.2466 148.626 88.4436 146.632 89.2222C145.566 88.3753 145.566 87.2279 146.604 85.8073C146.345 85.3293 146.318 84.7829 145.594 84.4278C145.006 85.0834 145.758 85.6571 145.826 86.3401C145.225 87.1323 145.717 87.624 145.539 88.2933C145.225 89.0446 144.76 89.1948 144.446 89.9461C144.528 90.6427 144.405 91.4076 143.763 92.3228C143.955 94.7268 144.31 97.0899 144.241 99.5622C142.739 100.081 141.441 102.608 140.485 103.947C140.28 104.766 141.291 105.586 141.523 106.146C141.824 106.897 141.523 107.785 141.646 108.81C141.81 110.148 142.848 111.2 141.55 112.156C139.406 111.323 139.338 108.618 136.811 107.881C136.114 108.168 135.499 108.782 135.267 109.766C135.691 110.654 136.128 111.528 137.111 112.265C137.275 115.352 141.578 118.849 141.96 122.114C142.233 124.477 139.406 123.766 137.944 124.081C137.74 125.16 137.63 126.007 136.934 126.758C133.819 126.58 131.047 127.536 129.872 131.552C130.186 133.219 132.126 133.628 132.877 134.858C132.412 136.551 133.573 137.781 132.467 139.652C131.006 139.857 130.76 141.646 130.664 142.862C130.022 143.108 129.38 143.559 129.448 144.447C131.388 145.553 131.962 147.766 129.954 149.91C130.145 150.238 130.65 150.484 130.35 150.935C130.705 151.071 131.484 150.58 131.402 151.358C131.183 151.549 130.732 150.948 130.527 151.194C130.705 151.713 131.292 151.481 131.757 151.891C131.62 152.41 131.798 152.847 131.361 153.462C130.541 152.861 129.926 152.396 129.121 152.533C127.604 154.418 129.312 155.265 130.719 154.882C131.265 154.418 131.552 153.53 131.989 153.489C132.371 153.694 132.33 154.022 132.522 154.281C132.713 153.844 133.054 153.967 133.3 153.748C132.918 155.032 133.997 154.95 134.42 155.51C134.284 155.879 133.888 155.374 133.724 155.606C134.352 156.439 133.997 157.532 133.833 158.584C134.489 158.98 134.584 160.373 135.377 160.742C134.393 162.791 134.243 164.594 134.735 166.219C134.229 166.889 133.696 167.858 133.287 168.815C133.013 168.446 132.727 168.337 132.358 168.459C132.221 169.088 132.276 169.661 132.535 170.181C131.811 171.792 130.65 172.147 129.107 173.117C127.29 174.251 125.61 175.275 124.08 176.3C123.274 176.846 122.591 177.502 121.922 177.843C120.87 178.376 119.6 178.335 118.699 178.963C118.07 179.401 117.729 180.329 117.155 180.848C116.595 181.354 115.584 181.818 114.874 182.324C114.054 182.911 113.044 184.099 112.429 184.359C110.503 185.178 108.386 186.503 106.596 187.255C105.9 188.347 104.875 188.252 104.206 189.481C101.939 191.776 98.838 192.24 96.2291 193.606C94.7676 194.371 93.7568 195.983 91.9401 196.065C91.4757 195.996 91.7489 195.71 91.585 195.546C89.5088 197.362 84.7553 198.209 85.3017 202.403C86.5993 202.389 87.856 201.597 88.6755 200.723C89.1946 200.176 89.3585 199.357 89.9049 198.81C90.8747 197.868 92.3909 197.991 93.6475 197.335C95.1773 196.543 97.4584 195.245 98.6741 194.153C99.1795 193.879 99.7122 193.661 100.177 193.21C100.491 193.237 100.805 193.237 101.119 193.251C101.57 192.418 102.348 192.691 102.881 192.131C104.862 191.94 106.938 192.254 108.796 191.708C110.175 191.298 110.981 189.877 112.497 189.727C113.262 189.14 114.013 188.484 114.956 188.511C117.237 186.121 120.256 186.339 122.947 185.37C122.81 185.288 122.673 185.219 122.523 185.137C122.591 184.96 122.673 183.963 123.329 184.291C123.138 184.769 123.302 184.782 123.056 185.342C123.192 185.288 123.343 185.247 123.479 185.192C123.466 184.345 123.725 184.072 124.149 183.13C123.247 183.252 122.359 183.416 121.526 183.771C120.174 183.266 118.699 185.452 117.988 184.864C117.674 185.356 117.223 185.342 116.923 185.889C114.628 185.984 113.303 187.255 111.186 188.033C111.76 184.646 115.215 184.564 117.305 183.198C117.797 182.87 118.139 182.324 118.63 181.996C120.529 180.698 122.673 179.619 124.435 178.28C126.116 178.362 129.858 175.494 131.579 177.092C132.781 178.198 131.566 179.838 131.033 180.671C131.579 181.012 131.77 180.07 132.371 180.603C132.986 182.173 130.787 183.321 130.76 185.206C130.746 185.697 131.292 185.834 130.896 186.408C130.2 186.845 130.227 187.596 129.612 188.115C131.675 188.798 133.3 187.951 135.24 188.197C136.729 189.317 135.554 191.107 135.431 192.199C134.325 192.418 134.065 193.538 133.355 194.767C133.164 194.166 133.095 195.286 132.795 194.617C133.095 195.15 132.057 196.078 132.126 196.679C133.382 197.936 131.497 199.138 130.76 199.971C130.609 200.135 130.664 200.49 130.609 200.531C128.533 202.416 125.719 201.474 124.039 204.151C123.63 203.81 123.397 204.069 122.988 203.728C122.701 204.192 122.482 204.861 122.045 204.82C121.622 204.67 121.731 204.356 121.253 204.219C119.409 206.009 117.387 205.435 115.639 207.88C118.617 210.434 120.679 206.746 122.55 205.107C124.75 206.145 125.118 207.948 126.607 209.164C128.301 208.194 130.049 209.82 129.421 211.39C128.765 213.002 127.031 212.702 125.788 213.248C125.364 213.153 125.255 212.442 124.995 212.633C123.889 213.603 122.072 215.297 120.802 216.936C120.87 217.223 121.389 217.387 121.144 217.769C121.567 218.029 121.745 217.442 122.154 217.687C122.318 218.056 122.441 218.439 122.673 218.794C123.561 218.876 124.258 218.261 125.159 218.398C125.159 217.646 126.375 218.07 126.676 217.141C127.236 217.537 127.522 216.95 127.905 216.69C129.421 216.622 131.429 216.485 132.877 217.373C134.666 216.718 137.931 216.95 139.024 218.548C139.925 219.873 138.928 221.635 139.379 223.124C138.45 224.326 138.86 226.224 138.136 227.945C137.917 228.451 137.425 228.847 137.18 229.352C136.251 231.237 136.319 233.942 134.694 234.939C133.587 237.056 131.907 237.084 130.705 238.873C128.929 239.31 127.7 240.744 126.143 241.509C125.87 241.646 125.487 241.523 125.255 241.659C124.026 242.342 123.875 243.271 122.714 244.446C122.264 244.91 121.553 245.088 121.144 245.511C120.611 246.058 120.379 246.85 119.846 247.533C118.589 249.172 116.8 250.032 115.12 251.043C112.893 252.983 110.544 254.499 107.962 255.141C107.58 255.728 107.075 255.933 106.747 256.726C106.842 256.944 106.815 257.19 106.842 257.422C107.088 257.559 107.334 257.695 107.58 257.832C108.509 257.682 109.287 257.026 110.162 256.685C112.852 252.737 116.417 251.849 119.395 248.885C122.81 248.325 125.979 246.932 129.121 245.416C129.899 242.916 133.082 244.132 133.86 241.591C134.912 240.703 136.032 240.252 136.988 239.774C138.504 239.023 139.898 237.657 141.4 237.384C142.302 237.22 143.64 236.961 144.392 236.961C144.952 236.961 145.402 237.316 145.962 237.357C146.864 237.411 147.82 236.701 148.763 236.988C148.913 237.288 149.405 237.507 149.609 237.794C151.426 237.876 152.082 234.639 153.735 235.076C155.319 235.485 155.005 237.357 156.111 238.354C157.327 237.999 156.562 235.813 157.682 235.827C157.641 235.636 157.245 235.54 157.518 235.253C158.652 234.188 160.072 232.685 161.684 231.593C162.231 229.407 164.279 229.53 165.823 229.694C167.571 231.36 167.612 233.901 166.67 236.004C165.878 236.223 165.577 236.004 164.935 236.496C164.553 236.155 164.498 236.237 164.02 235.827C164.225 236.947 163.146 236.605 162.955 236.851C163.009 236.769 163.269 237.138 163.255 237.179C163.228 237.302 162.709 237.63 162.381 238.149C163.036 238.545 163.228 238.422 163.419 238.9C163.747 238.818 163.952 238.313 164.266 238.245C165.113 238.928 165.536 238.067 166.178 238.012C166.643 238.327 167.421 238.559 167.585 238.968C168.514 238.682 170.126 239.488 170.754 240.252C172.243 240.266 173.868 239.815 175.48 240.799C176.627 241.495 177.802 242.397 177.993 243.831C177.802 244.965 177.652 245.743 177.351 246.713C179.346 246.235 179.919 247.273 182.132 247.451C182.815 247.669 182.61 248.148 183.034 248.448C184.441 249.391 185.52 248.462 186.599 249.309C186.804 249.937 187.063 250.565 187.528 251.125C188.115 250.825 189.563 251.043 189.781 251.74C190.246 250.948 190.942 250.934 191.325 249.855C192.745 249.718 194.166 249.595 195.204 248.134C194.043 246.809 195.423 245.17 195.423 243.394C196.925 243.353 197.745 243.053 199.288 243.449C202.921 239.911 207.825 244.077 208.249 247.984C209.464 248.175 210.161 248.366 211.117 248.94C211.172 249.582 210.735 250.36 210.762 251.016C210.038 251.235 209.669 252.177 208.576 251.74C208.918 252.423 208.235 252.819 207.798 253.406C208.891 254.39 209.109 255.387 210.379 256.316C211.035 255.879 211.459 255.524 212.114 255.824C213.029 253.912 215.078 256.37 215.529 257.258C214.696 259.649 214.668 263.186 212.811 265.304C212.947 265.399 213.18 265.481 213.111 265.631C212.456 266.396 213.262 266.765 212.715 267.516C213.33 268.076 213.999 268.964 212.975 269.934C213.985 271.396 212.442 273.964 214.067 274.92C216.103 273.253 213.972 271.3 214.586 269.374C213.849 268.937 214.778 267.544 214.969 266.669C215.693 266.273 215.761 265.631 216.663 265.672C218.534 266.902 220.337 268.787 222.085 270.18C222.96 270.057 223.67 270.125 224.476 270.549C225.623 268.486 227.44 268.773 228.915 267.844C229.106 266.71 228.642 265.099 228.751 263.214C227.399 262.217 228 260.659 228.055 259.252C227.945 258.843 227.59 259.13 227.508 258.788C227.863 258.269 227.508 257.955 227.768 257.463C227.235 255.537 225.951 252.887 225.5 250.511C225.2 248.94 224.353 247.287 224.954 245.989C228.396 245.32 226.675 249.896 227.467 251.617C227.932 251.412 228.533 251.713 228.997 251.494C229.352 251.153 229.052 250.278 229.735 250.77C230.117 250.388 229.379 250.319 229.707 249.951C231.333 248.134 231.592 245.197 233.764 244.446C234.16 244.022 233.873 243.558 233.873 243.38C233.873 243.217 234.201 243.298 234.201 243.08C234.228 240.744 232.945 238.477 232.699 235.909C232.589 234.748 232.453 233.327 232.794 232.562C233.532 230.896 235.471 228.997 236.878 229.339C238.572 229.749 239.801 231.975 239.965 233.669C241.304 235.444 243.312 236.524 244.569 238.19C244.213 239.023 244.814 239.583 245.238 240.184C245.333 243.38 245.538 246.536 246.891 249.377C248.024 250.033 248.516 251.289 249.281 252.341C248.83 253.925 248.721 257.627 251.111 257.75C252.464 254.663 249.677 251.863 249.062 248.981C249.267 248.516 249.213 248.284 249.622 247.997C249.418 246.112 249.5 244.159 248.871 242.397C249.486 240.553 247.696 239.406 247.765 237.726C247.901 237.48 248.038 237.234 248.175 236.988C247.901 231.756 248.202 226.347 246.713 221.089C249.404 219.108 249.691 216.772 252.026 214.505C252.464 214.655 252.901 214.45 253.297 214.559C255.127 215.065 256.097 216.417 257.217 217.401C258.023 219.641 258.173 222.605 260.249 224.135C260.454 225.145 261.533 226.088 262.066 227.263C261.793 227.618 261.97 227.85 261.902 228.137C264.579 232.275 262.667 237.889 266.71 241.536C266.819 241.4 266.983 241.509 267.147 241.618C269.237 240.266 268.677 237.439 268.308 235.786C268.008 236.196 267.844 237.084 267.311 236.687C267.352 236.237 267.748 236.1 268.008 235.458C267.735 232.234 264.279 229.789 263.883 226.334C263.801 225.664 264.306 224.599 264.265 223.629C264.251 223.274 263.978 223.001 263.992 222.673C264.047 221.703 264.292 219.572 264.921 218.985C266.519 219.053 268.049 219.122 269.456 219.586C270.494 218.794 272.078 219.381 273.185 218.425C274.154 217.592 274.592 216.24 275.957 216.089C276.968 216.595 277.583 215.707 278.607 216.28C278.963 216.089 279.345 215.925 279.741 215.761C279.741 252.396 279.741 289.03 279.741 325.664C280.014 330.526 282.978 334.228 287.677 334.228C292.376 334.228 295.34 330.526 295.613 325.664C295.613 286.243 295.613 246.836 295.613 207.429C296.2 206.787 296.556 205.585 296.692 204.848C297.348 204.11 298.181 204.001 298.796 203.113C299.929 203.482 300.681 202.867 300.749 201.938C300.94 201.774 301.241 201.938 301.446 201.843C302.019 200.695 302.743 199.111 303.672 197.813C303.672 215.884 303.672 233.956 303.672 252.027C303.822 254.608 305.393 256.562 307.879 256.562C310.365 256.562 311.936 254.608 312.086 252.027C312.086 231.661 312.086 211.295 312.086 190.943C313.097 190.738 314.19 190.765 315.31 190.97C315.255 191.612 315.897 192.049 315.801 192.705C315.938 192.336 316.416 193.183 316.553 192.8C316.266 192.213 316.553 191.981 316.484 191.475C316.976 191.298 316.99 190.929 316.922 190.424C321.019 188.224 326.428 188.839 331.073 189.768C330.963 189.973 330.84 190.178 330.731 190.383C331.564 190.806 331.305 191.53 332.302 191.912C333.504 194.166 333.449 196.516 335.43 198.209C336.113 198.783 337.014 198.947 337.779 199.521C338.544 200.108 338.858 201.365 340.019 201.583C340.224 201.187 340.579 201.351 340.757 200.859C340.62 200.286 340.429 199.794 340.047 199.807C340.197 199.657 340.306 199.684 340.252 199.439C339.61 199.002 339.295 198.004 338.681 197.909C338.845 197.485 338.449 197.212 338.667 196.761C336.946 194.153 333.559 191.134 331.974 188.156C332.657 186.162 334.009 186.517 334.952 185.452C334.61 184.755 334.72 183.922 334.624 183.157C334.255 183.539 334.214 183.034 333.818 182.87C334.323 180.644 336.167 177.98 338.216 178.199C338.38 180.043 341.754 180.398 341.822 182.173C342.341 182.419 342.806 182.447 343.325 182.692C343.202 182.993 342.888 182.624 342.751 182.856C344.39 184.181 345.128 185.465 346.098 187.009C346.904 188.279 347.764 189.945 348.707 190.738C348.966 190.956 349.731 191.762 350.277 191.134C350.114 190.615 349.936 190.628 349.622 190.273C349.772 189.836 350.073 190.014 349.963 189.659C348.283 187.705 347.245 184.905 345.155 182.911C343.721 181.545 341.877 180.917 341.331 179.305C341.016 179.182 340.935 179.851 340.566 179.523C340.661 179.114 340.921 179.305 341.03 178.977C340.347 177.734 338.722 176.559 339.692 174.989C339.036 173.91 338.626 172.066 337.629 171.724C338.066 171.082 338.093 170.863 337.738 170.645C339.036 168.459 341.795 172.147 342.942 170.317C343.543 169.361 342.451 168.364 342.137 167.435C341.945 167.476 341.836 167.872 341.563 167.599C341.167 166.534 341.836 165.509 342.819 165.058C344.554 161.152 348.365 161.712 351.261 160.701C351.848 161.807 352.873 160.646 353.364 161.876C353.802 161.725 354.293 161.739 354.826 161.876C354.676 163.378 358.323 166.902 360.331 165.933C360.303 165.7 360.331 165.441 360.235 165.236C359.894 165.14 359.853 165.973 359.47 165.605ZM205.271 78.5406C205.735 78.8411 204.806 79.9202 204.561 80.0841C204.451 79.4558 204.957 79.2919 205.271 78.5406ZM204.383 73.1725C204.684 73.3638 204.765 73.6233 204.602 73.9375C204.192 73.7872 204.11 73.5277 204.383 73.1725ZM204.219 75.5083C204.52 75.6995 204.602 75.959 204.438 76.2732C203.973 76.1366 204.096 75.8224 204.219 75.5083ZM132.33 149.678C132.016 149.555 131.866 149.391 131.784 149.214C131.907 148.913 132.221 149.268 132.358 149.05C132.549 149.2 132.522 149.418 132.33 149.678ZM111.405 189.03C110.995 189.672 110.325 189.385 109.629 189.003C110.052 188.416 110.804 189.003 111.405 189.03ZM141.318 191.202C141.414 190.915 141.591 190.929 141.714 190.779C141.783 190.902 141.837 191.025 142.015 191.107C141.878 191.462 141.619 191.421 141.318 191.202ZM141.988 195.792C142.083 195.505 142.261 195.505 142.384 195.368C142.602 195.436 142.534 195.6 142.684 195.696C142.548 196.051 142.288 196.01 141.988 195.792ZM143.517 192.759C142.821 192.95 142.589 192.322 142.233 191.871C142.329 191.708 142.425 191.544 142.507 191.38C143.176 191.38 143.777 192.172 143.517 192.759ZM143.75 197.267C143.941 196.966 144.296 197.253 144.624 197.444C144.392 198.182 143.791 197.649 143.75 197.267ZM146.768 200.586C146.481 200.668 145.853 200.313 145.785 200.04C146.126 199.575 146.714 199.589 147.042 200.094C146.946 200.245 146.85 200.408 146.768 200.586ZM152.259 186.148C152.341 185.684 152.614 185.957 152.778 185.793C152.901 185.902 152.724 186.08 152.888 186.176C152.737 186.38 152.519 186.339 152.259 186.148ZM178.089 219.914C177.638 219.791 177.816 219.504 177.611 219.327C178.116 218.507 178.786 219.572 178.089 219.914ZM154.773 202.485C154.254 202.28 154.117 201.979 153.926 201.692C154.295 201.023 154.745 200.682 155.251 200.49C155.947 200.859 155.346 202.075 154.773 202.485ZM156.357 206.61C155.483 206.022 155.947 203.864 157.231 204.178C156.726 203.618 157.491 202.894 158.201 203.591C158.078 204.001 158.324 204.315 158.406 204.684C157.846 205.736 157.081 206.104 156.357 206.61ZM162.19 215.871C162.217 216.021 162.19 216.321 161.985 216.24C162.162 215.406 159.69 215.611 158.461 214.423C159.239 212.224 161.753 213.139 163.419 212.825C163.214 213.262 163.487 213.562 163.815 213.849C164.717 214.355 165.277 213.617 165.932 213.248C167.476 213.467 166.916 215.024 167.325 215.98C167.612 216.663 168.186 216.759 168.596 217.182C168.732 217.319 168.623 217.592 168.76 217.756C169.525 218.712 171.068 219.026 171.41 220.542C168.254 221.252 165.277 217.523 162.19 215.871ZM178.813 227.29C176.272 225.268 172.666 223.547 171.765 221.061C172.885 219.777 174.852 222.523 176.067 222.345C176.368 223.11 176.983 223.752 177.761 223.943C178.608 224.148 179.168 223.083 179.865 223.656C178.949 225.104 178.663 225.897 178.813 227.29ZM182.282 231.511C181.709 231.47 181.531 230.869 181.449 230.39C181.955 230.295 182.829 230.978 182.282 231.511ZM189.658 110.162C189.822 110.257 189.986 110.339 190.15 110.435C190.054 110.599 189.973 110.763 189.877 110.927C189.467 110.763 189.385 110.517 189.658 110.162ZM188.593 152.847C189.044 153.038 189.276 153.284 188.934 153.694C188.415 153.516 188.415 153.216 188.593 152.847ZM182.897 97.9368C182.569 97.7182 182.487 97.4314 182.747 97.0489C183.375 97.1855 183.361 97.7865 182.897 97.9368ZM185.123 206.186C185.123 206.05 185.137 205.899 185.014 205.804C185.233 204.861 186.407 205.312 186.203 205.981C185.97 206.5 185.602 206.528 185.123 206.186ZM186.271 224.981C185.615 224.681 186.148 223.697 186.804 224.312C186.653 224.626 186.489 224.927 186.271 224.981ZM188.456 234.966C188.115 234.816 188.142 234.57 188.361 234.27C188.525 234.365 188.689 234.461 188.852 234.543C188.757 234.83 188.579 234.83 188.456 234.966ZM197.84 226.607C196.051 226.894 193.852 225.104 192.595 223.82C192.65 223.315 192.431 222.892 192.021 222.523C192.199 220.269 191.011 216.854 190.314 214.273C189.686 211.937 188.593 209.656 188.169 207.388C188.006 206.541 188.238 205.585 188.047 204.725C187.282 201.474 183.689 199.316 183.279 195.887C183.99 195.081 185.11 195.573 186.257 195.778C187.227 195.942 188.443 195.805 189.344 196.051C191.748 196.693 193.1 198.592 194.548 199.78C197.772 205.189 198.632 211.336 198.646 217.646C198.646 220.501 199.302 223.779 197.84 226.607ZM201.405 82.8433C201.528 82.9116 201.651 82.9799 201.774 83.0482C201.678 83.2121 201.597 83.376 201.501 83.5399C201.146 83.4033 201.187 83.1575 201.405 82.8433ZM212.579 252.382C211.691 252.013 211.513 251.439 211.513 250.811C212.21 250.825 213.18 251.658 212.579 252.382ZM212.838 252.204C213.275 251.631 214.259 251.972 214.668 252.423C214.341 253.229 213.221 252.778 212.838 252.204ZM212.538 250.415C210.844 247.328 216.185 245.593 216.922 248.653C216.103 250.633 214.505 251.398 212.538 250.415ZM220.023 252.983C219.517 252.915 218.753 252.122 218.507 251.644C219.668 249.554 217.906 248.284 218.179 246.44C218.261 246.481 218.343 246.536 218.425 246.577C220.009 247.997 219.203 250.101 220.46 251.617C220.269 252.081 220.433 252.464 220.023 252.983ZM222.372 246.194C220.351 245.962 219.545 243.968 219.763 242.465C219.476 242.301 219.285 242.479 218.957 242.178C217.059 239.351 216.553 236.141 216.034 232.917C215.734 232.849 215.652 233.518 215.269 233.136C215.543 232.74 215.734 232.084 216.089 231.975C216.212 232.18 216.185 232.439 215.993 232.726C216.403 232.685 216.663 232.153 217.045 232.016C221.512 232.303 219.504 237.37 221.935 239.788C221.58 240.198 222.249 240.321 222.085 240.676C223.806 242.069 224.421 244.965 222.372 246.194ZM223.533 247.014C222.659 246.645 223.629 246.167 223.588 245.743C223.711 245.812 223.834 245.88 223.957 245.948C224.052 246.235 223.725 246.645 223.533 247.014ZM224.285 127.932C223.943 127.782 223.779 127.591 223.998 127.29C224.093 127.372 224.148 127.304 224.189 127.236C224.53 127.386 224.503 127.632 224.285 127.932ZM228.505 118.958C228.71 118.631 228.437 118.59 228.778 118.467C229.311 118.631 228.929 119.327 228.505 118.958ZM234.119 128.916C233.778 128.766 233.614 128.574 233.832 128.274C234.037 128.247 234.256 128.301 234.515 128.493C234.406 128.711 234.215 128.656 234.119 128.916ZM238.75 127.29C238.272 127.413 237.425 126.963 237.083 126.512C237.63 124.805 239.132 126.457 238.75 127.29ZM264.32 230.636C264.757 231.032 264.661 231.579 265.016 232.002C264.552 232.33 264.047 231.183 264.32 230.636ZM263.514 139.229C263.719 139.201 263.937 139.256 264.197 139.447C264.101 139.611 264.006 139.775 263.924 139.939C263.555 139.775 263.241 139.584 263.514 139.229ZM242.547 124.559C242.97 124.859 243.08 125.242 242.875 125.72C242.738 125.72 242.588 125.706 242.492 125.829C241.919 125.487 241.905 124.641 242.547 124.559ZM262.899 227.399C262.735 227.44 262.544 227.372 262.339 227.249C262.435 227.085 262.53 226.921 262.612 226.757C262.954 226.907 263.118 227.099 262.899 227.399ZM262.722 142.671C261.533 141.264 258.159 140.595 257.203 138.928C253.461 137.221 250.319 133.833 245.648 131.484C244.159 130.733 239.815 128.889 240.143 127.427C240.594 125.365 243.052 127.782 244.336 128.643C245.224 129.244 246.276 129.64 247.369 130.173C251.412 132.208 253.925 135.923 257.845 137.508C258.487 137.794 257.709 137.917 257.941 138.204C261.219 140.035 265.249 140.909 267.803 142.589C266.519 144.119 264.32 142.343 262.722 142.671ZM269.182 151.973C269.06 151.563 269.415 151.577 269.647 151.426C270.016 151.631 269.565 152.342 269.182 151.973ZM278.935 173.322C278.498 173.24 278.061 173.158 277.624 173.076C277.651 172.858 277.597 172.667 277.46 172.503C277.924 172.052 278.539 172.175 279.236 172.516C279.058 172.803 279.236 172.994 278.935 173.322ZM303.016 117.92C303.481 117.483 303.74 117.729 303.699 117.005C304.041 117.155 303.522 117.538 303.986 117.647C303.768 117.715 303.604 118.002 303.454 118.316C303.153 118.221 303.167 118.057 303.016 117.92ZM332.602 167.244C332.288 167.353 332.07 167.804 331.592 167.326C331.646 166.82 332.083 166.042 332.493 165.728C332.889 165.618 332.698 165.919 332.917 166.124C333.722 164.976 335.553 165.987 335.02 167.298C334.965 167.49 335.266 167.572 335.443 167.695C334.651 168.801 332.452 169.088 332.602 167.244ZM347.45 159.84C347.395 159.54 347.955 159.171 348.147 158.611C348.597 158.898 348.01 160.168 347.45 159.84Z" fill="#0AA7F7"/>
<path d="M270.289 128.588C269.907 128.52 269.306 127.769 269.551 128.178C269.784 128.37 269.866 129.121 270.084 128.957C269.907 128.82 270.139 128.643 270.289 128.588Z" fill="#ED008E"/>
<path d="M304.82 99.9582C304.574 99.8899 304.601 99.603 304.451 99.7533C304.765 99.9855 303.7 100.19 304.041 100.491C304.219 100.04 304.683 100.6 304.82 99.9582Z" fill="#ED008E"/>
<path d="M258.105 126.307C258.009 126.648 257.859 127.004 258.255 127.195C258.528 126.758 258.761 126.607 258.733 126.334C258.597 126.553 258.282 126.184 258.105 126.307Z" fill="#ED008E"/>
<path d="M344.937 203.673C345.374 203.714 346.371 203.851 346.289 203.291C345.989 203.7 344.869 203.168 344.937 203.673Z" fill="#ED008E"/>
<path d="M317.495 196.229C317.741 195.464 316.648 194.726 317.304 194.822C316.402 194.316 317.085 193.265 316.621 193.142C315.897 193.606 316.102 194.89 316.006 195.395C316.334 195.149 316.662 195.751 316.293 196.037C316.853 196.106 316.976 196.597 317.495 196.229Z" fill="#ED008E"/>
<path d="M317.659 198.865C317.673 198.81 317.659 198.756 317.577 198.701C317.604 198.769 317.632 198.81 317.659 198.865Z" fill="#ED008E"/>
<path d="M321.538 207.252C321.73 204.861 318.615 203.892 319.039 201.31C318.629 201.214 318.82 200.955 318.492 200.846C318.766 200.49 318.588 200.272 318.656 199.971C317.96 199.343 317.837 199.193 317.659 198.879C317.632 199.029 317.359 199.165 317.29 199.206C318.096 199.739 317.29 201.433 318.165 202.28C317.782 204.383 315.925 207.088 317.618 208.454C318.479 209.15 319.162 208.659 320.104 209.519C320.05 210.953 320.651 212.21 321.894 213.275C322.058 213.139 322.249 213.084 322.467 213.112C323.055 211.595 321.443 210.694 320.924 209.492C320.787 208.631 321.47 208.085 321.538 207.252Z" fill="#ED008E"/>
<path d="M276.354 232.03C277.214 229.707 276.709 227.768 276.845 225.651C275.999 224.79 275.425 223.834 275.206 222.782C273.854 225.118 275.725 228.232 275.63 231.292C275.616 231.702 275.288 232.084 275.575 232.549C275.452 235.663 273.827 239.214 274.81 242.014C276.914 238.408 278.922 234.27 277.692 231.961C277.679 232.153 276.927 232.016 276.354 232.03ZM276.436 233.04C276.6 233.136 276.763 233.232 276.927 233.314C276.763 233.846 276.067 233.464 276.436 233.04Z" fill="#ED008E"/>
<path d="M269.497 255.264C269.565 255.305 269.688 255.237 269.565 255.141C269.073 255.264 269.401 255.633 269.469 255.892C267.584 257.613 268.978 258.911 268.144 261.151C268.486 261.301 268.65 261.493 268.431 261.793C268.213 261.889 267.967 261.848 267.789 262.08C267.721 262.736 267.557 264.088 266.901 264.826C267.735 265.399 266.273 266.642 267.516 266.629C267.42 265.14 269.155 263.583 268.5 261.998C269.292 260.263 269.838 258.324 270.029 256.37C269.934 255.974 269.374 255.715 269.497 255.264Z" fill="#ED008E"/>
<path d="M127.85 189.495C128.438 188.894 128.902 188.238 129.189 187.979C129.121 188.101 129.011 188.074 128.929 188.156C128.615 188.006 128.328 187.842 128.26 187.623C126.621 188.593 124.354 188.265 122.701 190.014C122.264 190.055 122.332 189.563 122.073 189.986C122.004 190.109 121.895 190.082 121.813 190.164C122.127 190.314 122.086 190.574 122.291 190.751C124.299 190.915 125.747 189.058 127.85 189.495Z" fill="#ED008E"/>
<path d="M119.655 199.493C119.273 199.398 119.546 199.111 119.3 198.974C118.685 199.971 117.633 199.466 116.8 199.684C114.615 201.487 110.886 201.392 109.356 203.126C109.807 203.126 110.244 203.058 110.804 203.454C116.814 201.323 123.193 200.449 128.889 197.212C128.725 197.089 128.943 196.857 129.039 196.652C129.217 196.748 129.271 196.857 129.339 196.98C129.353 195.177 128.889 197.39 127.646 196.515C125.665 198.195 122.442 197.731 119.997 198.878C120.201 199.029 120.16 199.247 119.969 199.507C119.846 199.438 119.764 199.52 119.655 199.493Z" fill="#ED008E"/>
<path d="M263.678 281.831C263.391 282.569 262.886 283.457 262.695 283.88C262.79 283.743 262.899 283.607 263.077 283.771C263.022 283.962 263.118 284.112 262.927 284.331C262.544 284.344 262.64 283.757 262.435 284.058C261.82 285.506 261.247 286.953 262.38 287.923C262.462 287.841 262.558 287.841 262.695 287.937C264.62 286.571 263.118 285.068 263.282 283.402C263.364 282.733 264.019 282.569 263.678 281.831Z" fill="#ED008E"/>
<path d="M233.068 277.16C232.03 276.409 230.759 276.231 230.295 275.453C230.09 275.63 230.363 276.163 229.954 276.067C229.994 275.999 229.926 275.876 229.831 275.999C230.24 277.269 230.527 278.58 231.101 279.796C231.798 279.113 233.519 278.499 233.068 277.16Z" fill="#ED008E"/>
<path d="M102.13 204.424C101.925 204.82 101.488 204.383 101.242 204.575C100.969 205.025 100.819 205.462 100.873 205.818C101.543 205.38 102.991 205.722 103.196 204.848C102.799 205.271 102.513 204.616 102.13 204.424Z" fill="#ED008E"/>
<path d="M99.6852 205.326C99.5349 206.009 98.8383 205.927 98.9339 206.364C98.4285 206.036 98.1007 206.364 97.7183 206.5C98.3466 206.419 99.0432 206.555 99.6306 206.282C99.3574 205.818 100.423 205.64 99.6852 205.326Z" fill="#ED008E"/>
<path d="M87.0502 211.377C89.4406 210.612 91.6124 209.096 94.1393 208.863C95.1638 207.702 96.3931 207.279 97.5951 206.746C93.6066 206.979 89.4815 209.888 85.4794 211.308C85.3701 211.896 86.5311 211.008 87.0502 211.377Z" fill="#ED008E"/>
<path d="M196.311 262.886C196.024 263.118 196.119 263.132 195.778 263.555C196.024 263.937 195.873 264.976 196.474 264.921C196.16 264.702 197.226 264.484 196.884 264.183C196.324 264.129 196.352 263.186 196.311 262.886Z" fill="#ED008E"/>
<path d="M119.327 221.198C118.808 221.785 118.152 221.84 118.371 222.605C118.576 222.072 119.641 221.184 119.327 221.198Z" fill="#ED008E"/>
<path d="M84.8783 211.773C84.9466 211.541 85.2335 211.554 85.0832 211.404C77.3657 213.398 69.9624 216.499 62.3815 218.944C61.0703 218.848 59.677 218.425 58.8984 220.242C59.8682 220.883 60.8927 220.078 61.7669 219.75C66.7525 217.865 72.2162 216.827 76.956 214.641C77.8711 214.805 78.5541 214.163 79.3873 214.068C81.0264 212.633 83.089 212.702 84.8783 211.773Z" fill="#ED008E"/>
<path d="M107.102 232.016C107.512 231.975 108.373 231.647 108.345 231.251C108.263 231.36 108.086 230.637 108.195 230.363C109.11 229.612 111.077 229.243 110.217 227.932C110.066 228.588 109.629 229.243 109.124 229.585C108.687 229.435 108.591 229.175 108.332 228.984C107.799 229.708 107.526 230.309 106.515 229.913C106.173 230.404 105.818 231.046 105.682 231.388C106.105 230.978 106.952 231.511 107.102 232.016Z" fill="#ED008E"/>
<path d="M271.054 3.70155C272.994 4.24792 274.278 0.600896 271.792 0.0681856C269.224 -0.491844 269.019 3.12786 271.054 3.70155Z" fill="#ED008E"/>
<path d="M302.839 74.8527C303.153 75.2351 303.153 74.5112 303.467 74.88C303.249 75.5356 303.14 76.1503 303.44 76.6557C304.615 74.1287 304.246 72.5306 303.987 70.4817C303.823 69.1841 304.328 68.0367 303.304 67.3537C302.375 68.064 302.88 68.7743 302.812 69.6758C302.771 70.3451 302.457 71.0008 302.402 71.5608C302.32 72.7628 303.099 73.8555 302.839 74.8527Z" fill="#ED008E"/>
<path d="M228.519 48.9273C231.47 50.9899 234.994 46.0862 231.838 44.4608C228.888 42.9446 226.443 47.4658 228.519 48.9273Z" fill="#ED008E"/>
<path d="M305.065 91.9949C306.226 89.8094 304.055 88.5937 303.809 86.4219C302.757 88.8123 303.139 91.2983 304.136 92.7735C304.014 92.9374 303.822 92.8691 303.686 93.0057C304.615 94.3716 302.852 96.5024 304.095 97.7727C305.038 96.12 304.109 94.0984 304.601 92.5413C304.656 92.3364 304.97 92.1588 305.065 91.9949Z" fill="#ED008E"/>
<path d="M354.662 260.673C351.848 259.785 349.69 262.298 350.278 265.03C350.797 267.462 354.034 270.125 356.534 268.049C359.224 265.809 358.132 261.848 354.662 260.673ZM353.747 264.047C353.651 263.965 353.61 264.033 353.556 264.101C353.474 264.06 353.392 264.006 353.31 263.965C353.392 263.869 353.324 263.828 353.255 263.774C353.296 263.692 353.351 263.61 353.392 263.528C353.488 263.61 353.529 263.541 353.583 263.473C353.665 263.514 353.747 263.569 353.829 263.61C353.747 263.705 353.815 263.76 353.884 263.801C353.829 263.883 353.788 263.965 353.747 264.047ZM355.373 264.32C355.495 263.897 355.755 263.938 355.905 263.651C356.096 263.76 355.673 264.716 355.373 264.32Z" fill="#ED008E"/>
<path d="M272.925 247.123C272.406 247.533 271.696 248.762 272.406 248.625C271.436 248.516 270.63 251.726 271.75 251.822C273.909 252.013 272.611 249.786 272.584 248.885C272.556 248.052 273.253 247.738 272.925 247.123Z" fill="#ED008E"/>
<path d="M236.223 237.097C236.933 235.909 238.75 234.98 238.026 233.887C237.384 234.379 235.718 236.018 236.223 237.097Z" fill="#ED008E"/>
<path d="M234.242 245.552C234.119 245.976 233.86 245.935 233.71 246.221C234.174 246.331 233.983 246.631 233.996 246.863C233.109 248.298 232.945 252.272 235.663 251.685C236.592 249.254 234.065 247.779 234.242 245.552Z" fill="#ED008E"/>
<path d="M252.587 264.593C252.382 263.582 252.423 261.479 251.467 261.37C251.904 261.616 251.603 262.135 251.248 262.053C252.054 264.525 250.019 267.803 252.983 269.674C254.977 268.855 254.157 265.754 252.587 264.593Z" fill="#ED008E"/>
<path d="M223.165 276.313C224.558 275.289 222.523 273.636 222.468 272.352C221.594 273.294 221.526 275.425 223.165 276.313Z" fill="#ED008E"/>
<path d="M146.14 275.466C144.542 277.638 148.79 278.17 148.298 275.384C147.247 274.687 146.618 274.81 146.14 275.466Z" fill="#ED008E"/>
</svg>
