<svg width="377" height="62" viewBox="0 0 377 62" fill="none" xmlns="http://www.w3.org/2000/svg">
<circle cx="346.5" cy="30.603" r="30.5" fill="#FFFF00"/>
<path d="M346.5 0.103027C363.345 0.103027 377 13.7583 377 30.603C377 47.4477 363.345 61.103 346.5 61.103C329.655 61.103 316 47.4477 316 30.603C316 13.7583 329.655 0.103027 346.5 0.103027ZM357.461 12.2181C356.833 12.1811 356.265 12.5567 355.834 13.2234L351.664 21.1313C351.225 22.0684 351.474 23.0717 352.129 23.7412L354.039 25.6512C354.157 25.8127 354.235 25.9947 354.237 26.1948C353.504 29.03 351.282 31.6453 349.322 33.4437C347.362 35.2422 345.255 37.6772 342.52 38.2541C342.182 38.3484 341.768 38.3822 341.526 38.1573L339.307 35.8974C338.541 35.3168 337.433 35.0354 336.615 35.5102H336.578L329.053 39.9519C327.949 40.6442 327.835 41.9824 328.625 42.7964L333.808 47.938C334.573 48.7229 335.59 48.9867 336.578 48.9879C340.947 48.857 345.075 46.7127 348.466 44.509C354.031 40.46 359.137 35.438 362.342 29.3707C363.571 26.8265 365.015 23.5802 364.877 20.7405C364.865 19.6722 364.576 18.6256 363.824 17.937L358.641 12.7544C358.237 12.4108 357.838 12.2404 357.461 12.2181V12.2181Z" fill="black"/>
<path d="M10.44 41.917C11.172 41.917 11.814 41.815 12.366 41.611C12.918 41.395 13.38 41.101 13.752 40.729C14.136 40.357 14.424 39.913 14.616 39.397C14.808 38.881 14.904 38.323 14.904 37.723C14.904 36.295 14.508 35.215 13.716 34.483C12.924 33.751 11.832 33.385 10.44 33.385C9.048 33.385 7.956 33.751 7.164 34.483C6.372 35.215 5.976 36.295 5.976 37.723C5.976 38.323 6.072 38.881 6.264 39.397C6.456 39.913 6.738 40.357 7.11 40.729C7.494 41.101 7.962 41.395 8.514 41.611C9.066 41.815 9.708 41.917 10.44 41.917ZM10.44 22.135C9.78 22.135 9.21 22.237 8.73 22.441C8.25 22.645 7.848 22.921 7.524 23.269C7.212 23.605 6.978 23.995 6.822 24.439C6.678 24.883 6.606 25.351 6.606 25.843C6.606 26.359 6.666 26.863 6.786 27.355C6.918 27.835 7.134 28.267 7.434 28.651C7.734 29.023 8.13 29.323 8.622 29.551C9.114 29.779 9.72 29.893 10.44 29.893C11.16 29.893 11.766 29.779 12.258 29.551C12.75 29.323 13.146 29.023 13.446 28.651C13.746 28.267 13.956 27.835 14.076 27.355C14.208 26.863 14.274 26.359 14.274 25.843C14.274 25.351 14.196 24.883 14.04 24.439C13.884 23.995 13.65 23.605 13.338 23.269C13.026 22.921 12.63 22.645 12.15 22.441C11.67 22.237 11.1 22.135 10.44 22.135ZM14.832 31.531C16.416 32.047 17.586 32.839 18.342 33.907C19.098 34.963 19.476 36.259 19.476 37.795C19.476 38.947 19.254 39.991 18.81 40.927C18.378 41.863 17.766 42.661 16.974 43.321C16.182 43.981 15.228 44.491 14.112 44.851C13.008 45.211 11.784 45.391 10.44 45.391C9.096 45.391 7.866 45.211 6.75 44.851C5.646 44.491 4.698 43.981 3.906 43.321C3.114 42.661 2.496 41.863 2.052 40.927C1.62 39.991 1.404 38.947 1.404 37.795C1.404 36.259 1.782 34.963 2.538 33.907C3.294 32.839 4.464 32.047 6.048 31.531C4.788 31.003 3.84 30.253 3.204 29.281C2.58 28.309 2.268 27.139 2.268 25.771C2.268 24.787 2.466 23.869 2.862 23.017C3.27 22.165 3.834 21.427 4.554 20.803C5.274 20.167 6.132 19.675 7.128 19.327C8.136 18.967 9.24 18.787 10.44 18.787C11.64 18.787 12.738 18.967 13.734 19.327C14.742 19.675 15.606 20.167 16.326 20.803C17.046 21.427 17.604 22.165 18 23.017C18.408 23.869 18.612 24.787 18.612 25.771C18.612 27.139 18.294 28.309 17.658 29.281C17.034 30.253 16.092 31.003 14.832 31.531ZM26.0488 33.817C26.0488 36.289 26.3488 38.719 26.9488 41.107C27.5488 43.495 28.4068 45.739 29.5228 47.839C29.6428 48.079 29.7088 48.289 29.7208 48.469C29.7448 48.661 29.7328 48.823 29.6848 48.955C29.6368 49.099 29.5588 49.219 29.4508 49.315C29.3548 49.423 29.2468 49.513 29.1268 49.585L27.1468 50.791C26.2588 49.423 25.5028 48.049 24.8788 46.669C24.2548 45.289 23.7448 43.897 23.3488 42.493C22.9528 41.089 22.6588 39.667 22.4668 38.227C22.2868 36.787 22.1968 35.317 22.1968 33.817C22.1968 32.317 22.2868 30.847 22.4668 29.407C22.6588 27.955 22.9528 26.527 23.3488 25.123C23.7448 23.719 24.2548 22.333 24.8788 20.965C25.5028 19.585 26.2588 18.211 27.1468 16.843L29.1268 18.031C29.2468 18.103 29.3548 18.193 29.4508 18.301C29.5588 18.397 29.6368 18.517 29.6848 18.661C29.7328 18.793 29.7448 18.955 29.7208 19.147C29.7088 19.327 29.6428 19.543 29.5228 19.795C28.4068 21.883 27.5488 24.127 26.9488 26.527C26.3488 28.915 26.0488 31.345 26.0488 33.817ZM50.7417 32.089C50.7417 34.357 50.4957 36.331 50.0037 38.011C49.5237 39.679 48.8517 41.059 47.9877 42.151C47.1357 43.243 46.1217 44.059 44.9457 44.599C43.7817 45.127 42.5217 45.391 41.1657 45.391C39.8097 45.391 38.5497 45.127 37.3857 44.599C36.2337 44.059 35.2317 43.243 34.3797 42.151C33.5277 41.059 32.8617 39.679 32.3817 38.011C31.9017 36.331 31.6617 34.357 31.6617 32.089C31.6617 29.809 31.9017 27.835 32.3817 26.167C32.8617 24.499 33.5277 23.119 34.3797 22.027C35.2317 20.935 36.2337 20.125 37.3857 19.597C38.5497 19.057 39.8097 18.787 41.1657 18.787C42.5217 18.787 43.7817 19.057 44.9457 19.597C46.1217 20.125 47.1357 20.935 47.9877 22.027C48.8517 23.119 49.5237 24.499 50.0037 26.167C50.4957 27.835 50.7417 29.809 50.7417 32.089ZM46.1517 32.089C46.1517 30.205 46.0137 28.645 45.7377 27.409C45.4617 26.173 45.0897 25.189 44.6217 24.457C44.1657 23.725 43.6377 23.215 43.0377 22.927C42.4377 22.627 41.8137 22.477 41.1657 22.477C40.5297 22.477 39.9117 22.627 39.3117 22.927C38.7237 23.215 38.2017 23.725 37.7457 24.457C37.2897 25.189 36.9237 26.173 36.6477 27.409C36.3837 28.645 36.2517 30.205 36.2517 32.089C36.2517 33.973 36.3837 35.533 36.6477 36.769C36.9237 38.005 37.2897 38.989 37.7457 39.721C38.2017 40.453 38.7237 40.969 39.3117 41.269C39.9117 41.557 40.5297 41.701 41.1657 41.701C41.8137 41.701 42.4377 41.557 43.0377 41.269C43.6377 40.969 44.1657 40.453 44.6217 39.721C45.0897 38.989 45.4617 38.005 45.7377 36.769C46.0137 35.533 46.1517 33.973 46.1517 32.089ZM69.3025 40.963C69.7825 40.963 70.1605 41.101 70.4365 41.377C70.7245 41.641 70.8685 41.995 70.8685 42.439L70.8685 45.103L53.0125 45.103L53.0125 43.627C53.0125 43.327 53.0725 43.015 53.1925 42.691C53.3245 42.355 53.5285 42.055 53.8045 41.791L61.7065 33.871C62.3665 33.199 62.9545 32.557 63.4705 31.945C63.9985 31.333 64.4365 30.727 64.7845 30.127C65.1325 29.527 65.3965 28.921 65.5765 28.309C65.7685 27.685 65.8645 27.031 65.8645 26.347C65.8645 25.723 65.7745 25.177 65.5945 24.709C65.4145 24.229 65.1565 23.827 64.8205 23.503C64.4965 23.179 64.1005 22.939 63.6325 22.783C63.1765 22.615 62.6605 22.531 62.0845 22.531C61.5565 22.531 61.0645 22.609 60.6085 22.765C60.1645 22.909 59.7685 23.119 59.4205 23.395C59.0725 23.659 58.7785 23.971 58.5385 24.331C58.2985 24.691 58.1185 25.087 57.9985 25.519C57.7945 26.071 57.5305 26.437 57.2065 26.617C56.8825 26.797 56.4145 26.839 55.8025 26.743L53.4625 26.329C53.6425 25.081 53.9905 23.989 54.5065 23.053C55.0225 22.105 55.6645 21.319 56.4325 20.695C57.2125 20.059 58.1005 19.585 59.0965 19.273C60.1045 18.949 61.1845 18.787 62.3365 18.787C63.5365 18.787 64.6345 18.967 65.6305 19.327C66.6265 19.675 67.4785 20.173 68.1865 20.821C68.8945 21.469 69.4465 22.249 69.8425 23.161C70.2385 24.073 70.4365 25.087 70.4365 26.203C70.4365 27.163 70.2925 28.051 70.0045 28.867C69.7285 29.683 69.3505 30.463 68.8705 31.207C68.4025 31.951 67.8505 32.671 67.2145 33.367C66.5785 34.063 65.9125 34.771 65.2165 35.491L59.3485 41.485C59.9125 41.317 60.4705 41.191 61.0225 41.107C61.5865 41.011 62.1205 40.963 62.6245 40.963L69.3025 40.963ZM78.4673 26.887C78.4673 28.339 78.8393 29.449 79.5833 30.217C80.3393 30.973 81.4073 31.351 82.7873 31.351C83.5073 31.351 84.1493 31.237 84.7133 31.009C85.2773 30.781 85.7513 30.469 86.1353 30.073C86.5193 29.677 86.8073 29.209 86.9993 28.669C87.2033 28.129 87.3053 27.547 87.3053 26.923C87.3053 26.215 87.1973 25.585 86.9813 25.033C86.7653 24.469 86.4593 23.995 86.0633 23.611C85.6673 23.227 85.1933 22.933 84.6413 22.729C84.1013 22.525 83.5073 22.423 82.8593 22.423C82.1873 22.423 81.5813 22.537 81.0413 22.765C80.5013 22.981 80.0393 23.287 79.6553 23.683C79.2713 24.079 78.9773 24.553 78.7733 25.105C78.5693 25.645 78.4673 26.239 78.4673 26.887ZM84.3713 35.005C84.5753 34.753 84.7673 34.507 84.9473 34.267C85.1273 34.027 85.3013 33.787 85.4693 33.547C84.8693 33.931 84.2093 34.225 83.4893 34.429C82.7693 34.621 82.0133 34.717 81.2213 34.717C80.3213 34.717 79.4393 34.561 78.5753 34.249C77.7113 33.937 76.9433 33.469 76.2713 32.845C75.5993 32.209 75.0533 31.429 74.6333 30.505C74.2253 29.569 74.0213 28.477 74.0213 27.229C74.0213 26.065 74.2373 24.973 74.6693 23.953C75.1013 22.933 75.7073 22.039 76.4873 21.271C77.2673 20.503 78.2033 19.897 79.2953 19.453C80.3873 19.009 81.5933 18.787 82.9133 18.787C84.2453 18.787 85.4393 18.997 86.4953 19.417C87.5633 19.837 88.4693 20.425 89.2133 21.181C89.9693 21.937 90.5453 22.843 90.9413 23.899C91.3493 24.955 91.5533 26.113 91.5533 27.373C91.5533 28.177 91.4813 28.939 91.3373 29.659C91.2053 30.379 91.0133 31.075 90.7613 31.747C90.5093 32.407 90.2033 33.055 89.8433 33.691C89.4833 34.327 89.0813 34.957 88.6373 35.581L82.6793 44.077C82.4753 44.365 82.1693 44.611 81.7613 44.815C81.3533 45.007 80.8913 45.103 80.3753 45.103L76.2893 45.103L84.3713 35.005ZM98.1082 33.817C98.1082 31.345 97.8082 28.915 97.2082 26.527C96.6202 24.127 95.7682 21.883 94.6522 19.795C94.5202 19.543 94.4422 19.327 94.4182 19.147C94.4062 18.955 94.4242 18.793 94.4722 18.661C94.5202 18.517 94.5922 18.397 94.6882 18.301C94.7962 18.193 94.9162 18.103 95.0482 18.031L97.0282 16.843C97.9162 18.211 98.6722 19.585 99.2962 20.965C99.9202 22.333 100.43 23.719 100.826 25.123C101.222 26.527 101.51 27.955 101.69 29.407C101.87 30.847 101.96 32.317 101.96 33.817C101.96 35.317 101.87 36.787 101.69 38.227C101.51 39.667 101.222 41.089 100.826 42.493C100.43 43.897 99.9202 45.289 99.2962 46.669C98.6722 48.049 97.9162 49.423 97.0282 50.791L95.0482 49.585C94.9162 49.513 94.7962 49.423 94.6882 49.315C94.5922 49.219 94.5202 49.099 94.4722 48.955C94.4242 48.823 94.4062 48.661 94.4182 48.469C94.4422 48.289 94.5202 48.079 94.6522 47.839C95.7682 45.739 96.6202 43.495 97.2082 41.107C97.8082 38.719 98.1082 36.289 98.1082 33.817ZM131.699 19.075L131.699 21.001C131.699 21.577 131.639 22.045 131.519 22.405C131.399 22.753 131.279 23.047 131.159 23.287L121.295 43.591C121.091 44.011 120.803 44.371 120.431 44.671C120.059 44.959 119.561 45.103 118.937 45.103L115.715 45.103L125.777 25.213C126.005 24.805 126.227 24.433 126.443 24.097C126.671 23.749 126.923 23.419 127.199 23.107L114.743 23.107C114.467 23.107 114.227 23.005 114.023 22.801C113.819 22.597 113.717 22.357 113.717 22.081L113.717 19.075L131.699 19.075ZM143.366 41.917C144.098 41.917 144.74 41.815 145.292 41.611C145.844 41.395 146.306 41.101 146.678 40.729C147.062 40.357 147.35 39.913 147.542 39.397C147.734 38.881 147.83 38.323 147.83 37.723C147.83 36.295 147.434 35.215 146.642 34.483C145.85 33.751 144.758 33.385 143.366 33.385C141.974 33.385 140.882 33.751 140.09 34.483C139.298 35.215 138.902 36.295 138.902 37.723C138.902 38.323 138.998 38.881 139.19 39.397C139.382 39.913 139.664 40.357 140.036 40.729C140.42 41.101 140.888 41.395 141.44 41.611C141.992 41.815 142.634 41.917 143.366 41.917ZM143.366 22.135C142.706 22.135 142.136 22.237 141.656 22.441C141.176 22.645 140.774 22.921 140.45 23.269C140.138 23.605 139.904 23.995 139.748 24.439C139.604 24.883 139.532 25.351 139.532 25.843C139.532 26.359 139.592 26.863 139.712 27.355C139.844 27.835 140.06 28.267 140.36 28.651C140.66 29.023 141.056 29.323 141.548 29.551C142.04 29.779 142.646 29.893 143.366 29.893C144.086 29.893 144.692 29.779 145.184 29.551C145.676 29.323 146.072 29.023 146.372 28.651C146.672 28.267 146.882 27.835 147.002 27.355C147.134 26.863 147.2 26.359 147.2 25.843C147.2 25.351 147.122 24.883 146.966 24.439C146.81 23.995 146.576 23.605 146.264 23.269C145.952 22.921 145.556 22.645 145.076 22.441C144.596 22.237 144.026 22.135 143.366 22.135ZM147.758 31.531C149.342 32.047 150.512 32.839 151.268 33.907C152.024 34.963 152.402 36.259 152.402 37.795C152.402 38.947 152.18 39.991 151.736 40.927C151.304 41.863 150.692 42.661 149.9 43.321C149.108 43.981 148.154 44.491 147.038 44.851C145.934 45.211 144.71 45.391 143.366 45.391C142.022 45.391 140.792 45.211 139.676 44.851C138.572 44.491 137.624 43.981 136.832 43.321C136.04 42.661 135.422 41.863 134.978 40.927C134.546 39.991 134.33 38.947 134.33 37.795C134.33 36.259 134.708 34.963 135.464 33.907C136.22 32.839 137.39 32.047 138.974 31.531C137.714 31.003 136.766 30.253 136.13 29.281C135.506 28.309 135.194 27.139 135.194 25.771C135.194 24.787 135.392 23.869 135.788 23.017C136.196 22.165 136.76 21.427 137.48 20.803C138.2 20.167 139.058 19.675 140.054 19.327C141.062 18.967 142.166 18.787 143.366 18.787C144.566 18.787 145.664 18.967 146.66 19.327C147.668 19.675 148.532 20.167 149.252 20.803C149.972 21.427 150.53 22.165 150.926 23.017C151.334 23.869 151.538 24.787 151.538 25.771C151.538 27.139 151.22 28.309 150.584 29.281C149.96 30.253 149.018 31.003 147.758 31.531ZM173.789 32.089C173.789 34.357 173.543 36.331 173.051 38.011C172.571 39.679 171.899 41.059 171.035 42.151C170.183 43.243 169.169 44.059 167.993 44.599C166.829 45.127 165.569 45.391 164.213 45.391C162.857 45.391 161.597 45.127 160.433 44.599C159.281 44.059 158.279 43.243 157.427 42.151C156.575 41.059 155.909 39.679 155.429 38.011C154.949 36.331 154.709 34.357 154.709 32.089C154.709 29.809 154.949 27.835 155.429 26.167C155.909 24.499 156.575 23.119 157.427 22.027C158.279 20.935 159.281 20.125 160.433 19.597C161.597 19.057 162.857 18.787 164.213 18.787C165.569 18.787 166.829 19.057 167.993 19.597C169.169 20.125 170.183 20.935 171.035 22.027C171.899 23.119 172.571 24.499 173.051 26.167C173.543 27.835 173.789 29.809 173.789 32.089ZM169.199 32.089C169.199 30.205 169.061 28.645 168.785 27.409C168.509 26.173 168.137 25.189 167.669 24.457C167.213 23.725 166.685 23.215 166.085 22.927C165.485 22.627 164.861 22.477 164.213 22.477C163.577 22.477 162.959 22.627 162.359 22.927C161.771 23.215 161.249 23.725 160.793 24.457C160.337 25.189 159.971 26.173 159.695 27.409C159.431 28.645 159.299 30.205 159.299 32.089C159.299 33.973 159.431 35.533 159.695 36.769C159.971 38.005 160.337 38.989 160.793 39.721C161.249 40.453 161.771 40.969 162.359 41.269C162.959 41.557 163.577 41.701 164.213 41.701C164.861 41.701 165.485 41.557 166.085 41.269C166.685 40.969 167.213 40.453 167.669 39.721C168.137 38.989 168.509 38.005 168.785 36.769C169.061 35.533 169.199 33.973 169.199 32.089ZM176.743 32.377L186.067 32.377L186.067 36.085L176.743 36.085L176.743 32.377ZM198.561 41.917C199.293 41.917 199.935 41.815 200.487 41.611C201.039 41.395 201.501 41.101 201.873 40.729C202.257 40.357 202.545 39.913 202.737 39.397C202.929 38.881 203.025 38.323 203.025 37.723C203.025 36.295 202.629 35.215 201.837 34.483C201.045 33.751 199.953 33.385 198.561 33.385C197.169 33.385 196.077 33.751 195.285 34.483C194.493 35.215 194.097 36.295 194.097 37.723C194.097 38.323 194.193 38.881 194.385 39.397C194.577 39.913 194.859 40.357 195.231 40.729C195.615 41.101 196.083 41.395 196.635 41.611C197.187 41.815 197.829 41.917 198.561 41.917ZM198.561 22.135C197.901 22.135 197.331 22.237 196.851 22.441C196.371 22.645 195.969 22.921 195.645 23.269C195.333 23.605 195.099 23.995 194.943 24.439C194.799 24.883 194.727 25.351 194.727 25.843C194.727 26.359 194.787 26.863 194.907 27.355C195.039 27.835 195.255 28.267 195.555 28.651C195.855 29.023 196.251 29.323 196.743 29.551C197.235 29.779 197.841 29.893 198.561 29.893C199.281 29.893 199.887 29.779 200.379 29.551C200.871 29.323 201.267 29.023 201.567 28.651C201.867 28.267 202.077 27.835 202.197 27.355C202.329 26.863 202.395 26.359 202.395 25.843C202.395 25.351 202.317 24.883 202.161 24.439C202.005 23.995 201.771 23.605 201.459 23.269C201.147 22.921 200.751 22.645 200.271 22.441C199.791 22.237 199.221 22.135 198.561 22.135ZM202.953 31.531C204.537 32.047 205.707 32.839 206.463 33.907C207.219 34.963 207.597 36.259 207.597 37.795C207.597 38.947 207.375 39.991 206.931 40.927C206.499 41.863 205.887 42.661 205.095 43.321C204.303 43.981 203.349 44.491 202.233 44.851C201.129 45.211 199.905 45.391 198.561 45.391C197.217 45.391 195.987 45.211 194.871 44.851C193.767 44.491 192.819 43.981 192.027 43.321C191.235 42.661 190.617 41.863 190.173 40.927C189.741 39.991 189.525 38.947 189.525 37.795C189.525 36.259 189.903 34.963 190.659 33.907C191.415 32.839 192.585 32.047 194.169 31.531C192.909 31.003 191.961 30.253 191.325 29.281C190.701 28.309 190.389 27.139 190.389 25.771C190.389 24.787 190.587 23.869 190.983 23.017C191.391 22.165 191.955 21.427 192.675 20.803C193.395 20.167 194.253 19.675 195.249 19.327C196.257 18.967 197.361 18.787 198.561 18.787C199.761 18.787 200.859 18.967 201.855 19.327C202.863 19.675 203.727 20.167 204.447 20.803C205.167 21.427 205.725 22.165 206.121 23.017C206.529 23.869 206.733 24.787 206.733 25.771C206.733 27.139 206.415 28.309 205.779 29.281C205.155 30.253 204.213 31.003 202.953 31.531ZM214.944 26.887C214.944 28.339 215.316 29.449 216.06 30.217C216.816 30.973 217.884 31.351 219.264 31.351C219.984 31.351 220.626 31.237 221.19 31.009C221.754 30.781 222.228 30.469 222.612 30.073C222.996 29.677 223.284 29.209 223.476 28.669C223.68 28.129 223.782 27.547 223.782 26.923C223.782 26.215 223.674 25.585 223.458 25.033C223.242 24.469 222.936 23.995 222.54 23.611C222.144 23.227 221.67 22.933 221.118 22.729C220.578 22.525 219.984 22.423 219.336 22.423C218.664 22.423 218.058 22.537 217.518 22.765C216.978 22.981 216.516 23.287 216.132 23.683C215.748 24.079 215.454 24.553 215.25 25.105C215.046 25.645 214.944 26.239 214.944 26.887ZM220.848 35.005C221.052 34.753 221.244 34.507 221.424 34.267C221.604 34.027 221.778 33.787 221.946 33.547C221.346 33.931 220.686 34.225 219.966 34.429C219.246 34.621 218.49 34.717 217.698 34.717C216.798 34.717 215.916 34.561 215.052 34.249C214.188 33.937 213.42 33.469 212.748 32.845C212.076 32.209 211.53 31.429 211.11 30.505C210.702 29.569 210.498 28.477 210.498 27.229C210.498 26.065 210.714 24.973 211.146 23.953C211.578 22.933 212.184 22.039 212.964 21.271C213.744 20.503 214.68 19.897 215.772 19.453C216.864 19.009 218.07 18.787 219.39 18.787C220.722 18.787 221.916 18.997 222.972 19.417C224.04 19.837 224.946 20.425 225.69 21.181C226.446 21.937 227.022 22.843 227.418 23.899C227.826 24.955 228.03 26.113 228.03 27.373C228.03 28.177 227.958 28.939 227.814 29.659C227.682 30.379 227.49 31.075 227.238 31.747C226.986 32.407 226.68 33.055 226.32 33.691C225.96 34.327 225.558 34.957 225.114 35.581L219.156 44.077C218.952 44.365 218.646 44.611 218.238 44.815C217.83 45.007 217.368 45.103 216.852 45.103L212.766 45.103L220.848 35.005ZM231.939 32.377L241.263 32.377L241.263 36.085L231.939 36.085L231.939 32.377ZM260.974 40.963C261.454 40.963 261.832 41.101 262.108 41.377C262.396 41.641 262.54 41.995 262.54 42.439L262.54 45.103L244.684 45.103L244.684 43.627C244.684 43.327 244.744 43.015 244.864 42.691C244.996 42.355 245.2 42.055 245.476 41.791L253.378 33.871C254.038 33.199 254.626 32.557 255.142 31.945C255.67 31.333 256.108 30.727 256.456 30.127C256.804 29.527 257.068 28.921 257.248 28.309C257.44 27.685 257.536 27.031 257.536 26.347C257.536 25.723 257.446 25.177 257.266 24.709C257.086 24.229 256.828 23.827 256.492 23.503C256.168 23.179 255.772 22.939 255.304 22.783C254.848 22.615 254.332 22.531 253.756 22.531C253.228 22.531 252.736 22.609 252.28 22.765C251.836 22.909 251.44 23.119 251.092 23.395C250.744 23.659 250.45 23.971 250.21 24.331C249.97 24.691 249.79 25.087 249.67 25.519C249.466 26.071 249.202 26.437 248.878 26.617C248.554 26.797 248.086 26.839 247.474 26.743L245.134 26.329C245.314 25.081 245.662 23.989 246.178 23.053C246.694 22.105 247.336 21.319 248.104 20.695C248.884 20.059 249.772 19.585 250.768 19.273C251.776 18.949 252.856 18.787 254.008 18.787C255.208 18.787 256.306 18.967 257.302 19.327C258.298 19.675 259.15 20.173 259.858 20.821C260.566 21.469 261.118 22.249 261.514 23.161C261.91 24.073 262.108 25.087 262.108 26.203C262.108 27.163 261.964 28.051 261.676 28.867C261.4 29.683 261.022 30.463 260.542 31.207C260.074 31.951 259.522 32.671 258.886 33.367C258.25 34.063 257.584 34.771 256.888 35.491L251.02 41.485C251.584 41.317 252.142 41.191 252.694 41.107C253.258 41.011 253.792 40.963 254.296 40.963L260.974 40.963ZM266.143 26.329C266.323 25.081 266.671 23.989 267.187 23.053C267.703 22.105 268.345 21.319 269.113 20.695C269.893 20.059 270.781 19.585 271.777 19.273C272.785 18.949 273.865 18.787 275.017 18.787C276.217 18.787 277.297 18.961 278.257 19.309C279.229 19.645 280.057 20.119 280.741 20.731C281.425 21.331 281.947 22.039 282.307 22.855C282.679 23.671 282.865 24.553 282.865 25.501C282.865 26.329 282.769 27.061 282.577 27.697C282.397 28.321 282.133 28.867 281.785 29.335C281.437 29.803 281.005 30.199 280.489 30.523C279.973 30.847 279.391 31.117 278.743 31.333C280.303 31.825 281.467 32.575 282.235 33.583C283.003 34.591 283.387 35.857 283.387 37.381C283.387 38.677 283.147 39.823 282.667 40.819C282.187 41.815 281.539 42.655 280.723 43.339C279.907 44.011 278.959 44.521 277.879 44.869C276.811 45.217 275.677 45.391 274.477 45.391C273.169 45.391 272.029 45.241 271.057 44.941C270.085 44.641 269.239 44.197 268.519 43.609C267.799 43.021 267.187 42.301 266.683 41.449C266.179 40.597 265.747 39.613 265.387 38.497L267.349 37.687C267.865 37.471 268.345 37.417 268.789 37.525C269.245 37.621 269.575 37.861 269.779 38.245C269.995 38.665 270.229 39.079 270.481 39.487C270.745 39.895 271.057 40.261 271.417 40.585C271.777 40.897 272.197 41.155 272.677 41.359C273.169 41.551 273.751 41.647 274.423 41.647C275.179 41.647 275.839 41.527 276.403 41.287C276.967 41.035 277.435 40.711 277.807 40.315C278.191 39.919 278.473 39.481 278.653 39.001C278.845 38.509 278.941 38.017 278.941 37.525C278.941 36.901 278.875 36.337 278.743 35.833C278.611 35.317 278.335 34.879 277.915 34.519C277.495 34.159 276.889 33.877 276.097 33.673C275.317 33.469 274.267 33.367 272.947 33.367L272.947 30.199C274.039 30.187 274.945 30.085 275.665 29.893C276.385 29.701 276.955 29.437 277.375 29.101C277.807 28.753 278.107 28.339 278.275 27.859C278.443 27.379 278.527 26.851 278.527 26.275C278.527 25.051 278.185 24.121 277.501 23.485C276.817 22.849 275.905 22.531 274.765 22.531C274.237 22.531 273.751 22.609 273.307 22.765C272.863 22.909 272.461 23.119 272.101 23.395C271.753 23.659 271.459 23.971 271.219 24.331C270.979 24.691 270.799 25.087 270.679 25.519C270.475 26.071 270.205 26.437 269.869 26.617C269.545 26.797 269.083 26.839 268.483 26.743L266.143 26.329Z" fill="#141414"/>
</svg>
