<svg width="229" height="61" viewBox="0 0 229 61" fill="none" xmlns="http://www.w3.org/2000/svg">
<path d="M5.22 36.407C5.586 36.407 5.907 36.356 6.183 36.254C6.459 36.146 6.69 35.999 6.876 35.813C7.068 35.627 7.212 35.405 7.308 35.147C7.404 34.889 7.452 34.61 7.452 34.31C7.452 33.596 7.254 33.056 6.858 32.69C6.462 32.324 5.916 32.141 5.22 32.141C4.524 32.141 3.978 32.324 3.582 32.69C3.186 33.056 2.988 33.596 2.988 34.31C2.988 34.61 3.036 34.889 3.132 35.147C3.228 35.405 3.369 35.627 3.555 35.813C3.747 35.999 3.981 36.146 4.257 36.254C4.533 36.356 4.854 36.407 5.22 36.407ZM5.22 26.516C4.89 26.516 4.605 26.567 4.365 26.669C4.125 26.771 3.924 26.909 3.762 27.083C3.606 27.251 3.489 27.446 3.411 27.668C3.339 27.89 3.303 28.124 3.303 28.37C3.303 28.628 3.333 28.88 3.393 29.126C3.459 29.366 3.567 29.582 3.717 29.774C3.867 29.96 4.065 30.11 4.311 30.224C4.557 30.338 4.86 30.395 5.22 30.395C5.58 30.395 5.883 30.338 6.129 30.224C6.375 30.11 6.573 29.96 6.723 29.774C6.873 29.582 6.978 29.366 7.038 29.126C7.104 28.88 7.137 28.628 7.137 28.37C7.137 28.124 7.098 27.89 7.02 27.668C6.942 27.446 6.825 27.251 6.669 27.083C6.513 26.909 6.315 26.771 6.075 26.669C5.835 26.567 5.55 26.516 5.22 26.516ZM7.416 31.214C8.208 31.472 8.793 31.868 9.171 32.402C9.549 32.93 9.738 33.578 9.738 34.346C9.738 34.922 9.627 35.444 9.405 35.912C9.189 36.38 8.883 36.779 8.487 37.109C8.091 37.439 7.614 37.694 7.056 37.874C6.504 38.054 5.892 38.144 5.22 38.144C4.548 38.144 3.933 38.054 3.375 37.874C2.823 37.694 2.349 37.439 1.953 37.109C1.557 36.779 1.248 36.38 1.026 35.912C0.81 35.444 0.702 34.922 0.702 34.346C0.702 33.578 0.891 32.93 1.269 32.402C1.647 31.868 2.232 31.472 3.024 31.214C2.394 30.95 1.92 30.575 1.602 30.089C1.29 29.603 1.134 29.018 1.134 28.334C1.134 27.842 1.233 27.383 1.431 26.957C1.635 26.531 1.917 26.162 2.277 25.85C2.637 25.532 3.066 25.286 3.564 25.112C4.068 24.932 4.62 24.842 5.22 24.842C5.82 24.842 6.369 24.932 6.867 25.112C7.371 25.286 7.803 25.532 8.163 25.85C8.523 26.162 8.802 26.531 9 26.957C9.204 27.383 9.306 27.842 9.306 28.334C9.306 29.018 9.147 29.603 8.829 30.089C8.517 30.575 8.046 30.95 7.416 31.214ZM13.0244 32.357C13.0244 33.593 13.1744 34.808 13.4744 36.002C13.7744 37.196 14.2034 38.318 14.7614 39.368C14.8214 39.488 14.8544 39.593 14.8604 39.683C14.8724 39.779 14.8664 39.86 14.8424 39.926C14.8184 39.998 14.7794 40.058 14.7254 40.106C14.6774 40.16 14.6234 40.205 14.5634 40.241L13.5734 40.844C13.1294 40.16 12.7514 39.473 12.4394 38.783C12.1274 38.093 11.8724 37.397 11.6744 36.695C11.4764 35.993 11.3294 35.282 11.2334 34.562C11.1434 33.842 11.0984 33.107 11.0984 32.357C11.0984 31.607 11.1434 30.872 11.2334 30.152C11.3294 29.426 11.4764 28.712 11.6744 28.01C11.8724 27.308 12.1274 26.615 12.4394 25.931C12.7514 25.241 13.1294 24.554 13.5734 23.87L14.5634 24.464C14.6234 24.5 14.6774 24.545 14.7254 24.599C14.7794 24.647 14.8184 24.707 14.8424 24.779C14.8664 24.845 14.8724 24.926 14.8604 25.022C14.8544 25.112 14.8214 25.22 14.7614 25.346C14.2034 26.39 13.7744 27.512 13.4744 28.712C13.1744 29.906 13.0244 31.121 13.0244 32.357ZM25.3709 31.493C25.3709 32.627 25.2479 33.614 25.0019 34.454C24.7619 35.288 24.4259 35.978 23.9939 36.524C23.5679 37.07 23.0609 37.478 22.4729 37.748C21.8909 38.012 21.2609 38.144 20.5829 38.144C19.9049 38.144 19.2749 38.012 18.6929 37.748C18.1169 37.478 17.6159 37.07 17.1899 36.524C16.7639 35.978 16.4309 35.288 16.1909 34.454C15.9509 33.614 15.8309 32.627 15.8309 31.493C15.8309 30.353 15.9509 29.366 16.1909 28.532C16.4309 27.698 16.7639 27.008 17.1899 26.462C17.6159 25.916 18.1169 25.511 18.6929 25.247C19.2749 24.977 19.9049 24.842 20.5829 24.842C21.2609 24.842 21.8909 24.977 22.4729 25.247C23.0609 25.511 23.5679 25.916 23.9939 26.462C24.4259 27.008 24.7619 27.698 25.0019 28.532C25.2479 29.366 25.3709 30.353 25.3709 31.493ZM23.0759 31.493C23.0759 30.551 23.0069 29.771 22.8689 29.153C22.7309 28.535 22.5449 28.043 22.3109 27.677C22.0829 27.311 21.8189 27.056 21.5189 26.912C21.2189 26.762 20.9069 26.687 20.5829 26.687C20.2649 26.687 19.9559 26.762 19.6559 26.912C19.3619 27.056 19.1009 27.311 18.8729 27.677C18.6449 28.043 18.4619 28.535 18.3239 29.153C18.1919 29.771 18.1259 30.551 18.1259 31.493C18.1259 32.435 18.1919 33.215 18.3239 33.833C18.4619 34.451 18.6449 34.943 18.8729 35.309C19.1009 35.675 19.3619 35.933 19.6559 36.083C19.9559 36.227 20.2649 36.299 20.5829 36.299C20.9069 36.299 21.2189 36.227 21.5189 36.083C21.8189 35.933 22.0829 35.675 22.3109 35.309C22.5449 34.943 22.7309 34.451 22.8689 33.833C23.0069 33.215 23.0759 32.435 23.0759 31.493ZM34.6513 35.93C34.8913 35.93 35.0803 35.999 35.2183 36.137C35.3623 36.269 35.4343 36.446 35.4343 36.668L35.4343 38L26.5063 38L26.5063 37.262C26.5063 37.112 26.5363 36.956 26.5963 36.794C26.6623 36.626 26.7643 36.476 26.9023 36.344L30.8533 32.384C31.1833 32.048 31.4773 31.727 31.7353 31.421C31.9993 31.115 32.2183 30.812 32.3923 30.512C32.5663 30.212 32.6983 29.909 32.7883 29.603C32.8843 29.291 32.9323 28.964 32.9323 28.622C32.9323 28.31 32.8873 28.037 32.7973 27.803C32.7073 27.563 32.5783 27.362 32.4103 27.2C32.2483 27.038 32.0503 26.918 31.8163 26.84C31.5883 26.756 31.3303 26.714 31.0423 26.714C30.7783 26.714 30.5323 26.753 30.3043 26.831C30.0823 26.903 29.8843 27.008 29.7103 27.146C29.5363 27.278 29.3893 27.434 29.2693 27.614C29.1493 27.794 29.0593 27.992 28.9993 28.208C28.8973 28.484 28.7653 28.667 28.6033 28.757C28.4413 28.847 28.2073 28.868 27.9013 28.82L26.7313 28.613C26.8213 27.989 26.9953 27.443 27.2533 26.975C27.5113 26.501 27.8323 26.108 28.2163 25.796C28.6063 25.478 29.0503 25.241 29.5483 25.085C30.0523 24.923 30.5923 24.842 31.1683 24.842C31.7683 24.842 32.3173 24.932 32.8153 25.112C33.3133 25.286 33.7393 25.535 34.0933 25.859C34.4473 26.183 34.7233 26.573 34.9213 27.029C35.1193 27.485 35.2183 27.992 35.2183 28.55C35.2183 29.03 35.1463 29.474 35.0023 29.882C34.8643 30.29 34.6753 30.68 34.4353 31.052C34.2013 31.424 33.9253 31.784 33.6073 32.132C33.2893 32.48 32.9563 32.834 32.6083 33.194L29.6743 36.191C29.9563 36.107 30.2353 36.044 30.5113 36.002C30.7933 35.954 31.0603 35.93 31.3123 35.93L34.6513 35.93ZM39.2337 28.892C39.2337 29.618 39.4197 30.173 39.7917 30.557C40.1697 30.935 40.7037 31.124 41.3937 31.124C41.7537 31.124 42.0747 31.067 42.3567 30.953C42.6387 30.839 42.8757 30.683 43.0677 30.485C43.2597 30.287 43.4037 30.053 43.4997 29.783C43.6017 29.513 43.6527 29.222 43.6527 28.91C43.6527 28.556 43.5987 28.241 43.4907 27.965C43.3827 27.683 43.2297 27.446 43.0317 27.254C42.8337 27.062 42.5967 26.915 42.3207 26.813C42.0507 26.711 41.7537 26.66 41.4297 26.66C41.0937 26.66 40.7907 26.717 40.5207 26.831C40.2507 26.939 40.0197 27.092 39.8277 27.29C39.6357 27.488 39.4887 27.725 39.3867 28.001C39.2847 28.271 39.2337 28.568 39.2337 28.892ZM42.1857 32.951C42.2877 32.825 42.3837 32.702 42.4737 32.582C42.5637 32.462 42.6507 32.342 42.7347 32.222C42.4347 32.414 42.1047 32.561 41.7447 32.663C41.3847 32.759 41.0067 32.807 40.6107 32.807C40.1607 32.807 39.7197 32.729 39.2877 32.573C38.8557 32.417 38.4717 32.183 38.1357 31.871C37.7997 31.553 37.5267 31.163 37.3167 30.701C37.1127 30.233 37.0107 29.687 37.0107 29.063C37.0107 28.481 37.1187 27.935 37.3347 27.425C37.5507 26.915 37.8537 26.468 38.2437 26.084C38.6337 25.7 39.1017 25.397 39.6477 25.175C40.1937 24.953 40.7967 24.842 41.4567 24.842C42.1227 24.842 42.7197 24.947 43.2477 25.157C43.7817 25.367 44.2347 25.661 44.6067 26.039C44.9847 26.417 45.2727 26.87 45.4707 27.398C45.6747 27.926 45.7767 28.505 45.7767 29.135C45.7767 29.537 45.7407 29.918 45.6687 30.278C45.6027 30.638 45.5067 30.986 45.3807 31.322C45.2547 31.652 45.1017 31.976 44.9217 32.294C44.7417 32.612 44.5407 32.927 44.3187 33.239L41.3397 37.487C41.2377 37.631 41.0847 37.754 40.8807 37.856C40.6767 37.952 40.4457 38 40.1877 38L38.1447 38L42.1857 32.951ZM49.0541 32.357C49.0541 31.121 48.9041 29.906 48.6041 28.712C48.3101 27.512 47.8841 26.39 47.3261 25.346C47.2601 25.22 47.2211 25.112 47.2091 25.022C47.2031 24.926 47.2121 24.845 47.2361 24.779C47.2601 24.707 47.2961 24.647 47.3441 24.599C47.3981 24.545 47.4581 24.5 47.5241 24.464L48.5141 23.87C48.9581 24.554 49.3361 25.241 49.6481 25.931C49.9601 26.615 50.2151 27.308 50.4131 28.01C50.6111 28.712 50.7551 29.426 50.8451 30.152C50.9351 30.872 50.9801 31.607 50.9801 32.357C50.9801 33.107 50.9351 33.842 50.8451 34.562C50.7551 35.282 50.6111 35.993 50.4131 36.695C50.2151 37.397 49.9601 38.093 49.6481 38.783C49.3361 39.473 48.9581 40.16 48.5141 40.844L47.5241 40.241C47.4581 40.205 47.3981 40.16 47.3441 40.106C47.2961 40.058 47.2601 39.998 47.2361 39.926C47.2121 39.86 47.2031 39.779 47.2091 39.683C47.2211 39.593 47.2601 39.488 47.3261 39.368C47.8841 38.318 48.3101 37.196 48.6041 36.002C48.9041 34.808 49.0541 33.593 49.0541 32.357ZM65.8495 24.986L65.8495 25.949C65.8495 26.237 65.8195 26.471 65.7595 26.651C65.6995 26.825 65.6395 26.972 65.5795 27.092L60.6475 37.244C60.5455 37.454 60.4015 37.634 60.2155 37.784C60.0295 37.928 59.7805 38 59.4685 38L57.8575 38L62.8885 28.055C63.0025 27.851 63.1135 27.665 63.2215 27.497C63.3355 27.323 63.4615 27.158 63.5995 27.002L57.3715 27.002C57.2335 27.002 57.1135 26.951 57.0115 26.849C56.9095 26.747 56.8585 26.627 56.8585 26.489L56.8585 24.986L65.8495 24.986ZM71.6829 36.407C72.0489 36.407 72.3699 36.356 72.6459 36.254C72.9219 36.146 73.1529 35.999 73.3389 35.813C73.5309 35.627 73.6749 35.405 73.7709 35.147C73.8669 34.889 73.9149 34.61 73.9149 34.31C73.9149 33.596 73.7169 33.056 73.3209 32.69C72.9249 32.324 72.3789 32.141 71.6829 32.141C70.9869 32.141 70.4409 32.324 70.0449 32.69C69.6489 33.056 69.4509 33.596 69.4509 34.31C69.4509 34.61 69.4989 34.889 69.5949 35.147C69.6909 35.405 69.8319 35.627 70.0179 35.813C70.2099 35.999 70.4439 36.146 70.7199 36.254C70.9959 36.356 71.3169 36.407 71.6829 36.407ZM71.6829 26.516C71.3529 26.516 71.0679 26.567 70.8279 26.669C70.5879 26.771 70.3869 26.909 70.2249 27.083C70.0689 27.251 69.9519 27.446 69.8739 27.668C69.8019 27.89 69.7659 28.124 69.7659 28.37C69.7659 28.628 69.7959 28.88 69.8559 29.126C69.9219 29.366 70.0299 29.582 70.1799 29.774C70.3299 29.96 70.5279 30.11 70.7739 30.224C71.0199 30.338 71.3229 30.395 71.6829 30.395C72.0429 30.395 72.3459 30.338 72.5919 30.224C72.8379 30.11 73.0359 29.96 73.1859 29.774C73.3359 29.582 73.4409 29.366 73.5009 29.126C73.5669 28.88 73.5999 28.628 73.5999 28.37C73.5999 28.124 73.5609 27.89 73.4829 27.668C73.4049 27.446 73.2879 27.251 73.1319 27.083C72.9759 26.909 72.7779 26.771 72.5379 26.669C72.2979 26.567 72.0129 26.516 71.6829 26.516ZM73.8789 31.214C74.6709 31.472 75.2559 31.868 75.6339 32.402C76.0119 32.93 76.2009 33.578 76.2009 34.346C76.2009 34.922 76.0899 35.444 75.8679 35.912C75.6519 36.38 75.3459 36.779 74.9499 37.109C74.5539 37.439 74.0769 37.694 73.5189 37.874C72.9669 38.054 72.3549 38.144 71.6829 38.144C71.0109 38.144 70.3959 38.054 69.8379 37.874C69.2859 37.694 68.8119 37.439 68.4159 37.109C68.0199 36.779 67.7109 36.38 67.4889 35.912C67.2729 35.444 67.1649 34.922 67.1649 34.346C67.1649 33.578 67.3539 32.93 67.7319 32.402C68.1099 31.868 68.6949 31.472 69.4869 31.214C68.8569 30.95 68.3829 30.575 68.0649 30.089C67.7529 29.603 67.5969 29.018 67.5969 28.334C67.5969 27.842 67.6959 27.383 67.8939 26.957C68.0979 26.531 68.3799 26.162 68.7399 25.85C69.0999 25.532 69.5289 25.286 70.0269 25.112C70.5309 24.932 71.0829 24.842 71.6829 24.842C72.2829 24.842 72.8319 24.932 73.3299 25.112C73.8339 25.286 74.2659 25.532 74.6259 25.85C74.9859 26.162 75.2649 26.531 75.4629 26.957C75.6669 27.383 75.7689 27.842 75.7689 28.334C75.7689 29.018 75.6099 29.603 75.2919 30.089C74.9799 30.575 74.5089 30.95 73.8789 31.214ZM86.8943 31.493C86.8943 32.627 86.7713 33.614 86.5253 34.454C86.2853 35.288 85.9493 35.978 85.5173 36.524C85.0913 37.07 84.5843 37.478 83.9963 37.748C83.4143 38.012 82.7843 38.144 82.1063 38.144C81.4283 38.144 80.7983 38.012 80.2163 37.748C79.6403 37.478 79.1393 37.07 78.7133 36.524C78.2873 35.978 77.9543 35.288 77.7143 34.454C77.4743 33.614 77.3543 32.627 77.3543 31.493C77.3543 30.353 77.4743 29.366 77.7143 28.532C77.9543 27.698 78.2873 27.008 78.7133 26.462C79.1393 25.916 79.6403 25.511 80.2163 25.247C80.7983 24.977 81.4283 24.842 82.1063 24.842C82.7843 24.842 83.4143 24.977 83.9963 25.247C84.5843 25.511 85.0913 25.916 85.5173 26.462C85.9493 27.008 86.2853 27.698 86.5253 28.532C86.7713 29.366 86.8943 30.353 86.8943 31.493ZM84.5993 31.493C84.5993 30.551 84.5303 29.771 84.3923 29.153C84.2543 28.535 84.0683 28.043 83.8343 27.677C83.6063 27.311 83.3423 27.056 83.0423 26.912C82.7423 26.762 82.4303 26.687 82.1063 26.687C81.7883 26.687 81.4793 26.762 81.1793 26.912C80.8853 27.056 80.6243 27.311 80.3963 27.677C80.1683 28.043 79.9853 28.535 79.8473 29.153C79.7153 29.771 79.6493 30.551 79.6493 31.493C79.6493 32.435 79.7153 33.215 79.8473 33.833C79.9853 34.451 80.1683 34.943 80.3963 35.309C80.6243 35.675 80.8853 35.933 81.1793 36.083C81.4793 36.227 81.7883 36.299 82.1063 36.299C82.4303 36.299 82.7423 36.227 83.0423 36.083C83.3423 35.933 83.6063 35.675 83.8343 35.309C84.0683 34.943 84.2543 34.451 84.3923 33.833C84.5303 33.215 84.5993 32.435 84.5993 31.493ZM88.3717 31.637L93.0337 31.637L93.0337 33.491L88.3717 33.491L88.3717 31.637ZM99.2805 36.407C99.6465 36.407 99.9675 36.356 100.244 36.254C100.52 36.146 100.751 35.999 100.937 35.813C101.129 35.627 101.273 35.405 101.369 35.147C101.465 34.889 101.513 34.61 101.513 34.31C101.513 33.596 101.315 33.056 100.919 32.69C100.523 32.324 99.9765 32.141 99.2805 32.141C98.5845 32.141 98.0385 32.324 97.6425 32.69C97.2465 33.056 97.0485 33.596 97.0485 34.31C97.0485 34.61 97.0965 34.889 97.1925 35.147C97.2885 35.405 97.4295 35.627 97.6155 35.813C97.8075 35.999 98.0415 36.146 98.3175 36.254C98.5935 36.356 98.9145 36.407 99.2805 36.407ZM99.2805 26.516C98.9505 26.516 98.6655 26.567 98.4255 26.669C98.1855 26.771 97.9845 26.909 97.8225 27.083C97.6665 27.251 97.5495 27.446 97.4715 27.668C97.3995 27.89 97.3635 28.124 97.3635 28.37C97.3635 28.628 97.3935 28.88 97.4535 29.126C97.5195 29.366 97.6275 29.582 97.7775 29.774C97.9275 29.96 98.1255 30.11 98.3715 30.224C98.6175 30.338 98.9205 30.395 99.2805 30.395C99.6405 30.395 99.9435 30.338 100.19 30.224C100.436 30.11 100.634 29.96 100.784 29.774C100.934 29.582 101.039 29.366 101.099 29.126C101.165 28.88 101.198 28.628 101.198 28.37C101.198 28.124 101.159 27.89 101.081 27.668C101.003 27.446 100.886 27.251 100.73 27.083C100.574 26.909 100.376 26.771 100.136 26.669C99.8955 26.567 99.6105 26.516 99.2805 26.516ZM101.477 31.214C102.269 31.472 102.854 31.868 103.232 32.402C103.61 32.93 103.799 33.578 103.799 34.346C103.799 34.922 103.688 35.444 103.466 35.912C103.25 36.38 102.944 36.779 102.548 37.109C102.152 37.439 101.675 37.694 101.117 37.874C100.565 38.054 99.9525 38.144 99.2805 38.144C98.6085 38.144 97.9935 38.054 97.4355 37.874C96.8835 37.694 96.4095 37.439 96.0135 37.109C95.6175 36.779 95.3085 36.38 95.0865 35.912C94.8705 35.444 94.7625 34.922 94.7625 34.346C94.7625 33.578 94.9515 32.93 95.3295 32.402C95.7075 31.868 96.2925 31.472 97.0845 31.214C96.4545 30.95 95.9805 30.575 95.6625 30.089C95.3505 29.603 95.1945 29.018 95.1945 28.334C95.1945 27.842 95.2935 27.383 95.4915 26.957C95.6955 26.531 95.9775 26.162 96.3375 25.85C96.6975 25.532 97.1265 25.286 97.6245 25.112C98.1285 24.932 98.6805 24.842 99.2805 24.842C99.8805 24.842 100.43 24.932 100.928 25.112C101.432 25.286 101.864 25.532 102.224 25.85C102.584 26.162 102.863 26.531 103.061 26.957C103.265 27.383 103.367 27.842 103.367 28.334C103.367 29.018 103.208 29.603 102.89 30.089C102.578 30.575 102.107 30.95 101.477 31.214ZM107.472 28.892C107.472 29.618 107.658 30.173 108.03 30.557C108.408 30.935 108.942 31.124 109.632 31.124C109.992 31.124 110.313 31.067 110.595 30.953C110.877 30.839 111.114 30.683 111.306 30.485C111.498 30.287 111.642 30.053 111.738 29.783C111.84 29.513 111.891 29.222 111.891 28.91C111.891 28.556 111.837 28.241 111.729 27.965C111.621 27.683 111.468 27.446 111.27 27.254C111.072 27.062 110.835 26.915 110.559 26.813C110.289 26.711 109.992 26.66 109.668 26.66C109.332 26.66 109.029 26.717 108.759 26.831C108.489 26.939 108.258 27.092 108.066 27.29C107.874 27.488 107.727 27.725 107.625 28.001C107.523 28.271 107.472 28.568 107.472 28.892ZM110.424 32.951C110.526 32.825 110.622 32.702 110.712 32.582C110.802 32.462 110.889 32.342 110.973 32.222C110.673 32.414 110.343 32.561 109.983 32.663C109.623 32.759 109.245 32.807 108.849 32.807C108.399 32.807 107.958 32.729 107.526 32.573C107.094 32.417 106.71 32.183 106.374 31.871C106.038 31.553 105.765 31.163 105.555 30.701C105.351 30.233 105.249 29.687 105.249 29.063C105.249 28.481 105.357 27.935 105.573 27.425C105.789 26.915 106.092 26.468 106.482 26.084C106.872 25.7 107.34 25.397 107.886 25.175C108.432 24.953 109.035 24.842 109.695 24.842C110.361 24.842 110.958 24.947 111.486 25.157C112.02 25.367 112.473 25.661 112.845 26.039C113.223 26.417 113.511 26.87 113.709 27.398C113.913 27.926 114.015 28.505 114.015 29.135C114.015 29.537 113.979 29.918 113.907 30.278C113.841 30.638 113.745 30.986 113.619 31.322C113.493 31.652 113.34 31.976 113.16 32.294C112.98 32.612 112.779 32.927 112.557 33.239L109.578 37.487C109.476 37.631 109.323 37.754 109.119 37.856C108.915 37.952 108.684 38 108.426 38L106.383 38L110.424 32.951ZM115.969 31.637L120.631 31.637L120.631 33.491L115.969 33.491L115.969 31.637ZM130.487 35.93C130.727 35.93 130.916 35.999 131.054 36.137C131.198 36.269 131.27 36.446 131.27 36.668L131.27 38L122.342 38L122.342 37.262C122.342 37.112 122.372 36.956 122.432 36.794C122.498 36.626 122.6 36.476 122.738 36.344L126.689 32.384C127.019 32.048 127.313 31.727 127.571 31.421C127.835 31.115 128.054 30.812 128.228 30.512C128.402 30.212 128.534 29.909 128.624 29.603C128.72 29.291 128.768 28.964 128.768 28.622C128.768 28.31 128.723 28.037 128.633 27.803C128.543 27.563 128.414 27.362 128.246 27.2C128.084 27.038 127.886 26.918 127.652 26.84C127.424 26.756 127.166 26.714 126.878 26.714C126.614 26.714 126.368 26.753 126.14 26.831C125.918 26.903 125.72 27.008 125.546 27.146C125.372 27.278 125.225 27.434 125.105 27.614C124.985 27.794 124.895 27.992 124.835 28.208C124.733 28.484 124.601 28.667 124.439 28.757C124.277 28.847 124.043 28.868 123.737 28.82L122.567 28.613C122.657 27.989 122.831 27.443 123.089 26.975C123.347 26.501 123.668 26.108 124.052 25.796C124.442 25.478 124.886 25.241 125.384 25.085C125.888 24.923 126.428 24.842 127.004 24.842C127.604 24.842 128.153 24.932 128.651 25.112C129.149 25.286 129.575 25.535 129.929 25.859C130.283 26.183 130.559 26.573 130.757 27.029C130.955 27.485 131.054 27.992 131.054 28.55C131.054 29.03 130.982 29.474 130.838 29.882C130.7 30.29 130.511 30.68 130.271 31.052C130.037 31.424 129.761 31.784 129.443 32.132C129.125 32.48 128.792 32.834 128.444 33.194L125.51 36.191C125.792 36.107 126.071 36.044 126.347 36.002C126.629 35.954 126.896 35.93 127.148 35.93L130.487 35.93ZM133.072 28.613C133.162 27.989 133.336 27.443 133.594 26.975C133.852 26.501 134.173 26.108 134.557 25.796C134.947 25.478 135.391 25.241 135.889 25.085C136.393 24.923 136.933 24.842 137.509 24.842C138.109 24.842 138.649 24.929 139.129 25.103C139.615 25.271 140.029 25.508 140.371 25.814C140.713 26.114 140.974 26.468 141.154 26.876C141.34 27.284 141.433 27.725 141.433 28.199C141.433 28.613 141.385 28.979 141.289 29.297C141.199 29.609 141.067 29.882 140.893 30.116C140.719 30.35 140.503 30.548 140.245 30.71C139.987 30.872 139.696 31.007 139.372 31.115C140.152 31.361 140.734 31.736 141.118 32.24C141.502 32.744 141.694 33.377 141.694 34.139C141.694 34.787 141.574 35.36 141.334 35.858C141.094 36.356 140.77 36.776 140.362 37.118C139.954 37.454 139.48 37.709 138.94 37.883C138.406 38.057 137.839 38.144 137.239 38.144C136.585 38.144 136.015 38.069 135.529 37.919C135.043 37.769 134.62 37.547 134.26 37.253C133.9 36.959 133.594 36.599 133.342 36.173C133.09 35.747 132.874 35.255 132.694 34.697L133.675 34.292C133.933 34.184 134.173 34.157 134.395 34.211C134.623 34.259 134.788 34.379 134.89 34.571C134.998 34.781 135.115 34.988 135.241 35.192C135.373 35.396 135.529 35.579 135.709 35.741C135.889 35.897 136.099 36.026 136.339 36.128C136.585 36.224 136.876 36.272 137.212 36.272C137.59 36.272 137.92 36.212 138.202 36.092C138.484 35.966 138.718 35.804 138.904 35.606C139.096 35.408 139.237 35.189 139.327 34.949C139.423 34.703 139.471 34.457 139.471 34.211C139.471 33.899 139.438 33.617 139.372 33.365C139.306 33.107 139.168 32.888 138.958 32.708C138.748 32.528 138.445 32.387 138.049 32.285C137.659 32.183 137.134 32.132 136.474 32.132L136.474 30.548C137.02 30.542 137.473 30.491 137.833 30.395C138.193 30.299 138.478 30.167 138.688 29.999C138.904 29.825 139.054 29.618 139.138 29.378C139.222 29.138 139.264 28.874 139.264 28.586C139.264 27.974 139.093 27.509 138.751 27.191C138.409 26.873 137.953 26.714 137.383 26.714C137.119 26.714 136.876 26.753 136.654 26.831C136.432 26.903 136.231 27.008 136.051 27.146C135.877 27.278 135.73 27.434 135.61 27.614C135.49 27.794 135.4 27.992 135.34 28.208C135.238 28.484 135.103 28.667 134.935 28.757C134.773 28.847 134.542 28.868 134.242 28.82L133.072 28.613Z" fill="white"/>
<circle cx="198.5" cy="30.5" r="30.5" fill="#FFFF00"/>
<path d="M198.5 0C215.345 0 229 13.6553 229 30.5C229 47.3447 215.345 61 198.5 61C181.655 61 168 47.3447 168 30.5C168 13.6553 181.655 0 198.5 0ZM209.461 12.1151C208.833 12.0781 208.265 12.4537 207.834 13.1203L203.664 21.0283C203.225 21.9653 203.474 22.9687 204.129 23.6382L206.039 25.5482C206.157 25.7097 206.235 25.8917 206.237 26.0917C205.504 28.927 203.282 31.5422 201.322 33.3407C199.362 35.1392 197.255 37.5742 194.52 38.151C194.182 38.2453 193.768 38.2791 193.526 38.0543L191.307 35.7943C190.541 35.2138 189.433 34.9324 188.615 35.4071H188.578L181.053 39.8489C179.949 40.5412 179.835 41.8793 180.625 42.6933L185.808 47.835C186.573 48.6198 187.59 48.8837 188.578 48.8849C192.947 48.754 197.075 46.6096 200.466 44.406C206.031 40.3569 211.137 35.335 214.342 29.2676C215.571 26.7234 217.015 23.4772 216.877 20.6375C216.865 19.5692 216.576 18.5225 215.824 17.834L210.641 12.6513C210.237 12.3078 209.838 12.1374 209.461 12.1151V12.1151Z" fill="black"/>
</svg>
