<svg width="153" height="121" viewBox="0 0 153 121" fill="none" xmlns="http://www.w3.org/2000/svg">
<path fill-rule="evenodd" clip-rule="evenodd" d="M50.4397 17.9324C50.6797 18.0815 50.5496 17.6042 50.8096 17.8031C51.0596 17.3456 50.0396 16.9081 50.6696 16.4407C51.0596 16.6893 51.1897 16.8384 51.7997 17.0473C51.6697 16.1224 52.7896 15.8241 53.3996 15.665C52.9696 16.3611 54.1096 16.2617 53.4196 16.9081C53.9996 16.8186 54.0096 17.1467 54.4196 16.8981C54.6696 17.3059 54.1297 17.7235 54.4397 18.1412C54.8497 18.4097 54.5496 16.9677 55.1796 17.8827C55.5096 17.5445 55.0496 17.2263 55.4196 16.8882C55.4096 17.1666 55.9597 17.4948 56.2997 17.4948C56.4897 17.823 56.3696 17.9523 56.0596 17.992C56.2296 18.2208 56.3896 18.0815 56.5596 18.2307C56.3896 17.5943 57.2197 17.5943 57.1597 16.8583C57.5397 17.0473 58.4097 17.455 57.7997 17.9622C58.3397 18.1909 58.8796 17.9523 59.4196 18.3103C59.2996 18.4793 59.5496 18.6385 59.6796 18.8075C59.5196 19.0462 59.3496 18.907 59.1796 19.0661C59.5996 19.1854 60.0096 19.3445 60.4196 19.0462C60.7896 19.3744 60.3896 19.7125 60.4296 20.0407C60.6796 20.3788 60.9196 19.4042 61.1796 20.0307C61.1796 20.349 60.8897 20.6473 60.5697 20.6572C61.3197 20.6672 61.6396 20.8959 62.5596 20.876C62.5296 20.4683 62.0497 20.0606 61.7997 19.6429C63.4597 19.613 62.6296 18.0617 64.0096 17.3854C63.4196 18.3898 64.9997 17.7335 64.7697 18.6086C65.2197 18.0617 64.9896 18.2208 65.2496 17.6141C65.4797 17.9423 65.6497 18.5688 66.1297 18.2208C66.4397 18.5489 65.9696 18.8871 65.6496 19.2152C67.8196 17.4152 65.3197 20.2396 67.3797 18.2009C67.2497 18.0815 67.1296 17.9523 66.9996 17.8329C66.6497 17.5445 66.9596 18.2208 66.5096 18.3302C66.2596 18.0219 66.0096 17.9025 65.7596 18.0915C65.6396 17.455 66.5796 17.8429 66.8696 17.455C67.1996 17.634 67.5496 18.4097 67.8696 18.181C68.0796 18.4296 67.5297 18.6782 67.6297 18.9268C67.7897 18.9567 67.9597 18.9965 68.1297 19.1655C68.1597 18.8374 67.6996 18.4197 68.3696 18.4197C68.0296 17.9722 67.6096 18.2108 67.6096 17.6838C68.1096 17.4749 69.0596 18.0617 68.8696 18.6583C69.2896 18.728 69.2397 17.7534 69.5997 17.4152C69.1397 17.3854 69.4497 17.2462 69.0997 16.928C69.3097 16.8981 69.5197 16.9578 69.7197 17.0473C69.9097 16.1423 68.9697 16.7688 68.4597 16.0727C68.7097 15.9036 68.5896 15.7445 68.4496 15.5755C68.9796 15.1578 69.5196 14.939 70.0596 14.939C70.3396 15.1279 70.6897 16.1224 70.6897 15.5456C71.1897 15.2771 70.6297 16.023 70.8197 16.1622C70.4897 16.5003 70.1497 16.0528 69.8297 16.4208C70.2496 16.7688 70.6597 16.3611 71.0697 16.1622C71.0897 15.9534 71.0296 15.7545 70.9397 15.5456C71.3896 14.9092 71.8497 15.3368 72.2997 14.9092C72.7896 15.6451 73.0296 15.4064 73.6696 15.0186C74.1196 15.9136 74.7797 14.7202 74.5497 15.6252C74.6796 15.7047 74.7996 15.6252 74.9296 15.7445C74.8296 15.2175 74.9496 15.4561 75.4196 14.9987C75.6296 15.486 76.1497 15.7445 76.6696 15.7246C76.6296 16.0528 77.0496 16.381 76.6796 16.7191C77.3196 16.2219 77.2697 17.2661 77.7997 16.5799C78.1796 16.9876 78.5596 17.3257 78.9296 17.1865C79.1596 18.0418 78.8397 17.8429 78.8197 18.549C79.1897 18.2506 79.7496 18.2108 80.4296 18.1611C80.7596 17.5943 79.4596 17.7136 79.8096 18.0418C79.3396 18.3003 79.4796 17.5744 79.1796 17.4351C79.4696 17.097 79.7597 17.4053 80.0497 17.3059C80.1796 17.1169 79.8396 16.7788 79.6696 16.9379C79.4796 16.5898 80.3096 16.2716 80.5396 16.7987C80.7796 16.5898 80.6496 16.381 80.8996 16.1721C80.6496 16.0329 80.4096 16.4605 80.1496 15.9335C80.5196 15.7246 80.8997 16.0031 81.2697 15.7942C81.4497 15.4362 80.6096 15.1478 80.3996 15.6849C79.6996 14.9887 81.1296 14.8296 80.9996 14.3125C81.2096 14.1832 81.4197 14.5114 81.6297 14.6804C82.2097 14.2727 81.5596 12.3335 82.3596 13.4373C82.3997 13.1489 82.2696 12.8605 82.2296 12.5721C82.9696 12.3335 83.7196 12.4826 84.4796 13.0395C84.4696 13.2484 84.3397 13.4572 84.1096 13.6661C84.2997 13.676 84.6497 13.8053 84.4897 14.034C84.8697 14.4418 85.2297 13.3876 85.6096 14.1434C85.9596 13.8152 85.6497 13.686 86.0997 13.6462C86.3497 13.1688 85.6297 13.7556 85.4697 13.2782C85.9196 13.0296 85.6097 12.781 85.9597 12.5324C86.3097 13.318 86.1197 13.9744 85.9897 15.0086C86.1597 15.0583 86.3197 15.118 86.4897 14.9987C86.7797 14.6506 86.0996 14.9589 85.9796 14.5114C86.4596 14.213 86.7096 13.2185 86.5896 13.3876C87.1296 12.602 87.1896 13.1191 87.9496 12.5025C87.8596 13.4075 88.5296 12.8208 89.0797 13.3578C89.0897 13.1489 89.2197 12.9401 89.4397 12.7313C89.9697 13.1788 89.2997 13.6362 89.8297 14.0837C89.4497 13.9346 89.0897 14.402 88.7097 13.9744C88.7297 14.3622 89.5597 14.4716 89.0997 15.0882C89.9497 14.7799 90.0097 14.75 90.5797 14.0738C90.4196 14.76 91.8597 15.9733 90.5997 15.8042C90.8197 16.2119 90.7297 16.6296 91.1096 17.0373C91.4397 16.6694 90.7397 16.0528 91.5997 16.0429C91.6297 16.371 91.3196 16.7092 91.3596 17.0373C91.9196 17.3954 92.3296 16.4009 92.0896 16.0329C92.3796 15.8141 92.6697 16.1125 92.9597 16.1423C93.3197 15.7346 92.4296 15.1578 92.0797 15.5357C92.0696 14.4716 93.1597 15.7346 93.5697 15.5158C93.6097 15.5257 93.0797 14.223 92.5697 15.0384C92.1397 14.7998 93.2396 14.5313 92.8096 14.2926C93.6196 14.1633 93.2997 14.9688 93.8197 15.0186C93.8797 14.1534 95.6497 12.6915 95.2997 14.2528C95.0897 13.9644 94.8796 13.8948 94.6796 14.1335C94.8596 14.571 96.0896 14.6009 96.6696 14.3523C96.5696 14.1534 96.3296 13.6362 96.6496 13.1092C96.9096 13.2882 96.9396 14.1633 97.3996 13.5964C97.7696 14.1136 96.6697 14.2628 96.2997 14.9688C96.6697 15.0882 97.0496 15.2771 97.4196 15.0782C97.8396 14.8296 97.3997 14.581 97.4097 14.3324C97.8697 14.0738 97.7396 14.3721 98.0396 14.7003C98.4096 14.223 97.8596 14.213 98.5296 13.9545C98.6596 13.5766 97.5497 13.5666 98.3896 12.8407C98.0996 12.8407 97.8096 12.9799 97.5096 12.4826C97.3496 12.6517 97.1797 12.8208 97.0197 12.9799C96.4697 13.1688 97.6497 11.9655 97.8797 12.1047C97.6197 11.7567 97.7997 10.8716 97.2496 11.2495C97.0196 10.802 97.5797 10.3346 97.8497 9.8771C98.1897 10.2053 98.5197 10.5235 98.8596 10.8517C98.5396 11.3092 98.3996 11.7666 98.2596 12.2241C98.5996 11.7666 98.6997 12.3235 99.1297 12.0848C99.4197 11.7368 98.7497 12.0451 98.6297 11.5976C99.5297 10.7224 99.5797 12.2738 99.9996 11.9456C100.2 11.886 100.72 11.3987 101.25 12.1744C101.57 11.9655 101.3 11.7567 101.12 11.5578C101.67 11.3092 101.89 12.055 102.12 12.2837C101.37 12.1545 101.03 12.8009 100.51 13.1688C100.17 12.9699 100.57 12.7511 100.38 12.5523C99.7597 12.6318 99.1397 12.8108 98.5197 13.1987C98.8596 13.7655 99.1797 12.6418 99.5197 13.4373C99.3897 13.5567 99.2696 13.3876 99.1396 13.318C98.4496 13.865 98.6396 14.392 98.2896 14.939C98.7496 15.1279 99.4296 15.1478 99.0497 15.6749C100.32 15.6152 100.87 14.7699 102.02 14.402C102.57 14.7699 101.9 15.1478 101.91 15.5158C102.2 15.5556 102.49 15.6749 102.78 15.6252C102.91 15.3865 102.57 15.5158 102.4 15.2572C102.57 14.9589 103.32 15.0882 102.77 14.6307C103.1 14.4716 103.43 14.6208 103.77 14.8694C103 15.1777 103.28 15.7047 102.92 16.2418C102.89 15.3467 102.19 16.4009 101.8 16.1324C101.69 16.2915 102.75 16.7887 101.81 16.8782C102.27 17.5545 102.71 16.4307 103.17 16.4904C103.25 17.9025 104.62 16.6992 105.41 16.9578C105.51 16.6296 105.19 16.3014 105.15 15.9733C104.8 16.2219 105.11 16.4705 104.66 16.7191C104.32 16.2716 104 16.8285 103.66 16.2318C104.39 16.0329 104.63 15.8141 103.77 15.118C104.21 14.6904 105.07 14.5313 105.14 14.9788C105.26 14.8495 105.39 14.7302 105.51 14.6009C104.69 14.402 103.77 14.1633 103.89 14.2528C103.83 14.2031 103.81 13.7357 103.88 13.7556C103.62 13.676 103.44 14.1732 103.26 14.1335C103.43 14.1732 102.87 13.6661 102.38 13.5268C102.94 13.6561 104.06 13.0296 102.99 12.6517C103.2 12.4429 103.4 12.234 103.61 12.0252C103.52 13.1092 104.4 13.4572 104.88 14.2329C105.49 14.0042 104.89 13.1788 104.74 13.3677C104.46 12.7313 106.36 13.5766 105.37 13.9744C105.7 13.9346 106.03 13.9246 106.37 13.9644C106.6 14.2926 105.82 14.6307 105.64 14.9589C106.14 14.7103 106.63 14.5611 107.12 14.1931C107.41 14.4418 106.74 14.6904 106.63 14.939C107.01 15.3567 107.38 15.2572 107.75 15.0484C108.11 15.5755 106.72 16.1324 107.15 16.6694C107.83 16.2815 107.87 16.8385 108.4 17.3954C108.56 17.0175 108.52 16.6495 108.01 16.2815C108.17 16.1125 108.34 15.9534 108.5 15.7843C108.37 15.665 108.25 15.5357 108.12 15.4163C108.33 15.2871 108.54 15.6152 108.75 15.7843C108.63 15.9136 108.5 16.0329 108.38 16.1622C108.59 16.381 108.8 16.381 109 16.2815C108.71 15.7942 109.13 14.8395 109.73 15.0384C110.34 15.6451 109.16 15.0484 109.36 15.665C109.61 15.8738 109.85 15.3169 110.1 15.4064C110.55 16.1324 109.39 15.5556 109.49 16.2815C110.51 16.8086 110.74 15.9633 111.73 16.0031C111.85 16.6296 110.91 16.2119 110.62 16.6396C110.75 17.107 110.75 17.1268 110.63 17.3854C111.09 17.6738 110.77 16.9976 111.12 16.8882C111.16 17.1766 111.47 17.455 111.26 17.7534C111.85 17.5147 112.77 17.2462 113.23 16.4904C113.58 16.739 113.28 16.9876 113.74 17.2263C114.24 16.9677 113.68 16.7291 113.48 16.4804C113.85 16.0926 114.21 15.5854 114.59 16.0926C113.76 16.1423 114.93 16.9081 114.11 17.3357C114.44 17.5843 114.77 17.2163 115.11 17.3257C115.62 17.644 115.36 17.9821 115.12 18.3202C114.83 18.171 114.53 17.8727 114.24 17.9622C114.02 18.4197 114.9 18.171 114.75 18.6981C115.8 18.5191 115.47 17.8926 115.97 17.1965C115.96 17.5246 116.63 17.8429 115.98 18.181C116.28 18.8274 116.55 17.644 116.85 18.2904C117.07 17.8329 116.33 17.3854 116.71 16.928C116.81 17.5545 117.72 17.0473 118.21 17.1567C118.41 17.7136 117.57 17.6042 117.35 18.0318C117.43 18.3103 117.84 18.2009 118.23 18.8871C117.9 19.3346 117.57 19.2451 117.24 19.1456C117.08 20.339 117.9 20.1003 118.75 20.6075C119.24 20.0506 118.44 19.4639 117.99 19.623C118.16 19.076 119.48 19.8318 119.74 19.8517C119.94 20.2197 119.08 20.5976 119.63 20.9655C120.05 20.6871 120.86 20.2893 121.61 19.9512C121.79 19.1059 120.75 19.2053 120.24 19.8418C119.73 19.1954 119.24 19.4241 118.73 18.8672C118.81 18.5092 119.21 17.0473 118.59 17.5047C118.3 17.2561 118.97 17.0075 119.08 16.7589C119.29 17.0473 119.5 17.1169 119.7 16.8782C119.3 17.4152 119.46 17.9523 119.1 18.4992C119.84 18.6882 119.82 17.455 120.46 18.1114C119.77 18.1213 120.3 18.7379 119.98 19.1059C120.44 19.434 120.76 18.8075 120.59 18.4793C121.62 18.0617 122.67 18.897 123.7 18.0716C123.45 17.8329 123.2 18.2605 122.95 17.8329C122.8 18.7379 121.54 17.7832 122.07 17.2263C121.77 16.7191 121.49 17.465 121.2 17.3655C121.07 17.5545 121.41 17.8926 121.58 17.7335C121.7 18.5887 120.46 17.5843 120.95 17.1268C120.41 16.6893 120.66 17.6042 120.21 17.3854C119.69 16.6694 121.03 16.4804 121.32 16.9976C121.64 16.7092 121.94 16.4108 121.68 16.1224C121.22 15.7047 121.54 16.7987 121.19 16.371C120.61 15.6351 121.57 14.8793 121.66 14.1335C121.41 13.7158 121.16 14.1534 120.91 14.1434C121.19 13.6263 121.51 13.3777 121.64 12.6517C121.35 12.3633 121.06 12.5125 120.76 12.0451C121.05 12.0252 121.34 11.3092 120.87 10.9313C121.2 10.5335 121.53 10.7324 121.86 10.6727C122.01 10.3445 121.12 10.2848 120.86 10.434C120.51 11.3489 120.41 12.2539 120.4 13.1589C119.69 13.4473 119.22 13.6263 119.3 14.5313C118.88 14.4517 118.47 14.7898 118.05 14.5512C118.37 14.2528 118.67 14.392 118.67 13.9246C118.25 13.1489 117.85 14.5313 117.42 13.9445C117.87 13.3578 118.33 13.7456 118.78 13.0594C117.86 12.9202 117.64 12.8705 116.67 13.2086C116.07 12.8804 116.93 12.5423 116.41 12.2241C116.83 12.1843 117.25 12.8407 117.66 12.4528C118.99 11.2992 117.34 10.9412 118.25 9.84727C118.49 10.0462 118.37 10.255 118.63 10.4639C118.82 10.2152 119.37 9.95667 118.87 9.71799C119.37 10.265 120.39 9.8771 121.23 9.55887C121.43 9.18097 120.66 8.82296 121.34 8.44506C121.05 8.1865 120.76 8.92241 120.48 9.07158C120.18 8.82296 120.18 8.58429 120.47 8.32572C120.01 8.71357 118.9 8.51467 118.86 8.96219C118.29 8.71357 118.57 7.40086 118.58 6.73456C117.59 6.93345 117.61 7.22185 116.98 8.11688C115.97 7.97765 116.04 5.02405 115.09 6.53566C115.3 6.57544 115.5 6.37654 115.71 6.655C115.14 7.93787 114.65 5.84947 114.82 5.30251C115.07 5.19312 115.32 5.18317 115.57 5.29256C115.59 5.04394 115.37 5.02406 115.06 4.55665C115.39 4.44726 115.72 4.34781 116.06 4.79532C116.48 4.41742 116.36 4.04947 116.92 3.67157C116.67 3.38317 116.43 4.05941 116.18 4.17875C116.06 3.97986 116.2 3.77101 116.05 3.56217C115.81 3.77101 115.95 3.97985 115.68 4.18869C115.08 3.78096 115.64 3.36328 114.92 2.96549C114.75 2.86604 114.59 3.13455 114.42 2.97543C114.68 3.49256 114.89 3.82073 115.07 4.82516C114.7 5.26273 114.32 4.61632 113.95 4.96439C114.13 4.68594 114.12 4.49699 113.94 4.21853C113.48 4.26826 113.03 4.82516 112.58 4.60638C112.46 4.79533 112.71 4.97433 112.83 4.855C113.26 5.09367 112.16 5.36218 112.59 5.60085C113.12 5.81964 112.87 5.034 113.33 4.84505C113.74 5.29256 112.88 5.75997 112.73 6.21743C112.48 5.96881 112.23 5.73013 111.97 5.48151C112.13 5.31245 112.3 5.14339 112.46 4.98428C112.18 4.84505 111.03 4.99422 111.83 4.37764C111.46 4.51687 111.08 4.32792 110.71 4.26825C110.33 3.78096 111.33 3.27377 111.69 2.77653C112.11 3.00526 112.52 2.78648 112.94 3.00527C113.04 3.21411 113.04 3.42295 112.82 3.63179C113.32 3.94007 113.36 3.01521 113.57 3.87046C113.78 3.66162 113.98 3.45278 114.18 3.24394C114.01 3.1246 113.98 2.99532 114.05 2.87598C113.08 3.26383 113.34 1.58316 112.18 2.77653C111.49 1.77211 113.2 2.12018 113.65 1.02625C113.9 1.37432 114.15 1.06604 114.4 1.51355C114.62 1.30471 114.63 1.09587 114.52 0.896973C114.89 0.976531 114.9 2.12018 114.29 2.62736C115.35 2.84615 115.15 1.64283 116.26 1.36438C117.59 2.15996 118.4 1.80195 118.77 3.06493C119.19 3.06493 119.98 3.0351 120.02 3.54229C120.22 3.33345 120.43 3.1246 120.63 2.91576C120.67 3.16438 120.81 3.413 121.14 3.65167C121.11 3.94007 120.81 4.23842 120.78 4.52682C121.28 4.64615 121.77 4.2583 122.28 5.00416C122.82 4.79532 122.66 4.49698 123.26 3.99975C123.61 4.23842 122.63 4.50693 123.27 4.7456C122.34 5.06384 121.96 5.24284 121.55 6.24726C121.36 5.99864 121.47 5.75002 121.79 5.5014C121.62 5.26273 121.46 5.4119 121.29 5.26273C121.18 5.83953 120.49 6.42627 120.32 7.01301C120.73 7.01301 121.14 6.48594 121.56 6.50583C121.64 7.14229 120.67 7.43069 120.33 7.51025C120.15 8.22627 121.65 8.05721 121.45 7.37102C121.97 7.25169 122.22 7.68925 122.95 7.84837C123.58 7.30141 123.57 6.76439 123.3 6.23732C123.46 6.19754 123.63 6.15776 123.79 5.97875C124.24 6.29699 123.93 6.73456 123.55 6.72461C124.09 7.21191 124.11 6.72462 124.79 6.70473C124.96 7.36108 124.48 7.26163 124.05 7.46052C123.84 8.13677 124.62 7.57987 124.8 7.94782C125.25 7.6097 124.79 7.29147 125.04 6.95334C126.9 6.9434 127.39 5.00416 129.13 6.03842C128.88 6.78428 128.73 7.30141 128.15 7.54008C128.34 6.93345 127.74 6.81411 128.01 6.42627C127.76 6.23731 127.51 6.3666 127.27 6.68483C127.28 7.05279 127.63 7.42075 127.91 7.7887C128.45 8.12682 128.98 7.16218 129.53 7.63953C128.54 7.73898 129 8.6539 128.55 9.14119C129.14 8.92241 129.15 9.43954 128.56 9.88705C128.98 10.3743 129.38 9.28042 129.81 10.1158C130.05 9.90694 129.91 9.6981 130.17 9.48926C130.38 9.70804 130.59 9.70805 130.79 9.6086C130.85 10.623 129.82 10.4837 129.18 10.4937C129.84 11.3788 131.08 10.3246 131.91 10.2152C132.69 10.1058 131.17 10.5036 131.3 11.339C131.45 10.6727 129.93 11.5279 129.31 11.3688C129.1 11.7169 129.66 11.4086 129.57 11.8661C130.03 12.0152 130.48 11.9158 130.94 11.7268C131.22 12.1743 131.58 12.6318 131.58 13.0793C132.28 12.5622 131.72 11.8859 132.8 11.5777C132.46 11.6771 133.5 12.6915 133.42 11.697C133.75 11.8959 133.48 12.1047 133.3 12.3136C134 11.8661 134.15 12.1843 134.67 12.1744C134.73 12.5821 134.15 13.0097 134.69 13.4075C134.17 12.9998 133.73 13.7456 132.95 13.1788C133.11 13.0097 133.28 12.8406 133.44 12.6815C133.23 12.5522 133.03 12.8904 132.82 13.0594C132.69 13.2683 133.03 13.4672 133.2 13.676C132.91 14.0042 132.63 14.3025 132.34 14.3025C132.98 14.7898 133.33 13.676 133.7 13.6661C133.94 13.865 133.82 14.0738 134.08 14.2826C134.3 14.2926 134.47 14.0539 134.94 13.6561C135.02 13.9445 134.9 14.2329 134.58 14.5313C135.45 14.4219 136.33 14.6506 137.19 14.3721C137.49 14.6108 137.49 14.8594 137.2 15.118C137.77 15.3268 137.63 14.3324 138.06 14.4915C137.09 14.7302 137.13 13.4572 136.44 14.1434C135.95 13.855 136.64 12.9202 136.3 13.0296C136.04 12.5622 136.77 12.7014 136.91 12.4031C137 12.8208 136.65 13.2285 136.43 13.6462C136.89 13.9246 136.57 13.2583 136.92 13.1489C136.92 13.7854 137.82 13.5368 137.93 14.1235C138.18 14.2031 138.43 14.0837 138.67 13.865C138.46 13.8252 138.26 14.0241 138.05 13.7456C138.3 13.3976 138.55 13.6959 138.79 13.2384C138.97 12.8904 138.61 12.3732 138.29 12.7511C137.91 11.8859 138.92 12.423 139.27 11.7467C139.38 12.1246 138.67 13.1489 139.41 13.1092C139.28 13.497 138.92 13.6263 138.8 14.2329C139.56 13.855 139.92 13.2981 140.65 12.8506C141.07 13.0694 141.86 12.781 141.9 13.3279C142.08 13.1589 142.27 12.9898 142.14 12.8307C142.63 12.8009 142.97 13.865 143.39 12.8108C143.84 13.139 143.85 13.4672 143.4 13.8053C143.69 13.9843 143.98 13.6661 144.28 14.1633C144.91 14.1434 144.77 13.9047 145.4 13.7755C145.5 13.9743 145.5 14.1832 145.28 14.392C145.45 14.5213 145.61 14.2628 145.77 14.1434C145.87 14.3523 145.87 14.5512 145.65 14.76C146.33 14.8992 145.63 14.034 146.13 13.7655C146.34 14.1335 146.06 14.5114 146.27 14.8793C146.82 14.8992 146.65 14.213 147.26 14.3721C147.16 14.6605 147.47 14.9489 147.15 15.2373C147.66 15.4163 147.68 14.5909 147.51 14.3622C147.8 14.2826 148.09 14.1534 148.38 14.4716C148.09 14.4915 148.02 14.6208 148.26 14.8395C148.51 15.1279 148.75 14.4517 149 14.3324C149.25 14.6605 148.59 14.9987 148.76 15.3268C148.97 15.4561 149.17 15.118 149.38 14.9489C149.75 15.2373 149.45 15.5257 149.27 15.8141C149.91 15.4263 149.9 16.3213 150.89 16.1622C151.12 16.7489 151.63 18.9965 152.41 18.3699C152.57 18.907 152.06 19.444 152.31 19.981C152.02 20.0307 151.73 19.9014 151.44 19.8716C151.15 20.0904 151.83 20.1998 151.94 20.1103C151.93 20.6075 151.23 21.1048 151.46 21.602C151.06 22.3777 150.63 21.4031 150.22 22.1092C151.61 21.9898 148.46 23.3125 149.1 22.2484C147.55 23.3125 146.7 23.2827 145.25 23.1633C144.72 24.0484 144.09 23.6009 143.9 24.297C144.23 24.3169 144.56 24.0981 144.89 23.7898C144.74 24.2075 144.85 24.6153 144.41 25.0329C144.66 25.2418 144.9 24.6849 145.15 24.7744C145.17 24.9832 145.3 25.1821 145.53 25.391C144.43 25.6694 144.99 26.1567 145.55 27.1213C145.22 27.3103 144.79 27.181 144.81 27.6285C145.02 27.9468 145.23 27.6783 145.43 27.4992C145.22 28.1655 145.68 28.812 144.96 29.4882C145.65 29.6274 145.36 28.7523 145.69 28.4937C146.23 28.991 146.52 29.5578 146.21 30.4727C145.83 30.0551 145.47 30.6219 145.09 30.612C144.97 30.8208 145.12 31.0197 144.97 31.2285C145.47 31.4075 145.95 29.9158 146.46 30.7114C146.47 31.3379 145.83 31.0595 145.47 31.4672C146.41 31.4473 145.8 32.1733 145.61 32.8296C146.43 33.1976 145.86 34.2219 146.5 34.1821C146.13 34.3512 146.63 35.654 145.9 35.8031C145.61 36.1015 146.29 36.0915 146.4 35.7932C146.27 36.4297 145.41 36.5291 145.42 37.2948C146.26 37.6827 146.16 38.8562 145.58 39.6418C145.86 40.0893 146.54 39.6816 146.71 40.2485C146.15 40.8054 146.26 40.1291 145.84 40.1391C145.76 40.7159 145.4 41.3026 145.86 41.8694C144.91 42.5357 143.96 42.5059 143.01 43.023C143.8 43.0429 144.58 42.6849 145.37 42.3766C145.8 43.7092 144.18 45.5291 145.3 46.4639C144.52 46.6927 144.97 47.8264 145.08 48.4429C144.7 48.8606 144.02 49.2783 144.6 49.686C144.14 49.517 143.69 50.0341 143.23 49.8253C143.46 50.0938 143.64 50.4418 142.86 50.4518C143.15 50.8098 143.44 50.5015 143.73 50.3126C143.13 51.2175 141.16 49.9446 140.39 51.7148C139.93 51.6452 139.48 51.7148 139.02 51.6054C139.19 52.0728 138.3 52.1026 138.53 52.3512C136.14 50.8894 131.91 52.1523 131.98 55.5336C131.73 55.6529 131.48 55.6728 131.24 55.7921C131.16 55.9015 131.28 56.5778 131.49 56.2894C130.99 56.2297 129.98 57.3336 129.27 57.5524C129.62 58.3281 128.18 59.5214 128.93 59.9093C127.85 61.3712 126.66 62.8231 126.12 64.275C125.8 63.7977 124.81 64.0562 124.13 64.0562C124.12 64.9115 123.53 65.4286 122.65 65.3093C122.27 65.6872 122.44 66.0552 122.29 66.4231C120.73 66.6121 121.2 69.5656 120.09 69.1778C119.67 69.5159 120.24 69.8342 120.35 70.1623C117.21 70.3215 113.59 70.1424 111.17 72.5093C110.88 72.7977 110.87 72.1314 111.16 72.0121C109.74 73.0065 108.88 74.4983 109.71 75.4927C110.56 75.6717 109.62 74.8463 110.07 74.6176C111.02 74.5778 111.99 75.622 112.94 75.2043C113.86 75.8408 113.54 76.5966 114.2 76.4276C114.28 76.7955 113.66 77.1734 113.59 77.5513C115.13 79.5403 118.53 80.2861 120.84 80.1767C123.1 82.9115 124.1 85.6663 125.3 88.411C125.63 88.5403 125.97 88.6497 126.3 88.8983C126.09 89.1867 126.4 89.4751 126.19 89.7635C129.92 92.727 129.36 95.7502 128.67 98.7635C128.89 101.548 129.18 104.77 127.29 107.197C126.17 107.644 125.06 108.102 123.96 109.345C121.93 109.176 119.91 110.081 117.88 110.538C115.46 109.046 113.06 110.17 110.67 111.125C108.56 110.24 106.89 108.112 104.38 106.252C103.84 105.854 103.07 105.785 102.5 105.407C102.09 105.128 101.82 104.522 101.36 104.303C99.4996 103.428 97.2597 104.263 95.5197 104.75C94.4797 104.382 93.4496 104.671 92.3896 103.428C91.5996 103.189 90.8196 104.203 90.0296 104.074C87.6796 100.922 84.5497 102.811 82.0197 100.464C80.1197 98.6939 78.7296 96.5657 75.8696 96.7049C75.5096 97.0828 75.7796 97.4508 75.5096 97.8188C77.9896 100.464 76.1197 104.333 74.1396 106.998C72.4196 107.376 71.0796 107.425 69.1796 108.052C70.5596 110.787 70.9196 114.098 69.5396 116.465C68.1896 118.822 65.2597 119.23 63.1297 121C61.2097 120.433 59.3197 121.656 57.3797 119.091C54.6597 117.46 51.9996 119.836 49.2896 118.822C47.4896 117.44 45.7096 117.897 43.9196 117.529C42.7796 116.724 39.6896 114.894 40.6296 113.114C40.8496 112.656 39.9696 113.223 40.1296 112.627C40.7796 112.656 40.5497 111.373 41.1197 111.871C42.1397 109.146 45.7197 109.951 46.8297 111.055C46.6197 111.662 46.7196 111.503 47.3396 112.04C46.8296 112.706 47.9196 113.353 47.3696 114.019C48.3296 114.317 49.2797 114.257 50.2397 114.596C54.1397 114.039 55.7297 109.136 58.5997 107.067C60.8697 105.427 62.8396 105.596 65.6796 105.864C65.7096 105.695 65.7496 105.536 65.9196 105.367C63.1596 102.105 64.6897 98.7834 64.7997 95.4817C63.6697 95.1436 62.5396 93.9602 61.4196 94.4077C61.2296 94.1591 61.3397 93.9105 61.6597 93.6618C60.8297 94.0994 59.9996 94.0199 59.1696 93.6917C58.5996 95.2132 57.8596 96.0088 57.2296 97.4309C56.4396 97.4607 55.6597 98.2364 54.8797 98.5746C51.9297 97.3016 51.0597 102.194 48.9697 103.358C48.9897 103.348 47.9496 103.259 48.2296 103.865C46.6196 103.786 44.5997 104.084 43.1096 102.821C42.3997 102.214 42.1996 101.101 41.5797 100.365C41.2797 99.9967 40.1597 99.3105 39.9397 98.7834C39.6597 98.3657 40.6697 97.6398 40.6796 98.2762C41.0896 97.9282 40.7496 97.4011 41.2896 97.4011C40.9996 97.3911 40.9197 97.2619 41.1597 97.0331C40.9497 96.9933 40.7496 97.1922 40.5396 96.9138C40.6596 96.7845 40.7897 96.6652 40.9097 96.5359C40.7297 96.2475 39.9896 96.3967 40.5296 95.9193C40.2796 95.8397 40.0297 95.9591 39.7896 96.1779C39.3997 95.4718 38.8397 95.1834 38.1597 95.5812C38.4097 95.1237 38.3696 94.6663 38.5196 94.2188C37.0496 94.3878 35.9397 93.5425 34.2997 95.0143C34.1597 94.3381 34.3196 94.2983 33.7896 93.7812C33.4397 94.0298 33.7497 94.2784 33.2997 94.527C33.7797 94.8154 33.4596 95.1038 33.9296 95.3823C33.5996 95.7602 33.2697 96.0784 32.9397 95.6408C32.4697 95.9392 32.6197 96.2276 32.3297 96.516C32.7097 96.8541 33.0696 96.1978 33.4496 96.6254C33.4796 96.8442 33.6896 97.0033 33.5896 97.4906C34.6196 97.5304 34.1297 96.7049 34.6897 96.1182C35.4797 96.7646 34.9096 97.4309 35.4596 98.0873C33.2996 98.5149 34.5296 100.683 36.4996 101.289C36.3396 101.628 36.4096 102.165 35.8896 102.165C36.2296 102.483 36.5596 102.95 36.8896 102.652C36.2296 102.602 36.7596 103.796 36.4196 104.392C35.2096 106.431 33.3596 104.989 31.3297 105.576C30.4597 106.57 31.1797 107.555 30.8697 108.549C31.5297 108.529 32.2096 109.206 32.8596 108.768C32.2996 110.15 31.0497 111.692 30.6796 113.253C29.0796 114.476 26.4196 114.367 25.5596 112.209C25.3496 112.169 25.1497 112.368 24.9397 112.09C25.3297 111.383 25.1297 110.687 24.7896 109.991C25.4396 109.206 25.4396 108.032 26.6296 107.614C25.6896 104.183 21.7896 102.871 21.1696 99.6386C22.1496 98.3956 23.0397 97.2519 23.7297 95.7701C24.6297 96.8143 24.2596 96.5657 25.2396 96.7447C25.1596 96.2276 25.1796 95.7801 25.9596 95.0044C24.9296 95.8199 25.7097 93.7215 24.8297 94.6464C25.2097 93.5226 26.0797 92.1801 25.0396 91.4243C25.1597 91.295 25.2897 91.1757 25.4097 91.0464C24.6497 90.9071 24.9996 92.1602 24.4296 92.0508C24.3797 91.2254 23.9396 91.5237 23.3096 92.19C23.4196 91.8618 23.3197 91.5337 23.5497 91.1955C23.0297 91.1458 22.6897 91.7127 21.9397 91.832C21.8097 91.4044 20.5296 90.2408 19.5596 90.9966C18.7696 90.3701 19.2996 90.1911 18.6696 89.3955C18.9596 88.9281 19.2496 89.2364 19.5296 88.769C18.4796 88.948 18.6597 87.7248 17.8997 88.1723C16.8596 86.7303 15.2396 88.1226 14.4196 88.7093C14.3996 88.9182 14.4597 89.1171 14.5497 89.3259C14.2897 89.495 13.0297 89.8033 13.5497 89.0972C13.2197 89.1966 12.8796 88.8486 12.5596 89.3558C12.2196 89.8132 13.2796 90.2508 12.4496 90.7182C13.2296 90.3104 14.1196 90.0917 14.5596 90.569C14.6796 90.4 14.4296 90.2408 14.3096 90.0718C15.1496 89.0375 15.3097 90.4099 16.0497 90.3005C15.3697 91.3845 12.8797 92.1105 13.1096 94.0497C10.1696 98.2265 7.77965 101.976 3.75965 102.582C0.749651 99.9768 3.35965 95.8099 0.649651 92.9657C0.949651 92.2895 0.389648 92.2596 0.139648 91.7326C1.21965 91.653 2.30965 92.379 3.37965 92.4386C3.90965 91.653 4.79965 90.4 3.47965 90.3303C3.27965 89.9624 3.46965 89.5845 3.58965 89.2165C3.24965 88.769 2.92965 89.7038 2.59965 89.4751C1.95965 89.2364 2.93965 88.9779 2.58965 88.7292C2.93965 88.5104 2.63965 89.0674 3.08965 88.9679C4.12965 86.8994 5.59965 87.2375 6.76965 85.2088C7.14965 86.0044 7.61965 85.8552 8.26965 85.6861C8.47965 85.4773 8.48965 85.2685 8.38965 85.0696C8.71965 84.7513 9.05965 85.4574 9.37965 84.811C9.41965 84.98 9.45965 85.1392 9.62965 85.2983C9.64965 84.4033 10.6796 84.2044 11.3496 83.2994C11.0996 83.19 10.8496 83.1999 10.5996 83.3093C10.4696 83.1005 10.7997 82.8916 10.9697 82.6828C11.6397 83.5679 12.2996 83.1701 12.9596 82.4143C12.4596 81.9668 12.1596 81.6684 11.9496 81.6883C12.0796 81.1911 12.6096 80.6938 12.6796 80.1966C12.9796 80.7336 13.2597 79.9977 13.5497 79.8187C13.9697 80.0474 14.3797 80.2563 14.7896 79.5602C14.7896 80.1668 15.4197 79.4806 15.7896 80.0375C15.7997 79.6496 16.5097 79.5104 16.8997 78.9137C17.3197 79.2718 17.7297 79.0927 18.1497 79.1425C17.9097 78.8143 18.4696 78.4762 18.3896 78.148C18.8596 77.8894 18.2896 78.6253 18.7696 78.7646C18.9196 77.8994 19.2196 77.0242 20.3496 76.1491C21.2896 77.1038 22.5496 75.9005 22.4496 75.0054C22.5896 75.3734 22.6996 75.7414 22.8396 76.1193C22.9296 75.9104 22.9296 75.7016 22.7096 75.5027C24.4196 74.4286 26.3297 72.9071 26.5097 71.127C26.5797 71.9425 26.9196 71.2762 27.1396 71.9822C27.4496 71.2762 27.5696 70.5701 27.2396 69.8739C28.3296 69.7248 27.6796 69.2275 28.0896 68.5016C28.6296 68.7104 29.1596 68.0839 29.6996 67.8651C29.9596 68.0242 29.8396 68.1933 29.7096 68.3623C29.9196 68.601 30.1296 68.4717 30.3396 68.7303C29.7496 68.0938 30.5597 67.159 29.6897 66.8806C29.9297 66.4529 30.1896 66.8706 30.4296 66.622C29.3996 66.4032 31.1497 65.9557 30.2896 65.2596C30.5697 64.7424 30.8697 65.4783 31.1597 65.3689C31.4497 65.0408 31.7296 64.7424 32.0196 64.7424C31.3496 64.454 31.6496 64.3247 32.1396 64.3745C32.4296 63.917 31.7496 64.2353 31.6396 63.8872C32.1796 63.4795 32.6596 61.4209 31.9697 61.033C31.9496 60.6551 32.1897 60.2872 32.5797 59.9093C32.9197 60.5557 33.2397 59.8397 33.5797 60.1479C33.8497 59.5712 32.7396 59.0043 33.3096 58.4176C33.4396 58.5369 33.5597 58.6662 33.6897 58.7855C33.8997 57.7214 35.6197 56.1004 36.6497 56.5181C37.0396 56.6772 36.7496 57.7513 37.5296 57.1247C37.7296 58.5568 39.4696 58.6165 40.4196 59.1932C40.0296 59.6805 40.4297 59.8397 40.7997 60.0584C40.2397 61.4805 41.7796 62.4253 41.0996 64.0165C41.7396 63.9966 41.4597 65.8264 41.2597 66.612C40.9097 66.4131 41.3096 66.1944 41.1296 65.9955C40.7496 67.696 39.8797 68.8795 40.6897 70.6993C40.3596 71.9424 39.7596 73.1855 38.9996 74.4286C38.8797 74.3093 39.0497 74.18 39.1197 74.0508C37.5097 75.0154 36.6396 73.9513 34.9896 72.4994C34.5696 72.1413 33.7896 72.9071 33.7396 72.2706C33.8796 73.1358 31.6497 74.6375 31.2896 75.5226C30.9296 76.4077 31.2696 75.9204 30.5596 76.5171C30.1396 76.8751 29.5896 77.8298 29.4596 78.3867C29.3596 78.8342 30.0996 80.6541 29.7496 81.1115C29.3196 81.6485 27.5296 81.1115 27.1396 81.5193C27.1596 83.001 25.0196 83.4088 25.0696 84.8905C26.6096 86.6906 25.2997 88.6497 27.3697 89.8132C26.7597 90.3204 28.3196 90.3005 28.1296 90.7977C28.4096 90.3303 28.7096 90.4696 28.9896 90.1712C29.4896 91.4044 30.5096 90.211 31.3496 89.7734C31.4796 89.9723 31.1497 90.1911 30.9797 90.4C31.5197 90.2408 32.0496 89.9524 32.5896 90.0121C31.4796 89.6939 33.9996 88.5602 33.9196 87.3966C34.1596 88.0828 34.6197 87.7049 35.0497 88.2519C35.3497 87.7745 35.5696 87.7546 35.5396 87.506C36.1197 87.9933 36.9897 86.6508 38.1497 87.3469C38.4096 86.8895 38.4397 86.4419 37.7597 85.9944C38.7896 85.7259 39.0497 84.8309 39.4797 84.2441C39.9297 83.9458 39.6297 84.622 39.9797 84.7314C40.7297 84.6519 41.4596 83.7071 42.1996 83.4685C42.3296 83.2298 41.9896 83.359 41.8196 83.1005C43.0296 81.9668 43.7897 81.4596 44.2697 80.3458C44.7197 80.0474 44.4197 80.7237 44.7697 80.8331C45.1197 79.232 47.1296 78.1778 48.3396 77.6905C46.8596 77.422 49.1896 75.8408 48.6796 74.8364C49.7396 74.6872 50.0896 74.0905 51.0296 73.9414C51.2496 73.653 50.5096 73.3745 50.6496 73.0761C52.0196 72.4496 52.4697 71.0971 52.5997 69.8342C53.9297 69.8839 55.2497 69.506 56.5697 69.0386C57.6497 69.9833 58.5196 68.6507 58.4196 67.9049C58.7296 68.8297 59.1697 67.0397 59.9097 67.6364C60.1297 67.338 59.3996 67.4971 59.5296 67.0198C60.4296 66.254 60.9696 66.0054 61.6196 65.3789C61.5096 65.0408 61.3396 64.5038 61.9796 64.5038C61.8096 64.454 61.6496 64.3944 61.4796 64.5137C61.8796 63.0816 62.8997 62.9524 63.4397 62.0176C63.4597 62.2264 63.5897 62.4253 63.8197 62.6341C64.3897 62.0772 63.7096 62.2562 64.0596 61.6397C64.3596 61.6894 64.9497 62.0673 65.2997 61.6198C65.3896 62.3159 65.6596 62.3756 66.3096 62.5944C66.1696 62.8927 66.2196 63.8176 66.6996 63.7082C66.7996 63.917 65.5097 64.6629 66.4597 64.7026C65.8697 65.3888 65.0596 66.3336 64.4996 67.1988C64.1696 67.0198 63.8296 66.9303 63.5096 67.4574C63.6796 67.4872 63.8396 67.527 64.0096 67.696C64.1696 67.5668 64.1997 67.4474 64.1297 67.3181C64.8597 67.1292 64.2497 68.3226 63.7697 68.1933C64.0597 68.5513 64.3496 67.8054 64.6396 68.3027C64.0096 68.6607 64.1696 69.5458 63.5296 69.1778C63.4496 69.675 63.9397 70.1623 63.2997 70.6695C64.0697 70.7192 64.1396 69.9833 64.7796 69.4165C64.7996 69.864 64.5297 70.2021 65.1597 70.0331C65.4897 70.2319 65.2296 70.4408 65.0396 70.6496C65.9196 70.7789 65.5897 71.2762 66.2997 71.6242C66.1396 71.8629 65.9697 71.7237 65.7997 71.8828C65.5097 72.1016 66.1897 72.211 66.2997 72.1215C66.0696 72.9568 66.6096 73.9016 66.5797 74.3491C66.4097 76.6662 64.6297 77.4021 63.1597 79.0927C61.8297 78.8043 60.5096 79.8485 59.1796 79.1425C58.8896 79.4309 59.0397 79.7193 58.5697 80.0176C58.7397 80.2662 58.8997 80.1469 59.0697 80.0077C58.9197 80.664 58.1896 80.3458 57.8396 81.2607C57.6196 81.7579 58.6897 82.2452 57.8596 82.7425C58.1897 82.9215 58.4797 82.6033 58.4897 83.1104C57.4997 82.7823 57.1597 84.2441 56.7697 84.8607C55.9597 84.98 57.1997 84.0353 56.3797 83.7469C56.1697 83.6176 55.9696 83.9557 55.7596 84.1248C55.4096 83.6773 55.7796 83.2198 55.3696 82.7723C55.0796 82.5436 54.8497 83.9955 55.1297 83.7668C55.4197 84.0055 54.7496 84.264 54.6396 84.5126C53.8396 84.1347 53.7997 83.2894 53.0197 84.1646C52.3097 84.3933 53.6396 83.5977 53.2596 83.4187C52.6896 83.2397 52.8296 84.0651 52.3996 84.2939C52.0696 84.095 52.3297 83.8762 52.5197 83.6773C52.1897 83.5778 51.8597 83.6276 51.5197 83.4386C51.1597 84.0552 50.0396 84.2143 49.2896 84.453C49.2696 84.2441 49.1397 84.0452 48.9097 83.8364C48.4897 84.8209 47.8796 84.1049 47.3096 84.9701C48.4696 84.9602 48.8096 86.4618 50.2896 84.6817C50.8396 84.9204 50.6796 85.0298 51.2896 85.169C50.7496 85.3977 50.2296 86.3823 49.6796 85.8055C48.9596 86.3723 48.9696 87.1679 48.1996 87.0585C48.3696 87.3071 48.5296 87.1878 48.6996 87.0486C47.9896 88.0231 47.1397 89.137 46.1297 90.6685C47.9997 91.8221 49.0997 92.3591 50.8797 92.5878C52.4997 90.221 54.3596 89.495 56.3297 90.5392C56.0797 90.7083 56.1996 90.8674 56.3396 91.0364C57.7896 90.6386 59.2196 89.0972 60.6696 89.127C60.7696 88.958 60.4997 88.7988 60.6597 88.6298C60.0597 89.0872 59.0996 88.5105 58.1796 89.1569C58.0596 89.0375 58.2297 88.9082 58.2997 88.779C57.9097 88.2917 58.9097 86.8696 57.9097 87.1778C58.0997 86.432 57.9997 85.6961 57.3797 84.9602C57.5897 84.7513 57.7897 84.5425 57.9897 84.3336C58.3297 84.6519 58.6697 85.2187 58.9897 84.5723C59.4097 84.9502 59.5596 85.8055 60.3696 85.4176C60.4996 85.2088 60.1597 85.0099 59.9897 84.801C60.2297 84.3436 60.4896 84.6519 60.7296 84.2939C61.2096 84.7613 60.8196 85.3878 61.6096 84.6519C62.2696 85.0795 62.1997 85.169 62.7397 85.5071C63.2697 85.0497 63.0696 84.5922 63.5896 84.1348C64.0196 84.5126 63.8997 84.0055 64.4597 83.7568C64.7497 84.0055 64.0797 84.2541 63.9697 84.5027C64.4497 84.274 64.8596 84.3734 64.2197 84.99C64.5696 85.0994 65.4497 84.1546 65.0797 83.8662C66.2297 83.3591 67.7896 83.4883 68.5396 82.3347C69.9496 83.5878 70.5897 82.2353 71.8797 81.1812C71.8397 81.5093 71.9397 81.8375 71.6396 82.1756C71.8196 82.464 72.5597 82.3148 72.0197 82.7922C73.5097 82.3646 74.4797 81.8176 76.1096 81.6287C76.3697 81.7878 76.2496 81.9568 76.1196 82.1259C76.6196 81.9966 77.0396 81.8176 77.2496 82.4839C77.6197 82.5237 77.9896 82.116 78.3596 82.0961C78.7096 82.295 78.3097 82.5137 78.4897 82.7126C79.3897 82.2751 78.9896 82.8916 79.6096 82.822C79.6897 82.4541 79.0296 82.0861 79.7197 81.7082C79.8196 81.9171 79.8197 82.116 79.5997 82.3248C79.9297 82.2751 80.2596 82.3745 80.5896 82.0662C80.7496 82.8916 82.2597 83.1403 81.6096 83.7867C81.7297 84.0751 82.3897 83.3988 82.0997 83.2894C82.5297 83.5579 82.5097 83.916 83.3596 84.264C84.0797 83.6673 85.0696 83.4386 85.9496 82.1259C86.4996 82.4044 85.7596 82.7027 85.5896 83.001C86.1696 82.8817 87.2597 81.9568 87.4597 82.8519C88.1097 82.5535 86.9197 82.285 87.5697 81.9867C87.7697 82.2353 88.3196 82.474 87.8297 82.7226C87.9996 82.7524 88.1597 82.7922 88.3297 82.9613C88.9797 82.6629 87.7896 82.3944 88.4397 82.0961C88.7697 82.4441 88.8496 82.4044 89.1996 82.832C89.2696 82.1458 89.5396 82.2253 90.1796 81.5789C90.5096 81.7778 90.2396 81.9867 90.0596 82.1955C90.8696 82.1458 91.1096 81.6983 92.3096 82.6629C92.6696 81.8176 93.1396 81.927 93.7896 81.4099C93.7896 82.0563 94.2096 81.2508 94.5396 81.8972C95.2996 81.1115 96.0996 81.5591 95.8896 80.7635C96.5996 80.7436 95.6796 81.2905 96.2796 81.6287C96.5696 81.5889 97.2897 78.9635 97.8797 79.9977C98.0797 79.8088 98.2896 79.4607 98.4996 79.6198C98.7496 79.0729 98.1696 79.3016 98.3596 78.7546C99.1597 78.7745 99.9596 76.8154 100.31 75.7613C99.9296 75.1447 99.5596 75.7613 99.1796 75.1546C99.8896 74.4585 99.9096 74.717 100.29 74.0309C100.29 74.5878 100.82 74.1204 101.16 74.1402C100.99 73.7325 101.32 73.3844 101.77 73.5137C102.13 73.1358 101.33 72.7778 101.38 72.4099C101.13 72.1215 100.89 72.7977 100.64 72.917C100.39 72.569 100.14 72.8773 99.8896 72.4297C100.44 71.5546 101.71 71.6342 102.12 71.4154C102.24 71.3458 102.02 70.5601 102.37 71.4154C102.8 70.6198 103.06 69.9734 103.97 70.0331C103.92 70.8585 104.71 69.8739 105.1 71.127C105.58 71.3756 104.99 70.6596 105.47 70.5005C105.93 70.8684 105 71.2463 105.86 71.6043C105.04 71.7336 105.6 72.5391 104.88 72.6087C105.67 72.8773 105.09 73.0662 104.64 73.3546C105.23 73.7822 105.23 73.2552 105.63 72.8474C106.25 73.2651 106.09 73.3745 106.63 73.3347C107.18 73.8916 106.51 73.7822 106.52 74.1999C106.85 74.4187 107.18 73.6331 107.51 73.4441C107.74 73.6927 107.19 73.9414 107.52 74.19C108.4 74.4286 108.5 73.474 109.37 73.3049C109.16 73.2651 108.96 73.464 108.75 73.1855C109.52 73.1458 109.6 72.559 110.23 71.9325C110.02 71.8331 109.81 71.843 109.61 72.0618C110.22 71.5745 110.76 70.4905 111.58 70.3016C111.22 70.0132 110.91 70.1623 111.45 69.685C111.2 69.685 110.95 69.685 110.7 69.6949C110.69 69.4463 110.69 69.1977 110.69 68.9491C111.1 68.6209 111.52 69.2971 111.93 68.4419C112.31 69.3369 112.92 67.7756 112.93 68.6806C113.77 68.3027 112.84 67.9347 113.29 67.5568C112.88 67.5369 112.47 67.9546 112.05 67.5767C112.34 67.2883 112.62 66.99 112.91 66.7016C113.08 66.7314 113.24 66.7712 113.41 66.9402C113.66 66.6916 113.9 66.443 114.15 66.1844C113.4 65.896 112.66 66.2839 111.9 65.2198C113.16 64.7922 113.34 63.7082 114.11 63.2109C113.16 63.4596 112.21 64.0861 111.26 63.8673C111.87 64.9214 111.32 65.6574 110.18 66.4828C110.17 66.0154 109.88 66.1645 109.55 65.8761C109.71 65.6375 109.88 65.7767 110.04 65.6275C110 65.0706 108.16 66.2441 108.92 65.7667C108.25 66.1844 107.21 67.8651 107.09 68.6308C106.81 69.2772 106.51 68.5413 106.22 69.0187C106.2 68.8099 106.07 68.6109 105.84 68.4021C105.65 68.6507 105.78 68.8994 106.1 69.138C105.92 69.3071 105.73 69.4762 105.86 69.6353C104.71 69.8043 105.73 68.5314 104.72 68.2927C104.97 68.0441 105.21 67.7955 105.46 67.5369C105.09 67.5667 104.71 67.5866 104.34 67.6761C104.38 66.7712 105.49 67.5568 105.95 67.0397C105.97 66.7016 105.28 66.99 105.44 66.3038C105.9 66.2341 106.35 65.8861 106.8 65.6673C107.28 65.18 106.19 65.0308 106.41 64.8021C106.95 64.0463 106.74 65.001 107.28 64.9115C106.12 63.4198 107.54 62.2562 108.84 60.8043C108.97 60.9236 109.09 60.7446 109.21 60.675C109.38 60.8341 109.55 61.0032 109.71 61.1623C109.96 61.2419 110.21 61.1225 110.45 60.9038C110.35 60.5259 109.93 60.2872 109.69 59.6805C110.03 59.1634 110.57 59.6607 110.57 60.0386C111.83 59.6209 112.36 59.3722 113.67 58.885C113.96 58.5866 113.28 58.5966 113.17 58.8949C113.02 58.6861 113.49 58.4772 113.29 58.2783C114.29 58.338 115.28 57.9402 116.27 57.4927C116.4 57.2739 116.06 57.264 115.89 57.3734C116.5 56.359 118.2 56.6872 119.24 56.7071C119.64 56.2297 118.46 56.5678 118.86 56.0905C118.65 55.991 118.44 56.001 118.24 56.2198C118.11 56.0308 118.36 55.8518 118.49 55.9711C118.4 55.643 118.51 55.3148 118.97 54.9767C119.68 55.5932 120.38 55.1855 121.08 54.8275C120.73 54.4198 120.2 54.7579 120.2 54.2209C120.62 54.2905 121.03 54.3501 121.44 53.7137C120.57 53.107 123.13 52.5104 122.16 51.7247C122.52 51.5258 123.16 51.6352 123.15 50.9689C122.83 50.9391 122.26 51.3965 122.9 50.7203C122.69 50.591 122.49 50.9291 122.28 51.0982C122.23 50.9093 122.43 50.5612 122.15 50.7302C123.42 50.0043 123.98 48.5722 125.09 47.2297C124.25 47.5081 124.65 46.5733 124.45 46.1258C124.24 46.1059 124.04 46.1656 123.83 46.2551C124.11 45.3501 122.46 45.8971 123.44 44.9026C122.85 44.9822 122.15 45.549 122.71 46.1457C122.9 46.265 123.08 46.0164 122.96 45.8971C123.64 45.9568 122.49 46.8021 122.1 47.0208C122.59 46.0463 121.52 46.6927 120.98 46.9114C120.92 46.5833 121.12 46.2451 120.72 45.9269C121.21 45.7579 121.51 45.9468 121.72 46.4043C122.38 45.7777 120.79 45.37 121.83 45.0418C121.33 44.8032 120.84 45.559 120.35 45.8076C119.88 45.0617 119.46 44.6938 118.6 44.8429C118.17 44.6043 119.27 44.3358 118.84 44.0971C119.4 43.8684 120 44.823 120.22 45.191C121.08 44.9722 120.22 44.3656 121.07 43.8186C121.19 43.3413 120.05 43.9877 120.44 43.202C120 43.4507 119.65 43.7788 119.21 43.9579C119.46 43.0628 119.53 43.1722 119.56 42.3468C119.34 42.0087 118.24 42.307 118.8 41.6109C118.22 41.5313 118.17 42.9534 117.31 42.128C117.92 42.0485 118.12 41.7203 118.29 41.1236C117.94 40.6363 116.33 40.5567 117.4 39.5225C117.81 39.8904 117.37 40.2683 118.04 40.6264C118.1 39.7214 118.19 39.9402 119.02 39.6219C118.27 39.6915 118.04 39.2341 117.14 38.7766C118.08 38.6971 118.31 38.7269 118.87 37.7623C117.73 37.9413 116.93 37.623 116 37.1855C115.87 37.0164 116.12 36.8573 116.24 36.6882C114.43 37.2551 113.44 33.5755 111.61 34.8882C111.81 35.0871 111.72 35.6042 111.13 36.1313C111.31 36.6683 111.5 37.1954 110.78 37.7424C109.77 36.9468 108.89 37.7523 108.8 38.7567C108.43 38.4683 108.73 38.1799 108.91 37.8915C108.33 38.0407 108.32 38.2893 107.91 37.9015C107.71 38.7667 106.76 38.5678 106.56 39.2838C107.72 39.1446 105.82 39.6319 106.57 40.2683C106.04 40.865 105.61 40.8949 105.34 41.2728C105.5 41.2728 105.41 42.2573 105.84 41.7601C105.43 42.2971 105.33 43.2219 104.37 43.2617C104.27 43.8485 105.19 43.3612 105.49 43.6197C104.94 44.0871 104.12 44.2164 103.77 45.37C102.04 44.7137 100.77 47.896 98.9496 47.7866C98.8696 48.0849 99.1696 47.9358 99.3297 48.4032C98.7096 48.8208 98.9897 49.2286 98.5997 49.6463C98.3697 48.9203 97.6597 48.9302 97.1096 49.6662C97.3596 50.0043 97.5996 49.0297 97.8596 49.6562C97.8297 50.0739 97.3097 50.4916 97.3797 50.8993C97.9297 51.0783 97.6897 50.2529 98.2397 50.0242C98.4297 50.3126 98.1197 50.601 98.6297 50.8894C97.6997 50.8894 98.1096 51.9435 98.3996 52.6297C98.6996 52.2916 99.0097 51.9634 98.6396 51.6352C99.3196 51.5954 98.7696 52.6198 98.7796 52.9977C99.1096 53.1269 99.4496 53.2363 99.7796 53.475C99.3696 53.8728 98.9496 53.1866 98.5396 53.9822C99.3996 54.0021 99.4296 54.6783 99.6796 55.3247C100.32 55.7424 100.18 55.9811 100.81 55.6827C101.07 56.1303 101.33 56.5877 100.7 57.0452C100.98 56.9159 102.28 57.1347 101.46 57.7811C101.63 57.9004 101.79 57.6518 101.95 57.5325C102.5 57.9004 102.28 58.2684 102.84 58.6363C102.03 58.5866 101.72 59.3126 101.74 60.0087C101.45 59.8695 101.15 59.1435 100.86 59.4021C100.67 59.1535 100.78 58.9049 101.1 58.6562C100.35 58.0794 100.11 57.7711 99.2197 57.5623C98.7597 57.8607 98.8997 58.1391 98.6096 58.4374C98.7197 57.5524 97.6897 57.5026 97.0997 56.9756C97.2197 56.8463 97.3496 56.7269 97.4697 56.5977C97.2197 56.18 96.9697 56.6175 96.7197 56.6076C95.6796 54.3302 92.6396 58.2684 91.5396 60.138C91.3596 59.9292 91.2197 58.5568 90.6396 58.2982C90.3496 58.2584 90.0597 58.3877 89.7697 58.4374C89.7297 58.0695 90.5997 58.2386 90.3797 57.5623C90.0797 57.7314 89.6397 58.2087 89.2697 58.6861C88.6597 58.3678 89.3796 57.7314 88.6396 58.0695C88.6796 57.7413 88.5797 57.4131 88.8797 57.075C89.0497 57.264 89.2197 57.443 89.3797 57.3137C89.2897 57.1148 88.7897 56.7071 89.4897 56.1999C88.7997 55.5932 89.0797 57.4827 88.3797 56.8363C87.8597 57.2938 88.5396 57.7413 88.0296 58.1988C88.1296 57.3336 87.0097 57.5225 86.4097 57.8507C86.3397 57.4231 85.8397 57.5524 86.0197 56.9855C85.4997 56.9457 86.0296 57.9303 85.2896 57.98C85.5896 57.0651 85.6096 56.1601 85.9996 55.2452C86.4196 55.822 86.8396 55.822 87.2596 56.2198C87.0996 56.2595 86.9297 56.2993 86.7697 56.4684C87.5197 56.8164 87.6496 55.7424 88.5096 56.6971C88.9196 56.2397 88.6596 55.7921 88.6196 55.3347C89.0696 55.0363 88.7697 55.7126 89.1297 55.822C89.4297 55.633 88.9496 54.8573 88.6196 55.0861C88.4496 54.7181 89.1496 54.3402 88.9796 53.9722C88.3896 54.5888 87.4797 54.0816 86.8797 55.3645C86.4997 54.738 86.8697 54.549 86.7397 53.7535C87.3797 53.5645 87.3796 54.559 88.1096 54.1115C87.8397 53.4352 88.6597 53.4651 89.0997 53.3557C89.5197 52.9977 88.4196 53.3258 88.8396 52.8684C88.5096 52.9877 88.1797 52.9977 87.8497 52.8783C87.4997 52.3313 88.8097 52.5501 88.4597 52.0032C88.9397 52.2717 89.8596 51.675 89.9496 52.2319C90.0696 52.0628 90.1997 52.033 90.3197 52.1026C90.5097 51.854 90.3796 51.6054 90.0596 51.3667C90.5896 51.1579 90.7796 50.8595 90.5396 50.3722C90.7496 50.1833 91.8596 50.5214 91.2896 50.8595C91.4596 50.9092 91.6196 50.9689 91.7896 50.8595C92.0096 50.4418 91.0097 50.0441 91.5197 49.6264C91.7297 49.8352 91.9396 50.0341 92.1496 50.233C92.8696 48.9601 93.0197 47.2595 93.7197 46.3744C93.3896 46.2054 93.0596 46.9711 92.7296 46.3844C93.3296 45.728 92.7296 45.8076 92.5896 45.2706C93.5096 44.6938 93.0896 46.2949 94.0896 45.7479C93.6496 45.4993 93.8997 44.6341 93.8197 44.0175C93.4897 44.117 93.1597 43.9976 92.8197 43.5402C94.0397 43.9181 93.9996 42.3866 95.1796 42.8938C95.2596 42.7645 95.1796 42.6451 95.2997 42.5159C95.0497 42.2275 94.7997 42.2275 94.5497 42.5258C94.5997 42.1479 94.4497 41.7799 94.9097 41.402C95.5597 41.6208 95.9196 41.2131 96.7796 41.2529C95.9796 40.4672 97.6196 40.8451 98.2596 40.2385C98.0096 40.0595 97.7597 40.1788 97.5197 40.4971C97.1897 40.0496 96.7597 40.2882 96.7697 39.7612C97.2197 39.3435 97.6797 39.7214 98.1297 39.3733C98.5397 38.8065 97.4596 38.1203 98.6096 37.8816C98.2197 37.9711 96.6996 37.8816 97.1096 37.1556C96.8997 36.917 96.6896 37.0462 96.4796 36.7877C95.4796 37.0661 94.4996 37.6628 94.3896 38.6672C93.3997 39.1645 92.3096 39.2241 91.6696 39.9402C91.5496 39.6915 91.5297 39.4429 91.4097 39.2042C91.0097 39.8308 91.1696 40.0694 91.4296 40.4473C91.0196 40.6562 90.6096 40.9545 90.1897 40.4573C90.0696 40.6264 90.3196 40.7855 90.4397 40.9545C90.1096 41.3225 89.7796 40.9247 89.4397 40.9645C89.0897 41.2131 89.3996 41.4617 88.9496 41.7103C89.1196 41.8297 89.2796 41.581 89.4496 41.4518C88.8196 41.9192 87.6096 42.8043 86.6196 43.5899C86.4396 44.296 83.9496 47.2197 83.0596 47.717C81.0596 48.8507 78.6297 45.9369 76.8497 48.2938C76.6397 48.5822 76.9497 48.8706 76.7397 49.159C76.9097 49.1888 77.0697 49.2286 77.2397 49.3976C76.6197 49.2882 75.9997 49.7258 75.3797 50.2827C74.9597 49.875 74.1697 50.1435 74.1297 49.5568C73.2497 50.054 72.8697 51.2474 71.5497 52.1921C70.5997 52.8783 68.4696 52.759 69.5896 54.4396C68.0196 55.991 69.8496 57.4927 68.5296 59.0341C68.9896 59.3623 68.8496 59.6905 69.0396 60.0187C68.7096 60.0286 68.5896 60.317 68.6796 60.6452C67.8496 60.9336 67.0297 61.0728 66.2097 61.9181C66.0897 61.7988 66.2597 61.6695 66.3297 61.5402C64.8496 59.8695 64.3997 57.5524 63.8896 55.5037C62.5796 55.8717 60.7396 55.8717 60.1796 57.5325C59.5096 57.1844 58.8596 57.9899 58.1996 58.2982C57.8596 57.8507 57.5296 58.0894 57.1996 57.5722C56.9096 57.9004 56.6296 58.1988 56.3396 58.1988C56.1296 57.4827 56.0396 57.4827 55.3297 56.7269C55.4496 56.5977 55.5796 56.4783 55.6996 56.349C55.5696 56.2297 55.4496 56.4087 55.3297 56.4783C55.4597 54.9468 53.3296 54.9866 53.4296 53.9026C52.3296 54.5192 51.9496 52.4606 50.9397 53.4452C51.6096 52.4408 49.9797 53.4054 50.7997 52.58C50.3797 52.3612 49.9597 52.0131 49.5497 52.1026C49.3697 51.4761 49.5097 51.1081 49.1597 50.7501C49.7897 51.0684 49.6496 50.5015 50.2796 50.6109C50.6196 50.2628 49.6397 50.5711 50.2697 50.1137C50.0197 49.7755 49.7797 50.7501 49.5197 50.1236C49.8397 49.4673 50.1896 50.1733 50.5096 49.865C50.6596 50.1137 50.2297 50.3623 50.7697 50.601C51.1497 50.7402 50.9496 49.4474 51.6396 50.4617C52.2496 49.7656 51.1797 49.865 51.3797 49.2286C51.8997 49.2584 52.2497 49.6463 52.9897 48.5921C53.5397 49.4175 54.0696 48.6816 54.6096 48.4429C54.9897 48.7015 55.3597 48.8308 55.7397 48.801C55.9497 48.1844 54.9496 48.8109 55.1096 48.1943C55.2896 47.9855 55.6396 47.7766 55.4796 47.5678C55.7696 47.5181 56.0597 47.8164 56.3497 47.6772C56.7797 48.1247 56.2096 47.896 56.1096 48.4231C56.8497 48.3534 56.7696 47.6871 57.8396 47.1601C57.6296 46.9214 57.4197 47.0606 57.2097 46.7921C57.0897 46.9214 56.9596 47.0407 56.8396 47.17C56.4496 47.3192 57.1297 46.4341 57.3197 46.1755C56.8397 46.1159 56.6796 46.8717 56.4496 46.0661C57.2296 46.1358 56.9696 45.4396 57.5596 44.9424C57.0296 44.6242 57.1197 44.286 57.2997 43.9579C57.8797 43.8982 58.4596 43.6695 59.0296 43.1921C59.1496 43.4407 59.1596 43.6893 59.2896 43.928C59.7696 44.1766 59.1796 43.4606 59.6496 43.3015C60.3796 44.2264 60.5896 44.1468 61.6496 44.2661C61.9396 43.9777 61.7896 43.6893 62.2596 43.391C61.9696 43.1324 61.6796 43.8683 61.3996 44.0175C61.5496 43.2518 60.7397 43.1722 61.1297 42.5358C60.8797 42.4264 60.6297 42.4363 60.3797 42.5457C60.2897 42.0087 61.3096 41.4617 60.9796 40.9247C60.6496 40.8451 60.3197 41.3225 59.9897 41.4319C60.0097 41.054 60.0197 40.686 60.0997 40.3181C61.8697 38.9059 62.6696 39.0849 63.1796 37.6827C63.4096 37.5534 63.2796 37.802 63.4296 37.9313C63.5096 37.275 64.8096 36.5888 63.8996 35.9424C64.1796 35.4352 64.4797 35.7435 64.7697 35.5645C64.8997 35.7733 64.5696 35.9821 64.3996 36.191C64.5896 36.2308 65.1496 36.3501 64.6496 36.6783C65.2896 36.6982 64.8697 35.6937 65.4996 35.3059C65.2096 34.9479 64.9097 34.8285 64.6297 35.1965C64.4397 34.7689 65.2697 34.8882 65.4897 34.3214C65.5297 34.8584 65.6097 34.7888 65.6297 35.4352C66.0197 35.4551 66.6497 33.9335 67.3497 33.9236C67.6597 34.2518 67.1896 34.5899 66.8696 34.918C67.3996 34.8683 68.0497 35.6838 68.3797 35.8926C68.5597 35.6042 68.4197 35.3158 68.7397 35.0274C68.3797 35.6142 69.3697 35.6042 69.2397 35.0175C69.4497 34.9877 69.6597 35.0473 69.8596 35.1368C70.2496 35.465 69.5796 36.2407 70.3696 35.8727C70.6596 36.1214 69.9897 36.37 69.8797 36.6186C70.7797 36.4794 70.9097 35.286 71.4697 34.739C71.0897 35.5844 72.1096 35.7335 72.7197 35.2164C72.7496 35.8429 73.0696 35.7037 73.1096 36.3302C73.3997 36.4098 73.6896 36.2805 73.9796 35.9523C72.6896 35.9026 74.1697 34.5899 74.8497 35.8131C74.3097 35.8131 74.0996 36.4495 74.1196 36.8175C74.4696 36.7181 75.1797 35.654 75.4897 36.6783C76.0197 36.3998 76.5497 35.4551 77.0997 35.7932C77.0397 36.3501 76.3597 35.8926 76.2397 36.6683C76.5297 36.8473 76.8196 36.5291 77.1196 37.0263C76.8796 37.275 77.3097 37.5236 76.8797 37.7722C76.8397 37.5236 76.6996 37.275 76.3696 37.0363C76.1396 37.2054 76.2797 37.3645 76.1297 37.5335C76.5497 37.8915 76.9697 38.17 77.3797 37.7623C77.4197 38.6971 76.3997 38.0606 76.0197 38.3987C75.8797 38.8761 76.7597 38.7567 77.0197 39.1247C77.4297 38.7468 77.0997 38.3788 77.6297 38.0009C77.6697 38.17 77.7097 38.3291 77.8797 38.4882C78.4097 38.1501 78.1696 37.8219 78.6096 37.4938C78.6897 37.7822 78.8297 38.0705 78.4996 38.3589C78.7896 38.717 79.0896 38.5877 79.3696 38.2197C79.1496 38.6772 79.0696 39.1346 78.7596 39.5921C78.2096 39.5822 78.5196 38.8661 78.3696 38.4783C78.0796 38.2297 77.7996 38.9556 77.5096 39.1048C77.7196 39.1943 77.9297 39.1943 78.1297 38.9755C77.9597 39.8009 78.1896 39.3932 77.6496 40.2186C78.1296 40.9943 78.4196 41.3523 79.1696 42.1777C79.7096 42.0783 80.2496 42.317 80.7796 41.5413C81.5696 42.0783 82.7397 41.5313 83.1297 40.6462C83.1697 40.8054 83.2097 40.9744 83.3797 41.1335C83.7397 40.4076 84.2097 40.149 84.8497 39.6319C85.3597 40.2882 85.7696 39.3634 85.9796 40.2385C86.1896 39.9899 86.3096 39.7413 86.2197 39.4926C86.7697 39.2838 87.3897 39.3733 87.3497 40.0993C87.5997 40.2087 87.8497 40.1987 88.0997 40.0893C88.5497 39.6717 88.0396 39.2639 88.0797 38.8462C87.7496 38.538 87.4196 39.254 87.0797 38.6076C87.1897 38.1501 87.8697 38.4484 87.5697 38.1103C87.6797 37.7623 88.3697 38.7368 88.0697 38.1004C88.4897 37.9413 88.0996 38.8263 88.5797 39.0849C88.5797 38.5181 89.4496 38.1899 89.9296 37.454C90.4796 38.2396 91.0196 38.17 91.5596 38.0507C91.9596 37.5733 90.7796 37.9114 91.1796 37.4341C90.9296 37.2551 90.6796 37.3744 90.4397 37.6926C90.2697 37.5136 90.0997 37.3247 89.9397 37.454C89.4197 36.4495 91.6196 36.728 90.6696 35.9623C91.3896 35.4451 91.3997 36.7777 92.1696 36.191C92.0496 36.8374 92.7096 36.7578 92.8096 37.2948C92.4896 37.3744 92.1997 37.6827 92.1897 37.1755C91.5897 37.5534 92.3196 37.9114 91.5797 38.2993C92.0797 38.0904 92.5797 38.3689 93.0697 38.0308C93.1497 37.6628 92.4896 37.2949 93.1796 36.917C92.7696 36.3103 92.7596 36.4794 92.1696 35.9424C92.4596 35.6142 92.7496 35.7435 93.0396 35.5645C93.1696 36.2705 94.1497 35.8628 94.6597 35.4252C94.8897 35.7136 94.5797 36.002 94.5497 36.2904C94.7997 36.5788 95.0396 35.9026 95.2896 35.7832C95.5496 36.3103 95.6597 36.0716 95.7997 36.5192C96.2697 36.7678 96.1296 36.4694 96.4196 36.1413C97.0896 36.7379 97.7596 36.8374 98.4196 36.6087C98.5396 36.4396 98.2896 36.2805 98.1597 36.1214C98.7397 35.9821 99.3196 36.1611 99.8896 35.3556C100.22 35.8429 99.4797 36.3501 99.4097 36.8473C99.0797 37.1556 98.7397 36.549 98.4097 36.8573C98.7797 37.812 99.8896 37.096 100.39 36.0915C100.78 36.539 101.49 35.6937 101.51 36.4495C101.83 36.2407 101.56 36.0319 101.38 35.833C102.15 35.7832 102.24 36.002 102.87 35.3158C102.5 34.8285 101.88 35.9225 101.87 35.0871C101.26 35.4551 101.44 36.0816 100.89 36.0915C101.1 35.6937 100.58 35.3954 100.13 35.3556C100.47 34.7689 100.57 34.1921 100.11 33.6252C100.4 33.4363 100.7 34.0031 100.98 33.486C100.69 33.9037 100.92 34.3114 100.75 34.7291C101.91 34.5004 102.31 33.1976 102.83 32.3523C102.49 32.044 102.17 32.76 101.83 32.1136C101.92 32.6506 101.39 33.1976 100.85 33.118C101.19 32.5413 101.34 32.7899 101.83 31.865C100.89 31.7158 101.93 31.5965 101.07 31.1291C101.27 30.8109 101.48 30.8805 101.69 30.7512C101.82 30.9899 101.57 30.8506 101.44 30.9998C102.02 31.2783 102.89 32.0639 103.68 30.97C103.7 31.4772 104.65 31.7457 104.07 32.3225C104.4 32.5711 104.68 31.8451 104.68 31.6959C104.51 31.6462 104.35 31.5866 104.18 31.7059C104.06 30.9799 105 31.686 105.29 31.0694C104.83 30.6517 104.38 31.149 103.92 31.2087C103.93 30.8805 103.49 30.5523 103.16 30.2241C104.08 29.5479 102.4 28.9114 102.89 28.2451C102.02 28.6926 101.17 29.6772 100.29 28.9015C100.04 29.0705 100.16 29.2296 100.3 29.3987C99.6597 29.0705 99.4796 29.1998 98.6796 29.2992C98.8396 29.17 98.8697 29.0506 98.7997 28.9313C99.1396 29.1103 100.2 28.6827 100.91 28.7821C101.03 28.6131 100.78 28.4539 100.65 28.2948C101.28 28.2551 101.14 28.5335 101.78 28.9015C102.25 28.6131 101.92 28.3247 102.39 28.0263C101.93 28.1258 100.92 27.9169 101.14 27.3004C100.66 27.0816 100.65 27.8672 100.4 28.0562C100.02 27.728 100.43 27.3998 100.39 27.0617C100.05 26.9125 100.34 27.7976 99.6597 28.0562C99.5497 27.5987 99.6296 27.1512 100.26 26.6838C99.4496 27.1611 98.8797 27.8075 98.1597 27.8274C97.6096 27.728 98.3996 27.2009 97.3996 26.8429C97.9396 26.5147 97.7796 26.4053 98.3896 26.3357C98.1396 25.9081 97.8896 26.3357 97.6396 26.097C97.4496 26.8727 97.0296 26.4153 96.5296 26.9821C96.2996 26.4948 96.1297 26.1965 95.6597 26.8727C95.3697 25.9678 94.2296 27.1711 95.0296 26.2661C94.4796 25.9578 94.6497 26.8827 94.0296 26.0274C94.3196 25.8385 94.6096 25.9777 94.8996 25.6495C94.4796 25.2915 94.0796 26.1667 93.6496 25.6694C93.9796 25.212 94.3196 25.7589 94.6396 25.1622C94.3796 25.0528 93.1096 25.2915 93.6396 24.6749C93.3896 24.4661 93.1496 25.023 92.8996 24.9335C92.6896 24.6849 93.2396 24.4363 93.1396 24.1876C93.1897 24.2672 91.5396 24.6849 92.3896 23.949C91.5896 23.8097 92.2896 24.6849 91.9097 24.9434C91.7397 24.8937 91.5797 24.8341 91.4097 24.9534C91.8097 24.7545 91.5097 24.2374 91.6396 23.7103C91.4496 23.6307 90.6696 24.118 90.8996 24.2175C90.6096 24.297 90.7397 23.9987 90.2697 23.8595C90.8897 23.9689 91.1396 23.7302 91.4996 23.1037C90.8297 23.3921 90.1096 23.8794 89.3896 23.7501C89.3896 23.1037 89.6896 23.8495 90.0096 23.3722C90.2296 22.9048 89.4897 23.2329 89.6297 22.7556C89.4397 23.5711 88.9096 22.8153 88.3896 23.2628C88.3297 22.4075 86.9096 23.3423 87.2596 22.4075C86.8796 22.2385 86.5196 23.2031 86.1396 22.5467C86.3796 22.1191 86.6397 22.5368 86.8797 22.2882C86.3897 21.9003 86.2297 22.328 85.9996 21.6816C85.9596 22.0495 85.9196 22.4274 85.3896 22.8053C85.0497 22.3578 84.7197 22.4672 84.3896 22.5666C84.1596 22.0992 84.8996 22.4075 84.7596 21.9401C84.4296 21.7213 84.0997 22.507 83.7697 22.6959C84.0597 21.6219 82.3396 22.3876 83.1496 23.0738C82.2196 22.8451 81.4997 21.6219 80.2697 21.7512C79.4597 18.8572 77.6196 22.0694 76.1696 22.1788C76.5996 23.0639 75.6896 22.7854 74.9496 23.9291C74.5596 24.2274 74.5497 23.5512 74.9397 23.4318C74.4097 23.2131 74.6496 23.9987 74.1996 24.1876C73.8996 23.5213 72.6596 23.9191 71.9496 23.7202C70.4796 25.1224 70.4696 25.5998 69.2596 27.2208C69.5396 28.4142 68.8296 29.697 67.3096 30.2142C66.4396 28.981 63.5297 28.2153 63.0797 30.5125C61.2997 30.781 57.4096 30.7711 57.8996 33.7943C56.0596 34.8087 54.7096 35.0672 53.0596 34.7192C50.9796 32.4716 52.2697 29.528 53.2097 27.2904C53.1797 26.3755 52.3097 25.6296 51.9397 25.3313C51.7697 25.2119 51.6096 25.4606 51.4496 25.5799C51.0296 24.8738 50.6196 25.4407 50.1996 24.8539C50.7096 24.0981 50.9496 23.8893 51.6796 23.6009C51.2096 24.7545 53.1297 24.0385 53.8197 25.1821C54.4797 24.5357 53.7396 24.1876 54.6696 23.8097C53.7696 24.3965 54.0196 22.5666 52.9196 23.3423C52.8896 23.1335 52.9496 22.9246 53.0396 22.7258C52.5396 22.8849 52.0397 22.5965 51.5497 22.9943C51.2197 22.6661 50.7396 22.3479 51.0396 22.0097C50.4996 22.1689 49.9696 22.3976 49.4296 22.3976C49.6896 21.4827 48.7596 22.5368 48.3096 22.0396C48.7496 21.5423 48.9197 21.244 48.2997 21.0451C48.4997 20.7269 48.7096 20.7965 48.9196 20.6672C48.6696 20.2793 48.4196 20.2793 48.1696 20.6771C48.1296 20.4882 47.9896 19.9313 47.6696 20.4385C47.5596 20.1103 48.0097 19.7722 47.4097 19.4539C47.7797 19.1357 48.1596 19.434 48.5296 19.5633C48.9396 18.1014 46.8797 18.1213 47.7397 16.5998C48.4597 17.0075 48.9696 17.9224 50.1196 17.4351C50.0996 17.8926 50.6497 17.5843 50.4397 17.9324ZM93.2197 15.8937C93.5497 16.2418 93.6796 15.9335 93.7197 16.381C94.2197 16.0826 93.9097 15.8042 93.8297 15.5158C93.6396 15.7744 93.4296 15.655 93.2197 15.8937ZM95.5697 14.75C96.0797 15.0285 95.9396 15.3268 95.9496 15.6152C96.1696 15.4064 96.2997 15.1976 96.3197 14.9887C96.0697 14.6705 95.8197 14.5611 95.5697 14.75ZM104.8 16.1125C104.88 15.3865 105.74 15.9633 105.41 15.2373C105.2 15.3467 105 15.3368 104.79 15.118C104.34 15.4661 104.35 15.7942 104.8 16.1125ZM116.75 6.68483C117.4 5.80969 118.08 6.84395 118.73 5.91909C118.02 5.79975 117.6 6.17765 117.35 5.32239C117.02 5.63068 116.69 5.63068 116.35 5.33234C116.03 5.58096 115.9 5.82958 115.86 6.0782C116.36 6.66494 116.52 5.94892 116.75 6.68483ZM143.1 13.8848C142.64 13.855 142.95 13.7158 142.6 13.3976C142.04 13.8749 142.92 13.8848 143.11 14.1335C143.21 13.8053 143.68 13.4672 143.59 13.139C143.26 13.3976 143.14 13.6462 143.1 13.8848ZM55.7697 83.1999C56.2097 83.4684 56.2696 81.9767 57.1196 81.8176C56.4796 81.5789 57.4596 81.3204 57.1096 81.0718C56.7096 81.201 56.1596 81.9568 55.7596 82.6928C55.9096 82.8718 56.0297 83.0309 55.7697 83.1999ZM93.8396 82.2154C94.4796 81.6386 93.7796 82.5336 94.0896 82.7126C95.1796 81.9668 93.4996 81.2508 93.8396 82.2154ZM97.4296 80.8132C97.6396 80.6839 97.8397 80.7436 98.0497 80.4353C97.7496 80.1171 97.8896 79.8088 97.4196 80.0773C97.7496 80.316 97.2096 80.5646 97.4296 80.8132ZM119.15 38.5777C119.58 38.1998 119.59 37.8319 119.26 37.4639C119.12 37.8319 118.54 38.2098 119.15 38.5777ZM95.3497 36.0418C95.0297 36.3302 94.7297 36.6286 94.9897 36.917C95.1097 36.8473 95.2396 36.8772 95.3696 37.0363C95.5796 36.7877 95.6996 36.5391 95.6096 36.2904C95.4296 36.4098 95.3897 36.2208 95.3497 36.0418ZM102.52 31.9843C103.25 32.1832 102.9 32.4816 103.03 32.9689C103.32 32.6805 103.17 32.3921 103.64 32.0937C103.77 32.1634 103.89 32.3324 104.02 32.2131C103.51 31.6164 103.01 31.6462 102.52 31.9843ZM6.17965 87.6751C6.10965 87.5557 6.13965 87.4265 6.29965 87.3071C5.95965 87.0088 5.62965 87.0187 5.29965 87.3171C5.59965 87.6453 5.88965 87.9337 6.17965 87.6751ZM32.7597 64.812C32.6897 64.9413 32.5196 65.0607 32.6396 65.18C32.8797 64.8518 33.1296 64.7225 33.3796 64.6728C33.3296 64.0463 32.3296 64.0563 32.3796 64.6828C32.5096 64.6231 32.6297 64.6529 32.7597 64.812ZM81.4196 17.1567C80.8396 17.3456 81.0796 17.9025 80.7896 17.0373C80.5896 17.6141 80.9396 18.1909 80.5596 18.7777C81.0396 18.3699 81.0897 17.4252 82.1597 17.3954C81.9097 17.6838 82.2197 17.9722 82.5497 18.2605C82.3697 18.4097 82.0696 19.1456 82.4296 18.8771C82.2896 18.4097 83.0297 18.5489 82.7997 18.2506C82.6197 18.4396 82.1896 17.6141 82.4196 17.3854C82.8496 17.644 83.6596 16.2418 82.7796 16.5103C82.9697 16.7589 82.8596 17.0075 82.5396 17.2561C82.3596 16.7291 81.0997 15.9832 81.1597 16.4108C81.2397 16.3412 81.3197 16.2815 81.4097 16.4108C80.7797 16.6694 81.7596 16.9081 81.4196 17.1567ZM80.3297 19.5235C79.8397 18.8374 79.6797 19.4937 79.4597 19.4141C79.3797 19.3445 79.2897 19.2849 79.2097 19.4141C79.5897 19.981 79.9596 19.623 80.3297 19.5235ZM85.6196 14.6307C85.4496 14.4716 85.2796 14.3025 85.1196 14.1434C84.8296 14.6108 84.9697 14.4716 84.4996 14.7699C84.8796 15.1876 85.2396 14.6208 85.6196 14.6307ZM84.8797 15.3865C84.5497 15.2274 84.2197 15.3965 83.8896 15.6451C84.5097 16.0528 84.6196 16.4605 84.3996 16.8782C84.6896 16.55 84.9797 16.4208 85.2697 16.5003C85.1096 16.7092 84.7697 16.918 84.9097 17.1268C85.1096 16.9379 85.3297 17.3357 85.5296 16.9976C85.0996 16.739 85.8897 15.8539 85.5197 16.0031C84.9497 16.7489 84.3796 15.8838 84.6396 15.3965C84.7597 15.5257 85.0097 15.6351 84.8797 15.3865ZM65.8696 36.5391C66.0796 36.3103 66.2797 36.181 66.4897 36.1611C65.9497 35.9225 66.3796 35.6639 66.2296 35.4252C66.0496 35.7932 65.6296 36.1711 65.8696 36.5391ZM52.8996 53.7833C53.0796 53.4949 53.3796 53.1965 53.0096 52.9181C52.8396 53.0872 52.6797 53.2562 52.5197 53.4153C52.6497 53.5446 52.7696 53.664 52.8996 53.7833ZM69.3696 37.981C69.5496 37.7921 70.4196 36.9965 69.8596 37.2352C69.6497 37.4042 69.4497 37.7424 69.2397 37.6131C69.3097 37.4838 69.2796 37.3645 69.1096 37.2451C68.6197 37.4938 69.1796 37.7424 69.3696 37.981ZM72.5997 37.6926C73.0197 37.3844 72.7497 36.4694 72.7097 36.5788C72.3497 36.9567 72.4197 37.3247 72.5997 37.6926ZM96.9697 17.0871C96.6696 16.739 97.3497 17.0373 97.4597 16.5898C96.5397 16.6296 96.2197 16.6296 95.4597 15.8738C96.0897 15.2373 95.0097 15.3965 95.3197 14.76C94.9097 14.8594 94.4897 14.392 94.0797 15.0186C94.2896 15.1777 94.4997 15.5158 94.7097 15.3865C94.4497 15.0683 94.7496 14.76 95.0797 15.0086C94.1597 15.7047 95.6096 15.4064 95.3396 15.7445C95.1796 15.8738 94.8397 15.8141 94.9697 16.1224C95.1796 15.9733 95.3896 16.2517 95.5896 16.2418C95.1796 16.7688 95.4496 17.276 94.8596 17.4849C95.1497 17.8528 94.9896 18.2307 95.2496 18.5887C95.1696 17.6539 95.8896 17.4351 95.7197 16.5998C96.1197 17.1169 95.8297 17.1169 96.2197 16.5898C96.7496 16.6992 96.5197 17.1666 96.9697 17.0871ZM92.6297 18.002C93.1897 17.465 92.3096 17.7136 92.1196 17.2661C92.0396 17.3456 91.9596 17.4351 91.8696 17.5147C91.9996 17.634 91.9196 17.7633 91.9996 17.8827C92.3297 17.813 92.6197 17.5047 92.6297 18.002ZM96.7397 18.3202C97.1497 17.7434 97.5596 17.8031 97.9796 17.813C97.3996 17.1169 96.7196 18.3998 96.4796 17.3357C96.3696 17.7931 95.6897 17.4948 95.9897 17.8329C96.5397 17.465 96.5997 17.823 96.7397 18.3202ZM97.8396 16.9478C97.9196 16.4506 98.9597 15.9434 98.3197 15.4561C98.1997 15.5854 98.0796 15.7047 97.9496 15.834C98.7096 16.192 97.0796 16.5898 97.8396 16.9478ZM27.2496 90.4994C27.1696 90.569 27.0896 90.6287 26.9996 90.4994C27.1396 90.3303 27.2496 90.1712 26.9896 90.0022C26.6696 90.3005 26.3696 90.1613 26.3796 90.6287C26.6096 91.0364 27.4396 90.7281 27.2496 90.4994ZM98.3596 18.6782C98.2796 18.6086 98.1897 18.5489 98.1096 18.6782C98.3697 19.1755 98.6097 18.6186 98.8497 18.4197C98.5797 18.2108 98.7096 18.0119 98.4697 17.8031C98.3096 17.9821 98.1396 18.0219 97.9697 18.0517C98.1497 18.2606 98.4896 18.4694 98.3596 18.6782ZM99.1196 19.4042C98.2196 19.7224 99.7597 18.3501 98.8596 18.6683C99.1497 19.0164 98.4796 18.718 98.3696 19.1655C98.2196 19.444 99.3296 20.0009 99.1196 19.4042ZM116.08 3.34339C116.58 3.34339 116.52 2.70692 116.31 2.34891C116.15 2.51797 115.98 2.68703 115.82 2.84615C116.01 3.01521 116.05 3.18427 116.08 3.34339ZM101.25 20.9854C101.57 20.6175 101.87 20.7467 101.87 21.1048C101.72 20.4683 102.24 20.1103 102.47 19.7324C102.06 19.9909 101.64 19.8617 101.23 20.0009C102.19 20.5677 101.14 20.5876 101.25 20.9854ZM102.98 19.4838C103.23 19.1556 103.48 19.7025 103.73 19.4738C103.25 19.1456 103.23 18.8175 102.97 18.4893C102.81 18.6981 102.47 18.907 102.61 19.1158C102.77 18.9865 102.94 18.7379 103.1 18.8572C102.88 19.0661 102.88 19.2749 102.98 19.4838ZM117.98 5.67047C118.45 5.37212 118.12 5.09367 118.59 4.79532C118.51 4.71576 118.42 4.62626 118.34 4.5467C118.22 4.67599 118.09 4.59643 117.97 4.67599C118.02 5.01411 117.92 5.34229 117.98 5.67047ZM109.43 17.9125C109.76 17.6838 110.39 17.5147 110.04 17.0373C109.7 17.6241 108.22 17.2064 108.68 17.6738C108.92 17.1766 109.18 17.7235 109.43 17.9125ZM35.0097 94.358C35.1096 94.0298 35.5796 93.6917 35.4896 93.3635C35.1196 93.8409 34.7397 93.3734 34.3697 93.5027C34.7997 93.8409 34.4797 94.3779 35.0097 94.358ZM61.7796 66.5424C62.0296 66.5027 62.2797 66.3634 62.5197 66.0353C62.3897 65.9159 62.2696 65.7866 62.1396 65.6673C61.9896 65.9656 61.6996 66.254 61.7796 66.5424ZM62.1696 68.1435C62.6996 67.6463 63.0896 67.1391 63.1496 66.6518C62.4696 67.0297 62.1096 67.4971 62.1696 68.1435ZM94.2496 37.1656C94.1696 37.2352 94.0896 37.2949 93.9996 37.1656C94.2197 36.9567 94.2196 36.7479 94.1196 36.549C93.9996 36.6186 93.8697 36.7976 93.7496 36.6783C94.2696 35.9722 93.2796 36.8573 93.4996 36.9269C93.7496 36.6484 94.2396 38.0904 94.2496 37.1656ZM47.8396 85.7856C47.3896 86.3226 46.9296 85.5569 46.4697 85.9248C46.1197 87.3071 48.0496 86.5414 47.8396 85.7856ZM104.35 29.6075C103.57 30.2639 104.15 30.2639 104.6 29.6075C103.85 29.339 104.59 29.1501 103.84 28.8716C104.05 28.6628 104.25 28.4539 104.46 28.2451C104.08 27.7578 103.72 28.7225 103.34 28.3843C103.53 28.5832 103.79 28.7921 103.47 29.0009C104.03 29.1899 103.8 29.518 104.35 29.6075ZM114.67 19.3346C114.41 19.4937 114.53 19.1456 114.29 18.9666C114.04 19.2948 113.8 19.4241 113.55 19.4738C113.86 19.9313 114.79 19.623 114.67 19.3346ZM126.83 7.17212C126.54 7.47047 126.25 7.33124 125.97 7.79865C126.43 8.41523 127.02 7.54008 126.83 7.17212ZM125.84 7.18207C125.74 7.51025 125.27 7.84837 125.36 8.17655C125.89 8.17655 126.07 7.54008 125.84 7.18207ZM105.23 29.9755C104.87 30.6915 104.48 29.7667 104.11 30.3633C104.41 30.8606 105.74 30.0252 105.23 29.9755ZM113.46 22.0694C112.93 22.2981 113.07 21.5125 112.95 21.3335C112.1 22.1191 113.65 22.6064 112.47 22.5766C112.85 23.0838 113.84 22.6363 113.46 22.0694ZM114.93 20.0705C114.64 19.7125 114.35 19.8418 114.06 20.1998C114.36 20.7368 114.65 20.4285 114.93 20.0705ZM115.43 20.0606C116.12 19.5534 116.97 19.6827 117.03 18.6782C116.5 19.4937 115.96 19.3445 115.42 19.5633C115.59 19.7324 115.32 19.9014 115.43 20.0606ZM105.75 31.9446C106.03 31.4772 106.33 31.6164 106.61 31.318C106.12 30.8109 105.58 31.5766 105.75 31.9446ZM116.81 21.1545C117.32 21.4329 117.01 21.7313 117.19 22.0197C117.6 21.7512 118.01 20.8661 118.42 21.0153C118.45 21.7213 118.26 21.6716 118.32 22.3777C118.88 21.96 119.13 21.8407 119.3 21.1247C118.81 20.8561 118.65 21.1843 118.42 20.518C118.05 20.7567 117.68 21.055 117.3 20.6572C117.22 20.5876 117.13 20.528 117.05 20.6572C117.18 20.8263 117 20.9954 116.81 21.1545ZM109.1 31.0396C109.18 30.96 109.26 30.8705 109.35 30.791C109.56 30.9501 109.77 31.2882 109.98 31.1589C109.85 30.6319 109.47 30.8307 109.35 30.3037C109.03 30.5423 108.91 30.791 109.1 31.0396ZM127.66 13.3478C128.34 13.5865 127.88 13.6163 127.92 14.0837C128.25 14.0937 128.87 13.5467 128.53 13.2086C127.96 13.9346 128.35 12.3633 127.78 12.7213C127.92 12.9302 127.65 13.139 127.66 13.3478ZM95.0596 51.3866C94.9496 51.6352 94.2797 51.8938 94.5697 52.1325C94.8997 51.675 95.2297 51.9137 95.5497 51.3767C95.3697 50.9888 94.3697 50.8794 94.9097 50.0242C94.6096 49.517 94.3296 50.0938 94.0396 49.9148C93.8696 49.4673 94.1596 48.9999 94.1496 48.5523C93.9296 48.5225 93.7597 48.3236 93.2796 48.4429C93.7796 48.6816 93.2296 48.9402 93.0396 49.1888C93.7796 49.7954 92.9497 50.4319 92.9397 51.0485C93.9097 50.8396 93.0696 49.7855 93.9196 50.0441C93.4096 50.7999 94.3896 51.7546 95.0596 51.3866ZM120.69 22.4672C120.81 22.3379 120.94 22.4175 121.06 22.3379C120.55 22.0595 120.86 21.7611 120.67 21.4727C120.55 21.5423 120.42 21.7114 120.3 21.602C120.37 21.4727 120.34 21.3534 120.17 21.234C119.95 21.4429 119.82 21.6517 119.8 21.8606C120.47 22.3081 120.55 21.602 120.69 22.4672ZM128.91 13.5766C129.32 13.1688 129.73 13.1589 130.14 12.5721C129.91 12.0451 129.08 12.3534 129.27 12.7114C129.99 12.5125 128.54 13.3578 128.91 13.5766ZM122.92 22.1887C123.24 21.9003 123.1 21.6119 123.28 21.3136C124.28 21.8804 122.72 22.4771 123.05 23.0539C123.65 22.6363 123.49 22.2186 124.03 21.8009C123.75 21.602 123.95 21.3932 123.9 21.1843C123.4 21.4528 123.53 20.7169 123.52 20.5677C122.82 21.3335 122.2 20.6175 121.78 20.339C121.45 21.0252 120.97 20.9556 121.05 21.5821C121.52 21.2838 121.37 21.423 121.66 20.9556C121.77 21.7711 122.09 21.0053 122.29 21.0749C122.1 21.9003 123.08 21.2838 122.92 22.1887ZM119.47 24.2175C119.25 24.3865 119.11 24.0385 119.09 23.8495C118.76 24.4462 118.43 23.8992 118.1 24.3567C118.48 24.5357 119.5 24.4959 119.47 24.2175ZM111.26 34.3512C110.83 34.202 110.36 34.6794 110.52 35.107C110.79 34.2518 112.17 34.5302 112.37 33.7247C112.25 33.7943 112.12 33.7645 111.99 33.6053C111.73 33.7744 111.86 34.1026 111.62 33.9832C111.49 33.6153 111.96 33.2374 111.48 32.8694C111.37 33.118 110.7 33.3766 110.99 33.6153C111.2 33.4462 111.4 33.1081 111.61 33.2374C111.03 33.6053 111.49 33.9733 111.26 34.3512ZM55.6196 90.6287C55.4996 90.6983 55.3697 90.6685 55.2397 90.5093C55.0797 90.7182 54.7396 90.927 54.8696 91.1359C55.0596 91.0265 55.8496 91.1558 55.6196 90.6287ZM121.1 25.8086C120.77 25.9876 120.43 25.2318 120.1 25.8186C120.31 25.9777 120.52 26.3158 120.73 26.1865C120.46 25.7191 121.21 26.286 121.35 25.8086C121.47 25.3512 121.2 24.9037 121.46 24.4462C121.17 24.128 120.87 23.8296 120.58 24.0882C120.79 24.307 121 24.4363 121.21 24.4462C120.92 24.9236 121.06 24.7744 120.59 25.0727C120.93 25.3213 121.4 25.3313 121.1 25.8086ZM113.99 33.8142C113.48 34.0131 113.22 33.3866 112.49 33.5855C112.93 34.3015 113.99 34.6197 113.99 33.8142ZM57.3696 91.106C56.9996 91.2652 56.6196 91.106 56.2596 91.4939C56.5596 91.9314 57.4896 91.653 57.3696 91.106ZM123.19 23.4318C123.53 23.8495 123.85 23.2827 124.18 23.1733C123.68 22.5368 123.39 22.9445 123.19 23.4318ZM55.0396 93.4828C55.5396 93.3834 56.0297 93.0254 56.5197 92.7171C56.0997 92.3193 55.6896 92.9458 55.2796 92.737C55.7096 92.9856 54.6096 93.2442 55.0396 93.4828ZM55.9196 94.3381C56.4496 93.9801 56.3396 93.095 55.7796 93.4729C55.8296 93.7613 55.6996 94.0497 55.9196 94.3381ZM58.9796 90.4596C58.1796 91.1856 57.5097 92.1005 56.7697 92.9657C57.1997 92.6674 56.7797 93.3436 57.0197 93.453C58.0097 92.5381 58.9996 92.6375 59.9996 92.6674C59.9296 92.7967 59.7597 92.916 59.8797 93.0453C60.0197 92.7569 60.7497 92.4585 60.4897 92.1701C59.8797 92.0906 60.0496 92.6574 59.4996 92.4287C59.4796 92.1005 60.0497 91.7624 59.7397 91.4342C59.4797 91.6033 59.5997 91.2453 59.3596 91.0663C59.1096 91.285 58.8596 91.4044 58.6096 91.3248C58.1196 90.7977 59.2196 91.0066 58.9796 90.4596ZM124.09 26.0175C123.91 26.1269 123.12 25.9976 123.35 26.5247C123.54 26.6042 124.33 26.4849 124.09 26.0175ZM124.59 26.0075C124.7 25.7589 125.37 25.5003 125.08 25.2617C124.96 25.3313 124.83 25.3014 124.7 25.1423C124.38 25.4307 124.51 25.7191 124.59 26.0075ZM68.7197 83.7767C69.0396 83.4187 69.1797 83.727 69.2097 83.2795C68.9197 82.9513 68.6296 83.2596 68.3396 83.1701C68.4696 83.369 68.4097 83.5778 68.7197 83.7767ZM124.52 30.3435C124.29 29.8263 123.46 30.3435 123.65 30.7214C123.95 30.7114 124.24 30.8506 124.52 30.3435ZM139.63 15.1677C139.91 14.7103 140.23 14.2528 139.99 13.8053C139.82 14.2628 139.5 14.7202 139.63 15.1677ZM141.6 13.4174C141.13 13.676 141.27 13.3777 140.97 13.0594C140.86 13.3081 140.19 13.5666 140.48 13.8053C140.78 13.1489 141.72 14.3622 141.6 13.4174ZM141.11 14.1633C140.98 14.3324 140.74 14.5014 140.87 14.6605C141.03 14.4915 141.2 14.3224 141.36 14.1633C141.13 13.8252 140.29 13.7456 140.49 14.2926C140.7 14.2031 140.9 14.1434 141.11 14.1633ZM131.93 25.5401C131.19 25.9876 130.16 26.8926 130.09 27.6683C130.3 27.5788 130.5 27.5191 130.71 27.539C130.53 27.8672 129.75 28.2153 129.97 28.5435C130.22 28.3247 130.46 28.2053 130.71 28.2849C130.11 28.8418 130 28.6727 130.23 29.2794C129.32 28.9114 129.74 29.8263 129.12 29.9059C129.5 27.8573 129.68 28.8517 128.74 29.7865C128.16 30.3733 126.89 30.7015 127.14 31.4175C127.72 31.2087 127.72 30.9103 128.12 30.4131C128.72 30.8109 129.3 30.2042 129.73 30.0252C129.68 30.4429 129.49 30.8506 129.25 31.2683C129 30.8407 128.75 31.2683 128.5 31.0296C127.68 31.6562 127.94 32.7899 127.03 33.0285C127.26 33.6948 127.96 33.7247 128.53 33.2573C128.24 32.7899 127.95 33.3667 127.65 32.8993C128.23 32.3324 128.58 32.7899 128.26 32.0241C128.56 31.9048 129.49 31.6661 129.39 32.3821C129.24 32.6805 128.51 32.5413 128.77 33.0087C128.98 32.7899 129.18 32.7799 129.39 32.8794C129.15 33.3368 128.89 33.0285 128.65 33.3866C128.99 33.9733 129.31 33.4263 129.65 33.8639C128.97 34.3413 129.72 34.1921 129.53 34.4805C129.32 34.6694 129.11 34.2716 128.91 34.6098C129.14 34.9877 129.61 35.1965 130.04 35.2164C129.67 35.644 129.3 35.5346 128.93 36.1015C128.72 35.8827 128.51 35.7534 128.3 35.7435C128.46 35.5346 128.8 35.3258 128.67 35.117C128.47 35.3059 128.25 34.9081 128.05 35.2462C128.35 35.4451 128.21 36.0617 127.94 36.6087C128.65 36.3004 128.1 37.6529 128.7 37.3446C129.02 36.8274 129.1 36.6783 129.55 35.9722C129.4 36.5987 130.5 36.3004 130.31 36.7081C129.98 36.8175 129.65 36.7777 129.32 36.9667C129.87 37.7921 130.41 37.5932 130.95 38.0606C131.24 37.7324 131.09 37.4341 131.57 37.6827C131.88 38.1501 131.41 38.2694 131.08 38.1799C131.29 38.6076 131.92 39.1346 132.46 39.0252C131.92 39.4827 132.12 39.8109 132.59 39.6418C132.37 39.8507 132.24 40.0595 132.22 40.2683C132.61 40.9744 133.19 40.9048 132.86 41.6208C133.39 41.6208 133.24 41.2031 133.35 40.875C133.72 40.9645 134.09 40.6462 134.47 40.7357C134.66 40.9446 134.26 41.1534 134.6 41.3523C134.98 40.5766 135.11 41.0341 135.71 40.4672C135.19 40.149 135.96 39.8009 135.7 39.4728C135.45 39.7214 135.2 39.3037 134.96 39.7313C135.13 39.9402 135.47 40.1391 135.34 40.3479C135.05 40.3976 134.76 40.2683 134.47 40.2385C134.77 39.9004 134.76 39.5722 134.46 39.244C134.09 39.2739 133.72 39.791 133.34 39.6319C133.62 39.423 133.41 39.2142 133.46 39.0153C134.05 38.8761 135.66 39.0451 135.44 38.2495C134.9 38.1899 134.37 38.9556 133.82 38.3888C134.29 38.1004 133.54 37.812 134.18 37.5136C133.47 37.0761 133.8 36.8175 132.92 36.5391C133.77 36.7479 133.64 35.9623 134.15 35.7832C133.69 36.4297 134.49 36.2606 134.53 36.1512C134.65 36.3103 134.59 36.4794 134.54 36.6484C134.29 36.8971 134.04 36.4794 133.8 36.907C134.13 37.2551 134.26 36.9468 134.3 37.3943C135.21 36.7976 136.12 36.6683 137.03 36.6186C136.96 36.0617 136.29 36.539 136.15 35.7634C135.8 36.012 136.11 36.2606 135.66 36.5092C135.53 36.3899 135.41 36.4694 135.29 36.3899C135.25 36.0219 135.17 35.644 135.4 35.2761C135.45 35.7335 135.57 35.4252 135.9 35.7634C136.29 35.4252 135.99 35.0971 136.38 34.7689C136.21 34.5998 136.04 34.56 135.88 34.5302C136.02 33.7545 136.55 34.3114 136.62 33.7744C136.2 33.2772 135.8 34.1523 135.38 33.7943C136.26 33.1578 135.29 33.307 135.49 32.6805C135.94 32.1633 136.27 32.6606 136.12 33.0484C136.42 32.402 136.49 31.9644 137.22 31.9247C136.8 31.1987 136.4 32.3622 135.98 32.1832C135.81 31.686 135.8 31.1987 135.96 30.7015C135.96 31.149 136.38 30.9103 136.72 31.4374C137.21 30.9004 137.71 31.1689 138.21 30.9203C137.88 30.5722 137.75 30.8805 137.71 30.433C137.34 30.6219 136.97 31.0396 136.6 30.8208C137.44 30.1645 135.61 30.8407 136.21 29.707C136.37 30.244 137.09 29.9258 136.83 29.5777C136.59 29.4285 135.77 28.9611 136.07 28.3545C136.08 28.8219 136.37 28.5037 136.7 28.9611C137.15 28.5832 136.21 28.2252 137.06 27.8473C136.68 27.5092 136.3 26.9821 135.93 26.9921C136.83 26.9523 137.03 26.3158 137.03 25.6197C137.03 25.7887 136.6 25.9379 136.53 25.8783C136.22 25.57 136.21 23.6208 136.38 23.5313C135.58 23.3125 135.84 23.2528 135.62 22.5467C135.16 22.5169 134.7 22.2782 134.25 22.4374C133.57 24.2871 131.29 25.0031 129.95 26.3258C130.6 25.8584 131.26 25.6197 131.93 25.5401ZM126.27 30.5622C126.51 30.1048 126.77 30.4131 127.01 30.0551C126.66 29.4882 125.9 30.1943 126.27 30.5622ZM75.4296 92.2298C76.2196 92.1005 76.4296 91.116 76.7796 90.6088C76.3096 89.7635 75.4796 89.1569 74.8896 88.779C73.6696 89.4751 74.3296 91.1558 75.4296 92.2298ZM121.72 44.4849C122.24 43.9081 122.02 44.8927 122.47 44.7236C122.7 44.3457 122.99 43.9777 122.58 43.6098C122.2 44.5148 122.3 43.7788 121.71 43.9877C121.88 44.1567 121.61 44.3258 121.72 44.4849ZM143.72 23.7799C144.27 23.8197 144.1 22.9744 144.71 23.0241C144.42 22.5169 144.03 22.855 144.45 22.0396C144.25 22.2782 144.04 22.2086 143.83 21.9202C143.51 22.2086 143.38 22.507 143.47 22.7954C144.26 23.0838 143.31 23.2429 143.72 23.7799ZM129.47 37.8219C129.29 37.6628 129.25 37.4937 129.21 37.3247C128.97 37.6529 128.72 37.7921 128.47 37.8319C128.82 38.3291 129.14 38.0705 129.47 37.8219ZM131.64 41.8794C132.58 40.8551 131.49 40.1987 131.11 39.6617C131.18 39.5324 131.35 39.4131 131.23 39.2838C131.13 39.7612 130.66 39.781 130.74 40.0297C131.53 40.1589 131.44 41.3424 131.64 41.8794ZM126.37 47.7667C126.37 47.3192 125.95 47.4684 125.62 47.2794C125.46 47.4485 125.29 47.6175 125.13 47.7766C125.54 48.1446 125.95 47.349 126.37 47.7667ZM103.3 72.8176C103.71 72.7579 104.13 72.5391 104.55 73.0463C104.63 72.9668 104.71 72.8773 104.8 72.7977C104.67 72.6784 104.75 72.5491 104.67 72.4297C104.15 72.7281 104 71.9723 103.3 72.3204C103.46 72.4795 103.19 72.6485 103.3 72.8176ZM134 41.4816C133.45 41.7402 134.31 41.9689 133.76 42.2275C133.58 41.402 133.37 42.1877 133.01 42.2374C133.57 42.5855 133.28 43.212 133.65 43.3413C133.84 42.7247 134.51 42.0882 134 41.4816ZM135.63 42.5755C135.25 42.0286 134.99 41.6109 134.38 41.8496C134.62 42.2971 134.97 43.4805 135.63 42.5755ZM126.53 50.6109C126.92 50.233 127.15 49.865 127.14 49.4871C126.81 49.865 126.19 50.2429 126.53 50.6109ZM136.61 40.8252C136.83 40.8352 137.66 40.2882 137.47 39.9501C137.35 40.0794 137.22 40.1987 137.1 40.328C136.85 40.0098 136.6 39.9004 136.35 40.0893C136.47 40.338 136.48 40.5866 136.61 40.8252ZM124.33 53.8529C124.58 53.5048 124.83 53.8032 125.07 53.3457C124.81 52.7988 124.57 53.654 124.32 53.107C124.39 53.0374 124.36 52.8684 124.19 52.9877C124.56 53.2761 123.82 53.5745 124.33 53.8529ZM136.75 42.4363C136.39 41.949 136.96 41.4418 136.98 40.9446C136.65 41.6706 135.67 41.1335 135.75 41.949C136.64 40.9943 136.05 43.1026 136.75 42.4363ZM139.35 41.5313C139.71 41.1534 140.11 40.7755 139.71 40.4076C139.3 40.9744 138.88 40.686 138.46 40.4275C137.99 40.5766 138.32 41.3026 137.85 41.054C138.07 40.8451 138.07 40.6363 137.97 40.4374C137.79 40.6264 137 40.4971 137.23 40.9446C137.55 40.7159 138.04 41.4916 137.74 41.6805C137.47 41.4816 137.6 41.2728 137.36 41.0639C136.86 42.4363 138.72 41.3523 139.35 41.5313ZM124.72 54.7181C125.02 54.3899 125.24 54.0518 125.21 53.7236C124.83 54.1314 124.13 54.1413 124.72 54.7181ZM142.03 37.0462C142.21 36.5192 143 36.7379 142.77 36.2904C142.48 36.3302 142.19 36.2009 141.9 36.4197C142.05 36.6286 141.91 36.8374 142.03 37.0462ZM144.51 36.2705C144.96 35.8926 144.69 35.5247 144.87 35.1567C144.51 35.5247 144.11 35.9026 144.51 36.2705ZM145.86 35.1368C145.41 34.8087 145.86 34.4805 145.6 34.1523C145.44 34.2816 145.27 34.5302 145.11 34.4009C144.77 34.0429 144.44 34.3512 144.12 34.6595C144.55 34.8982 144.13 35.1567 144.38 35.3954C145.06 35.0076 145.09 34.8385 145.62 34.8882C145.49 35.0274 145.68 35.2661 145.86 35.1368ZM143.14 36.4098C143.37 36.7976 144.2 36.3899 144.01 36.0319C143.85 36.1611 143.68 35.9722 143.51 35.7932C143.25 36.002 143.38 36.2009 143.14 36.4098ZM142.53 37.2849C142.08 37.6628 142.34 38.0308 142.17 38.3987C143.1 38.1799 144.47 37.6529 144.13 36.3899C143.5 37.265 143.75 38.2297 142.53 37.2849ZM140.11 42.7645C139.73 42.6551 138.71 42.6153 138.75 43.4009C139.13 42.7247 140.16 43.4109 140.11 42.7645ZM143.68 39.3733C143.84 39.1645 144.18 38.9556 144.05 38.7468C143.81 39.0949 143.54 38.1203 143.3 38.7567C143.53 38.9656 143.66 39.1744 143.68 39.3733ZM143.57 40.2485C143.49 40.3181 143.41 40.3777 143.32 40.2485C143.89 39.9103 142.9 39.5921 143.06 39.2639C142.46 39.7711 142.22 40.2683 142.83 40.7556C142.87 39.9302 143.65 40.7755 143.57 40.2485ZM142.95 40.875C142.33 41.2827 141.71 41.3225 141.09 41.7601C141.9 42.5855 142.77 41.2529 142.95 40.875ZM145.44 40.8352C144.93 41.591 144.69 41.7998 143.96 42.0882C144.59 42.6451 145.5 41.3324 145.44 40.8352Z" fill="#0AA7F7"/>
</svg>
