<svg width="61" height="61" viewBox="0 0 61 61" fill="none" xmlns="http://www.w3.org/2000/svg">
<path d="M30.5 0C47.3447 0 61 13.6553 61 30.5C61 47.3447 47.3447 61 30.5 61C13.6553 61 0 47.3447 0 30.5C0 13.6553 13.6553 0 30.5 0ZM41.4609 12.1151C40.8325 12.0781 40.2645 12.4537 39.8339 13.1203L35.664 21.0283C35.225 21.9653 35.4744 22.9687 36.1294 23.6382L38.0393 25.5482C38.1572 25.7097 38.2348 25.8917 38.2367 26.0917C37.5042 28.927 35.2824 31.5422 33.3221 33.3407C31.3618 35.1392 29.2549 37.5742 26.52 38.151C26.1819 38.2453 25.7678 38.2791 25.5259 38.0543L23.3069 35.7943C22.5409 35.2138 21.4329 34.9324 20.6151 35.4071H20.5778L13.0534 39.8489C11.9489 40.5412 11.8345 41.8793 12.6253 42.6933L17.8078 47.835C18.5731 48.6198 19.5899 48.8837 20.5777 48.8849C24.9468 48.754 29.0749 46.6096 32.4657 44.406C38.0315 40.3569 43.1368 35.335 46.342 29.2676C47.5712 26.7234 49.0152 23.4772 48.8774 20.6375C48.8651 19.5692 48.5761 18.5225 47.8237 17.834L42.6411 12.6513C42.2374 12.3078 41.838 12.1374 41.4609 12.1151Z" fill="black"/>
</svg>
